/* XPM */
static char *nekokak09[] = {
/* columns rows colors chars-per-pixel */
"32 32 128 2 ",
"   c #091616",
".  c #0B1817",
"X  c #0A1718",
"o  c #0D1A1B",
"O  c #111D1D",
"+  c #121E20",
"@  c #142124",
"#  c #182527",
"$  c #19252A",
"%  c #1D2A2D",
"&  c #1F2D31",
"*  c #202E32",
"=  c #243135",
"-  c #24333A",
";  c #29363A",
":  c #2D393C",
">  c #303C3F",
",  c #2F3D41",
"<  c #323E42",
"1  c #344146",
"2  c #39464A",
"3  c #3D4A4E",
"4  c #3F4C52",
"5  c #424F53",
"6  c #445156",
"7  c #485257",
"8  c #455359",
"9  c #49565C",
"0  c #4C595E",
"q  c #4F5C62",
"w  c #505D61",
"e  c #566166",
"r  c #556369",
"t  c #5B666B",
"y  c #5E696E",
"u  c #5E6C72",
"i  c #616C72",
"p  c #677176",
"a  c #687377",
"s  c #677479",
"d  c #69757B",
"f  c #6E797F",
"g  c #6E7B81",
"h  c #727E83",
"j  c #7A8286",
"k  c #748188",
"l  c #7C868B",
"z  c #7F8C92",
"x  c #808C92",
"c  c #849197",
"v  c #899195",
"b  c #849198",
"n  c #8C959B",
"m  c #92989A",
"M  c #909DA4",
"N  c #989FA2",
"B  c #97A1A6",
"V  c #9EA4A6",
"C  c #9BA5AC",
"Z  c #9DA9AF",
"A  c #9EAAB1",
"S  c #A0A6A9",
"D  c #A1A9AF",
"F  c #A8ADAE",
"G  c #AAAFB1",
"H  c #A5B1B8",
"J  c #ADB6BB",
"K  c #B1B6B9",
"L  c #B5BABC",
"P  c #BABDBE",
"I  c #AEBAC0",
"U  c #B5BDC3",
"Y  c #B4C0C7",
"T  c #BDC1C3",
"R  c #BEC5CA",
"E  c #BECAD0",
"W  c #C5C6C6",
"Q  c #C7C8C7",
"!  c #C1C7CA",
"~  c #C6C9CA",
"^  c #CBCCCB",
"/  c #CED0CF",
"(  c #D0D0CF",
")  c #C6CFD6",
"_  c #CCCFD1",
"`  c #CED1D4",
"'  c #C7D2D8",
"]  c #CDD5DB",
"[  c #CDD8DE",
"{  c #D2D3D3",
"}  c #D3D6D9",
"|  c #D4D8DD",
" . c #D9DADE",
".. c #D5DBE2",
"X. c #DBDDE2",
"o. c #DDE1E6",
"O. c #DFE6ED",
"+. c #E0E7EE",
"@. c #E1E8EF",
"#. c black",
"$. c black",
"%. c black",
"&. c black",
"*. c black",
"=. c black",
"-. c black",
";. c black",
":. c black",
">. c black",
",. c black",
"<. c black",
"1. c black",
"2. c black",
"3. c black",
"4. c black",
"5. c black",
"6. c black",
"7. c black",
"8. c black",
"9. c black",
"0. c black",
"q. c black",
"w. c black",
"e. c black",
"r. c black",
"t. c black",
"y. c black",
"u. c black",
/* pixels */
"O.O.O.O.O.O.O.+.O.O.O.O.O.O.O.O.O.O.O.O.O.O.O.O.O.O.O.O.O.O.O.O.",
"O.O.O.O.+.+.+.+.@.O.O.@.O.@.+.+.+.@.O.@.O.O.O.O.O.O.O.O.O.O.O.O.",
"O.O.O.o.o.O.O...[ ' [ [ [ ' [ ' ] ] [ ] [ O.O.o.O.o.O.O.O.O.O.O.",
"O.+.O._ ~ ^ T r , : ; ; : : : : : : : : 1 B / / / / ~ ~ ] O.O.O.",
"O.O.O.^ ~ W s @ o o o o X X . . . o . . . : C / ^ ^ Q W / O.O.O.",
"O.O.O.^ ^ N = o @ o o o o X o o o = i 6 + O 1 k m F P W ` O.O.O.",
"O.O.o./ Q r + o + o o o o o o o O d [ I 1 o o o @ & 1 t T @.O.O.",
"O.O.O.{ G ; O @ + o o o o   . O % M J Y r o + o o . X @ C @.O.O.",
"O.O.O.` j @ O O O o . o . . . O - y - 4 r O o O O o @ w W O.O.O.",
"O.O.O./ e O + O O O . o .   . o * z u s d O o o % 2 l T } O.O.O.",
"O.O.O.Q 5 O O O o O o . . . . O @ b [ ' 0 . . 2 V W / ( } O.O.O.",
"O.O.O.T > + O O O O o o . O O O O - z c % . . e { { ( / } O.O.O.",
"O.O.+.L = O O O O O O o o O O O O O @ +       0 ( ( ( ( } O.O.O.",
"O.O.+.K = O O O = e O o o ; a 3 O o o . . .   2 ^ { ( ( { O.O.O.",
"O.O.O.K = O O o > v 9 0 e B ' k O . o o . . . 1 Q { ( ^ ] O.O.O.",
"O.O.+.K = O o o ; D z f y k J a O o o o . o . 2 ^ { ( / { O.O.O.",
"O.O.+.L = O O . $ k : + O @ : & o O O O o . . 4 ) { ( ^ { O.O.O.",
"+.+.+.T : O O O o q : . . . . . . % g x 1 o . 4 / } ( ^ ( O.O.O.",
"O.O.+.Q 2 O O O o + O . . o o . o w P J n -   4 ` } { Q ` O.O.O.",
"O.+.o.( 7 O O O o o . . . . . . O i 6 * 4 2   & v ~ { ^ ` O.O.O.",
"O.O.O.} p + O O o . . . . . . o O w 9 9 k 2 X X @ 4 c T { O.O.O.",
"O.+.o. .m % O O O o . . X   . . . r E [ H & o o . . @ 0 T O.O.O.",
"+.+.+. .U < + O O O o . X X X . . - A E u + O o O O . o d O.O.O.",
"+.+.o. .} f # + O o o o . . X X . O : 1 # O O o o O O @ d O.O.O.",
"+.+.o.X. .U < + O O o o . . . o o o + o o + + , r u f n R @.O.O.",
"O.+.O.| |  .x * @ O O o o o o O o + o + O o = A o...| { { O.O.O.",
"O.O.X.X. .X.` t $ @ + @ o O o O + o o o o O 6 ] o.| | ] } O.O.O.",
"O.+.+.X. . .o.R 9 $ + o O o o o o o X X o @ l o.o.| | { ] O.O.O.",
"O.O.O.X.o.o.o.o.E g u u t t u r r u r r u g ) O.o.o.X.| ..O.O.O.",
"O.+.O.O.+.+.+.@.O.@.O.O.O.O.O.O.O.O.@.@.O.+.O.O.O.O.O.O.O.O.O.O.",
"O.O.O.O.+.+.+.+.O.O.O.O.O.O.O.O.O.O.O.O.O.O.+.O.O.O.O.O.O.O.O.O.",
"O.O.+.O.O.+.+.+.O.@.O.O.O.O.O.@.O.O.O.O.+.O.O.O.O.O.@.O.O.O.O.O."
};
