/* XPM */
static char *nekokak08[] = {
/* columns rows colors chars-per-pixel */
"32 32 128 2 ",
"   c #091616",
".  c #0B1817",
"X  c #0B1718",
"o  c #0D1A1B",
"O  c #111D1E",
"+  c #121E20",
"@  c #152224",
"#  c #182527",
"$  c #172428",
"%  c #19272A",
"&  c #1C2A2D",
"*  c #1E2C30",
"=  c #212E31",
"-  c #253235",
";  c #293537",
":  c #263439",
">  c #2A363A",
",  c #2D3A3E",
"<  c #303C3F",
"1  c #313E41",
"2  c #344145",
"3  c #374549",
"4  c #38454A",
"5  c #3D494D",
"6  c #3F4B51",
"7  c #424E53",
"8  c #445155",
"9  c #455258",
"0  c #4A5559",
"q  c #4D595E",
"w  c #4E5C61",
"e  c #515E64",
"r  c #546066",
"t  c #57646A",
"y  c #5A6669",
"u  c #5C686E",
"i  c #5E6B71",
"p  c #616C6F",
"a  c #636F74",
"s  c #6B777C",
"d  c #6E797E",
"f  c #727C7F",
"g  c #6D7A80",
"h  c #727E84",
"j  c #788286",
"k  c #758289",
"l  c #7A858A",
"z  c #7C888F",
"x  c #818A8E",
"c  c #848D91",
"v  c #869297",
"b  c #869399",
"n  c #8B959B",
"m  c #8F989D",
"M  c #90979A",
"N  c #90999F",
"B  c #929DA3",
"V  c #98A1A7",
"C  c #97A1A8",
"Z  c #9DA5A9",
"A  c #9FA8AD",
"S  c #A3A9AC",
"D  c #A8ACAE",
"F  c #A1ABB1",
"G  c #ABB1B4",
"H  c #ACB6BC",
"J  c #ADB8BF",
"K  c #B1B7B9",
"L  c #B3B8BB",
"P  c #BABDBE",
"I  c #AEBBC2",
"U  c #B3BDC3",
"Y  c #BCBFC4",
"T  c #BFC2C2",
"R  c #B7C3C9",
"E  c #BCC5CB",
"W  c #BEC9CE",
"Q  c #C8C9C7",
"!  c #C0C8CF",
"~  c #CCCDCC",
"^  c #C2CAD1",
"/  c #CDCFD0",
"(  c #CFD3D7",
")  c #C7D3D9",
"_  c #CCD4DA",
"`  c #D3D4D3",
"'  c #D1D6DA",
"]  c #D6D9DD",
"[  c #D8DADD",
"{  c #D6DCE1",
"}  c #DADDE1",
"|  c #DBE1E6",
" . c #DFE6ED",
".. c #E0E7EE",
"X. c #E1E8EF",
"o. c #E2E9F0",
"O. c black",
"+. c black",
"@. c black",
"#. c black",
"$. c black",
"%. c black",
"&. c black",
"*. c black",
"=. c black",
"-. c black",
";. c black",
":. c black",
">. c black",
",. c black",
"<. c black",
"1. c black",
"2. c black",
"3. c black",
"4. c black",
"5. c black",
"6. c black",
"7. c black",
"8. c black",
"9. c black",
"0. c black",
"q. c black",
"w. c black",
"e. c black",
"r. c black",
"t. c black",
"y. c black",
"u. c black",
/* pixels */
" . . . . . . . . . . . . . . . . . . . . . . . . . . . . . . . .",
" . . . . . . . . . . . . . . . . . . . . . . . . . . . . . . . .",
" . . . . . . . .X. . . .X.X.o.o.o.o.o.o.....X.X.X..... . . . . .",
" . . . . . . .o.X.X.X. .{ W A n n n n J { } { { { ] |  . . . . .",
" . . . . . .| ) I B l y 3 = + o o . . : z D D A S L ' .. . . . .",
" . . .| ] A q 1 # o o     o o @ 6 8 # o # = * * & 3 I .... . . .",
" . . .] Y 8 o O o o o o o o o 2 R W t o o o o o o = G .... ... .",
" . . .} n & O O o o o o . o o w R J v & o O O O & j Q  . . . . .",
" . .X.{ p + + + o o o o . o o 8 e : r 2 o o @ 5 M ~ ~ |  . . . .",
" . .X._ 8 + O O o o o o   o o 1 z s B 7   o p T ` ` ~ {  . . . .",
" . .X.E , + + O o o o   . o o % b ) W 1   . f ` ` ` ~ '  . . . .",
" . .X.J - + + O o o   o o o O O : a y O     0 ~ ` ` ~ `  . . .X.",
" . .X.H = O O O o o o o o o o o o o o       ; P ` ` ` `  . . . .",
" . ...U - O O O o O o o o & 3 % o o o o . . # Z ` ` Q Q |  . . .",
" . .X.E > O O O & 5 + o # f R q . . o o o . O c ` ` ~ Q {  . . .",
" . .X._ 5 O O o - l q i j A W p o o o o . o o f ` ` ~ Q ]  . . .",
"....X.} e O O o @ v b y 2 ; 9 ; o o < w - . . e _ ' ~ Q ]  . . .",
"......| f O O O O e t o o o o . . & B W B 2 . 2 K ` ` ~ ]  . . .",
"..| ..| M + O O o = w + o o o o . < m w 6 e o o , w l G ]  . . .",
"......X.L > O O O O O o . . o   o ; r ; e k O o   o O : F o. . .",
".... ...` 0 + O O . . . . . o o . @ k I ) d o o o o o   n o. . .",
".... . .} h + + . O O . . .   . . o 6 R R 6 O O O o O % V o. . .",
" . . . .| P 1 O o o o . o           o 3 3 @ + O * 6 s Z _  . . .",
" . . . .| ` f # O O o O o . . . . o o o o O o @ k { { { |  . . .",
" . . . . .[ Y 7 @ + O o o . . . o O O o O O o * F | } ] |  . . .",
" . . . . .} [ V > @ + O o o o o o o o O o o O : R  .| { |  . . .",
" . . .....} [ [ b : @ + + O O O O o o o o o $ e ' | | | |  . . .",
" . . . ...} [ [ { b 1 $ @ + O + + % : 6 i z C ^  . .X. . . . . .",
".. . . ...| | |  .| H B B n B n n F W |  .o.o. . . . . . . . . .",
" . . . .....X.X. ... ...o.o.o.o.o.o.X. . . . . . . . . . . . . .",
" . . . . . ..... . . . . . . . . . . . . . . . . . . . . . . . .",
" . . . . . . ... . . . . ... . . . . . . . .X. . . . . . . . . ."
};
