/* XPM */
static char *nekokak13[] = {
/* columns rows colors chars-per-pixel */
"32 32 128 2 ",
"   c #0A1716",
".  c #0B1817",
"X  c #0B1718",
"o  c #0D1A1B",
"O  c #111D1E",
"+  c #12201F",
"@  c #0F1D20",
"#  c #121E21",
"$  c #152224",
"%  c #16242A",
"&  c #192629",
"*  c #1C2A2D",
"=  c #1F2C30",
"-  c #202D2F",
";  c #212E32",
":  c #253235",
">  c #263438",
",  c #283539",
"<  c #2C393D",
"1  c #2F3D40",
"2  c #323F42",
"3  c #364245",
"4  c #394547",
"5  c #37444A",
"6  c #39464B",
"7  c #3E494D",
"8  c #3F4C51",
"9  c #414D52",
"0  c #445155",
"q  c #465359",
"w  c #49555B",
"e  c #4C595E",
"r  c #505C5F",
"t  c #4C5A61",
"y  c #515D62",
"u  c #536065",
"i  c #586367",
"p  c #556268",
"a  c #5A666C",
"s  c #5D696D",
"d  c #5E6B71",
"f  c #616D74",
"g  c #657278",
"h  c #6A767C",
"j  c #6F7A7E",
"k  c #737E84",
"l  c #798387",
"z  c #748189",
"x  c #7B868C",
"c  c #7F888D",
"v  c #7E8B92",
"b  c #848E93",
"n  c #859197",
"m  c #859299",
"M  c #8A969D",
"N  c #8B989E",
"B  c #90999D",
"V  c #8E9BA1",
"C  c #939DA3",
"Z  c #9DA4A7",
"A  c #95A2A9",
"S  c #98A3AA",
"D  c #9EABB1",
"F  c #A3ADB3",
"G  c #A8ADB0",
"H  c #AFB4B6",
"J  c #AAB5BA",
"K  c #B0B6BA",
"L  c #B6BABC",
"P  c #B8BDBF",
"I  c #B4BEC4",
"U  c #BABFC2",
"Y  c #B7C0C6",
"T  c #BCC4CB",
"R  c #BFCAD0",
"E  c #C3C6C6",
"W  c #C8C9C7",
"Q  c #C2C6CA",
"!  c #CBCCCC",
"~  c #D0D0CE",
"^  c #C2CCD2",
"/  c #CACFD3",
"(  c #CCD1D4",
")  c #C6D2D8",
"_  c #CCD4DA",
"`  c #CFD9DF",
"'  c #D3D3D2",
"]  c #D8D8D7",
"[  c #D0D7DD",
"{  c #D1D8DE",
"}  c #D9DCDE",
"|  c #CFDBE0",
" . c #D4DBE2",
".. c #DADEE3",
"X. c #DBE1E6",
"o. c #DFE6ED",
"O. c #E0E7EE",
"+. c #E1E8EF",
"@. c black",
"#. c black",
"$. c black",
"%. c black",
"&. c black",
"*. c black",
"=. c black",
"-. c black",
";. c black",
":. c black",
">. c black",
",. c black",
"<. c black",
"1. c black",
"2. c black",
"3. c black",
"4. c black",
"5. c black",
"6. c black",
"7. c black",
"8. c black",
"9. c black",
"0. c black",
"q. c black",
"w. c black",
"e. c black",
"r. c black",
"t. c black",
"y. c black",
"u. c black",
/* pixels */
"o.o.o.O.o.o.o.o.O.O...[ [ [ [ [ [ [ [ [ `  .o.o.o.o.o.o.o.o.o.o.",
"o.o.o.o.o.o.o.O...E h 9 6 4 4 4 4 3 3 3 3 t Y o.+.o.o.o.o.o.o.o.",
"o.O.o.o.o.o.o.X.P r $ O O O O O o o . . X X < F o.o.o.o.o.o.o.o.",
"o.o.o.o.o.o.o.U w # # # # O O O o o o o o .   = n o.o.o.o.o.o.o.",
"O.o.o.o.o.o.E y # # O # O O O O o o o o o . . X % j { +.+.o.o.o.",
"o.o.o.o.O./ f % O O O O O O O X o o o o o . o o . o s ) +.o.o.o.",
"o.o.o.O.] k & O O O O O o O O X . o . . . o o o o o o 0 T +.o.o.",
"o.o.O...B : O O o O O O O o O X . X . . . o o @ o $ @ . 3 F o.+.",
"o.o.X.L 4 # O O . O # w 1 X X O X X X . o @ o : a v 6 + X 5 ^ o.",
"O.o./ s O O O O O O w b , X X X . . o o o o 1 m ) ` V & o > K o.",
"O.} B * O O O o @ 1 G n , @ # X o @ o o o : d p A _ C & o : J o.",
"O./ w # O O O O # g k k C 2 # # @ @ + o $ h m * 3 D d + o ; G +.",
"O.C ; # O O O O - k , # a M k k u & O o & A R a 5 g : o + @ d X.",
"..f # O O O . O # : # O # 2 J _ J 3 o + % v ` ^ V 5 o # o o 5 | ",
" .q # O O . . . X X o o # # k / l & o o o q A v 1 @ o @ o o 3 _ ",
" .9 # O O O . . X X X o # o , y - o o o o o % @ X X . o o o 3 ` ",
"[ 9 # O O o . . . . . o o o . o + o o . O           & : O   2 ] ",
"[ 9 # O o o o . . . . . . o o o o o O o o X       # b H b 9 w  .",
"[ 9 O + o o o . . . . . . . o @ - & O . X o . . O s ! ' ~ E U o.",
"[ 7 O + o o o . . . . . o o ; g G b , . X X . X 2 L ' ' ' ~ ' o.",
"[ 7 O O o o . . .   . . X % f v F ^ d . . o o : C ' ' ~ ' ' ' o.",
" .9 # # + o . . . . . . o t d % 2 M z o o o * b ' ~ ' ' ~ ! ' o.",
" .9 # # @ o o o . . . o % A F t & e y o o & z ' ' ' ~ ~ ~ / ..o.",
"O.C 2 # @ @ o o o o . . 1 Y | R N g * o $ h ( ' ' ' ~ ! !  .o.o.",
"O.O.F 7 # # o o @ o o o = V ) J f * X X 5 Q ] ' ' ~ ! W { O.O.o.",
"O.O.O.T q # # # o o + @ o : 8 > # X o X q / ] ~ ~ ! W ' O.O.O.o.",
"O.o.o.O.) f # o o @ o @ + @ o @ # o . X * Z ] / W W ' X.O.o.o.o.",
"o.O.o.o.O. .k & @ o @ o @ o @ + @ @ o o O i W W W ! o.O.o.o.o.o.",
"o.o.o.o.O.O.o.n > @ o @ o @ @ @ @ @ @ o O : G W / ..O.o.o.o.o.O.",
"o.O.o.o.O.O.O.o.F 2 o o o # = w q % @ o X # b W  .O.o.o.o.o.o.o.",
"O.o.o.o.o.o.o.o.O.I p 6 6 t V _ / x 8 5 2 2 b { O.o.o.O.o.o.o.o.",
"o.o.o.O.o.o.o.o.O.O...|  . .O.O.O.o. ._ [ [  .o.o.o.o.o.o.O.o.o."
};
