/* XPM */
static char *nekokak14[] = {
/* columns rows colors chars-per-pixel */
"32 32 128 2 ",
"   c #091716",
".  c #0C1817",
"X  c #0A1718",
"o  c #0D1A1B",
"O  c #111D1D",
"+  c #0F1E22",
"@  c #121E21",
"#  c #142123",
"$  c #182527",
"%  c #172529",
"&  c #19262A",
"*  c #1C2A2C",
"=  c #202D2F",
"-  c #212D31",
";  c #243235",
":  c #283537",
">  c #26343A",
",  c #29373A",
"<  c #2B393D",
"1  c #2F3C42",
"2  c #313D42",
"3  c #344246",
"4  c #364349",
"5  c #39464B",
"6  c #3C494D",
"7  c #3D4B51",
"8  c #414E50",
"9  c #445156",
"0  c #465359",
"q  c #4A575C",
"w  c #4C595E",
"e  c #4D5A60",
"r  c #505D63",
"t  c #546065",
"y  c #5A666B",
"u  c #5C696F",
"i  c #5E6B71",
"p  c #616F76",
"a  c #657074",
"s  c #66737A",
"d  c #6A767D",
"f  c #6E7B81",
"g  c #737E83",
"h  c #768185",
"j  c #798287",
"k  c #758288",
"l  c #7A848A",
"z  c #7D888E",
"x  c #7D8A91",
"c  c #828D93",
"v  c #879297",
"b  c #889094",
"n  c #869399",
"m  c #8A959A",
"M  c #8C999F",
"N  c #8F9AA1",
"B  c #949EA3",
"V  c #989FA1",
"C  c #9AA1A5",
"Z  c #95A1A8",
"A  c #9BA5AB",
"S  c #9BA9AF",
"D  c #9FACB2",
"F  c #A1A8AC",
"G  c #A3ADB3",
"H  c #AAAFB2",
"J  c #A6B1B6",
"K  c #A5B2BA",
"L  c #ABB5BC",
"P  c #B0B6BA",
"I  c #B4BABC",
"U  c #AEBAC1",
"Y  c #B2BBC1",
"T  c #BCBFC1",
"R  c #B7C2C7",
"E  c #B6C2C9",
"W  c #BBC5CB",
"Q  c #BCC8CF",
"!  c #BEC9D0",
"~  c #C6C7C7",
"^  c #C8C9C7",
"/  c #C2C7CA",
"(  c #C7CBCD",
")  c #CBCCCB",
"_  c #D0D0CE",
"`  c #C4CCD2",
"'  c #CDCFD1",
"]  c #C7D0D4",
"[  c #CCD1D4",
"{  c #CCD5DB",
"}  c #CCD8DD",
"|  c #D3D3D2",
" . c #D2D6DA",
".. c #D3D8DD",
"X. c #D8DADB",
"o. c #CEDAE0",
"O. c #D4DAE0",
"+. c #D9DDE2",
"@. c #DBE1E6",
"#. c #DFE6ED",
"$. c #E0E7EE",
"%. c #E1E8EF",
"&. c #E2E9F0",
"*. c black",
"=. c black",
"-. c black",
";. c black",
":. c black",
">. c black",
",. c black",
"<. c black",
"1. c black",
"2. c black",
"3. c black",
"4. c black",
"5. c black",
"6. c black",
"7. c black",
"8. c black",
"9. c black",
"0. c black",
"q. c black",
"w. c black",
"e. c black",
"r. c black",
"t. c black",
"y. c black",
"u. c black",
/* pixels */
"#.#.#.#.#.#.#.#.$.#.+.T c g j g j g j g g h g G &.$.#.#.#.#.$.#.",
"#.#.#.#.#.$.#.#.#.' b 2 @ @ @ O O O O O o o o 2 R %.#.#.#.#.$.#.",
"#.#.$.#.#.#.&.@.~ a = @ @ @ @ @ O O O O o o o   6 ] &.#.$.#.#.#.",
"#.#.#.#.#.$.@.P e @ O O @ @ @ O O O O O o o o o o y ..#.#.#.$.#.",
"#.#.$.$.#.+.A 5 @ @ O O O @ O O O . o o o O o o o o g @.$.#.#.#.",
"#.$.$.@.+.V 1 # O O O O o O o O O . . O O o o X X o # c #.#.#.#.",
"$.#.$.X.C 2 @ O O . @ @ O + + . O . . . o o o . o o   * D $.$.#.",
"$.@.X.A 2 O O O O O @ @ 2 2 + o . . . .       o o o o o > U &.#.",
"@.X.I 6 @ O O O O O @ t m 2 @ @ o     o   . o o o o o o o 6 ` %.",
"+.' y $ O O O O . O q I g @ @ + . o o o o o o + + = 3 > + o t ..",
"+.m - @ O o O O O 2 c a B p @ + o o o o o o + * y S E N ; o # v ",
"` 8 $ O O o o o O e r @ 8 N r * $ o O @ o o - u s U o.Q 6 o o l ",
"B - @ O O O O . . @ @ O O 5 B B x 3 @ O o & x x & r Q D > o # n ",
"c & @ @ O O . . . o o o O @ s [ ] f # O o 1 E K 1 > M w + o & S ",
"l @ @ @ O . . . . . . o o O 9 T A 5 o O + 3 E o.S f q # + o # N ",
"l @ @ @ O . . . . . . o . o $ q : O . o o - N E n e # o @ + o h ",
"l @ @ O o o o . . . . o o o o o o . . . o o & : #   . O o o o g ",
"l @ O o . o     . . . .   o o o O O o o o .     .   . o O O o g ",
"l @ O o o   .     . . . o . O # $ O O o . .       o * - @ O o g ",
"j # + O o X .       o . o = t x l : o . .     . . > m F t * O g ",
"j # O O o o o     . o o % u x K ] h + o o   . . > V | | ~ m r v ",
"m $ @ O o o o     o o $ k u % 7 J m O o . o . < C | _ | | _ ~ [ ",
"o.y O O O o o o o o o 9 Q A 4 + y d o o o o 6 F | | | | | | ) X.",
"&.! 0 @ @ o o O o o @ d } o.K a s , o o # t I  .| _ _ | | ) ' +.",
"#.&.Y < O O o O o + + 9 I Q J s : . o * g ) | | | _ _ _ _ [ @.%.",
"#.#.%.F = o O o o + + @ 3 4 = o   o O g | X.| | _ _ ) ) | @.$.$.",
"#.#.$.#.b * O o + o @ o o o + o o X * H X.| | _ _ ) ) | #.#.#.#.",
"#.#.#.$.#.k @ + o o o + + + o + o o # c  .| ) ) ) ^  .$.#.#.#.#.",
"&.#.#.#.#.o.u O o o + o + o + + o o o y ) ' ^ ^ ( +.#.$.#.#.#.#.",
"#.#.#.#.#.%.} 7 @ + + % > 1 % + o o o 5 T ^ ^ ' +.#.#.#.#.#.#.#.",
"#.#.#.#.#.#.#.W 9 > 7 k P W d & o o o > H ( [ @.#.#.#.#.#.$.#.#.",
"#.#.#.#.#.#.#.#./ U ` +.$.$.{ m k g g z /  .#.#.#.#.#.#.#.#.#.#."
};
