/* XPM */
static char *nekokak02[] = {
/* columns rows colors chars-per-pixel */
"32 32 128 2 ",
"   c #0A1717",
".  c #0B1817",
"X  c #0B1718",
"o  c #0D1A1A",
"O  c #111D1E",
"+  c #121E20",
"@  c #162224",
"#  c #1A2627",
"$  c #1A2628",
"%  c #1E2B2D",
"&  c #202D2F",
"*  c #212E31",
"=  c #243133",
"-  c #283437",
";  c #273439",
":  c #29373A",
">  c #2D393D",
",  c #303C3F",
"<  c #323F42",
"1  c #354245",
"2  c #354349",
"3  c #394649",
"4  c #3C484C",
"5  c #3E4B50",
"6  c #424F53",
"7  c #465256",
"8  c #4A5659",
"9  c #4D585C",
"0  c #4E5B60",
"q  c #515E63",
"w  c #556065",
"e  c #59666C",
"r  c #5D696D",
"t  c #616D73",
"y  c #657176",
"u  c #667278",
"i  c #6B767A",
"p  c #727D81",
"a  c #778084",
"s  c #798387",
"d  c #7A878C",
"f  c #7F898F",
"g  c #7D8A91",
"h  c #838D91",
"j  c #87949A",
"k  c #8D979C",
"l  c #91999C",
"z  c #929BA0",
"x  c #94A0A6",
"c  c #9DA2A4",
"v  c #9FACB2",
"b  c #A7ACAF",
"n  c #A3ACB1",
"m  c #A9B1B7",
"M  c #A6B3B9",
"N  c #ABB5BB",
"B  c #B4BABD",
"V  c #BBBEBF",
"C  c #B5BDC3",
"Z  c #BABEC0",
"A  c #BCC8CF",
"S  c #C2C5C6",
"D  c #C1C9CF",
"F  c #CCCDCC",
"G  c #CFD0CE",
"H  c #D1D1CF",
"J  c #C3CBD1",
"K  c #CCD1D5",
"L  c #CCD3DA",
"P  c #D4D4D3",
"I  c #D4D9DD",
"U  c #D8DCDE",
"Y  c #D5DCE3",
"T  c #D8DDE3",
"R  c #D9E0E7",
"E  c #DFE6ED",
"W  c #E0E7EE",
"Q  c #E1E8EF",
"!  c #E2E9F0",
"~  c black",
"^  c black",
"/  c black",
"(  c black",
")  c black",
"_  c black",
"`  c black",
"'  c black",
"]  c black",
"[  c black",
"{  c black",
"}  c black",
"|  c black",
" . c black",
".. c black",
"X. c black",
"o. c black",
"O. c black",
"+. c black",
"@. c black",
"#. c black",
"$. c black",
"%. c black",
"&. c black",
"*. c black",
"=. c black",
"-. c black",
";. c black",
":. c black",
">. c black",
",. c black",
"<. c black",
"1. c black",
"2. c black",
"3. c black",
"4. c black",
"5. c black",
"6. c black",
"7. c black",
"8. c black",
"9. c black",
"0. c black",
"q. c black",
"w. c black",
"e. c black",
"r. c black",
"t. c black",
"y. c black",
"u. c black",
/* pixels */
"E E E E E E E E E E E E E E E E E E E E E E E E E E E E E E E E ",
"E E E E E E E E E E E E E E E E E E E E E E E E E E E E E E E E ",
"E E E E E E E E E E E E E E E E E E E E E E E E E E E E E E E E ",
"E E E E E E E W E E E E E E E E E E E E E E E E E E Q E E E E E ",
"E E W E E E E E E E E E E E E E E E E E E E E E E E E E E E E E ",
"E E E E E E E E E E E E E E E E Q E E E E E E E E E E E E E E E ",
"E E E E E E E E E E E I A J R E E R E E E E E E Q E E E E E E E ",
"E E E E E E E E E P G i & , b P K G G I R E Q E E E E E E E E E ",
"E E E E E E E E E F l % o @ c P H H G F F K Y R E E E E E E E E ",
"E E E E E E E ! C 9 % o o + a Z H P P H F A i 5 N E E E E E E E ",
"E E E E E E E E r o = = @   o = 8 h V P A 0 o + x W W E E E E W ",
"E E E E E E Q J ; 4 N g e 2 o   . O > r 7 o o * N W E E E E E E ",
"E W E E E E ! k o 3 M 0 d M %   . . o O   o o 5 K E E E E E E E ",
"E E E E E ! Y 8 . O 1 0 j t + o . = y q 2 + o > m E E W E E E E ",
"E E E E E Q J = . o o + $ + o . o e z 3 v 9 O O 3 K W W E E E E ",
"E E E E E ! J % . . . o o @ 1 $ O > i e A a o o * D W E E E E E ",
"E E E E W Q D & o o o X o ; n d O . # 1 6 % o o = J Q E E E E E ",
"E E E W W Q D & o o X X X $ h 8 o . . .   X O o ; J ! E E E E E ",
"E E W E W W D = o o o o o & t + . . . .   o O o 9 R E E E E E E ",
"E E W W W Q D = o O O o ; r u + O . . .   X O + k ! E E E E E E ",
"E E E E E W K 1 O O o o * q t 6 O   . . o o o > J ! E E E E E E ",
"E E E E E E R z 1 @ o @ O o O + o . . o o O O t E E E E E E E E ",
"E E E E E W W U B y - @ o o + o o o O O O O & n ! E E E E E E E ",
"W E E E E W W W W T B p 4 % + O O O O O @ - y I Q E E E E E E E ",
"E E E E E E E E E W W E K n s q 6 4 6 e g B Y W E E E E E E E E ",
"E E E E E E E E E E W E W W W T Y L Y R E Q E E E E E W E E W E ",
"E E E E E E E E W E E E E E E W W W E E E E E E E E E E E E E E ",
"E E E E E E W E E E E E E E E E E E E E E E W E E E E E E E E E ",
"E E E E E E E E W E E E E E E E E E E E E E E E W E E E E W E E ",
"E E W E E E E E E E E E E E E E E E W E E E E E E E E E E E E E ",
"E E E E E E E E E E E E E E E W E E E E E E E E E E E E W E E E ",
"E E E E E E E E E E E E E W E E E E E E W E E E E E E E E E E E "
};
