/* XPM */
static char *nekokak28[] = {
/* columns rows colors chars-per-pixel */
"32 32 128 2 ",
"   c #0A1716",
".  c #0B1817",
"X  c #0B1718",
"o  c #0D1A1A",
"O  c #111D1D",
"+  c #0F1D20",
"@  c #111E20",
"#  c #142124",
"$  c #182527",
"%  c #16242A",
"&  c #19272B",
"*  c #1C2A2D",
"=  c #1E2C31",
"-  c #212E32",
";  c #233136",
":  c #27353C",
">  c #29373C",
",  c #2B393E",
"<  c #2E3C41",
"1  c #303E43",
"2  c #364349",
"3  c #3A474D",
"4  c #3B484E",
"5  c #3E4B50",
"6  c #414E55",
"7  c #435056",
"8  c #455259",
"9  c #48565D",
"0  c #4C595F",
"q  c #4F5D63",
"w  c #546167",
"e  c #556269",
"r  c #59666D",
"t  c #5D6A71",
"y  c #606E74",
"u  c #647177",
"i  c #67747A",
"p  c #68767D",
"a  c #6B787F",
"s  c #6E7C83",
"d  c #717E85",
"f  c #738087",
"g  c #748289",
"h  c #79868E",
"j  c #7F8A8F",
"k  c #7E8A91",
"l  c #808D94",
"z  c #859096",
"x  c #86939A",
"c  c #89969D",
"v  c #8D9AA1",
"b  c #919DA4",
"n  c #94A0A7",
"m  c #99A3A7",
"M  c #95A2A9",
"N  c #9AA6AD",
"B  c #9FA8AC",
"V  c #9EAAB1",
"C  c #A1ADB3",
"Z  c #A5B1B7",
"A  c #A8B4BB",
"S  c #AEB8BC",
"D  c #B2BABF",
"F  c #AFBCC3",
"G  c #B2BDC3",
"H  c #B9BFC2",
"J  c #B6C1C7",
"K  c #B6C3C9",
"L  c #B9C6CC",
"P  c #BCC8CF",
"I  c #BECAD1",
"U  c #C1C7C9",
"Y  c #C7CACC",
"T  c #CBCECE",
"R  c #C3CED2",
"E  c #C5D0D5",
"W  c #CBD1D4",
"Q  c #C6D3D9",
"!  c #CAD6DB",
"~  c #CDD9DE",
"^  c #D4D6D5",
"/  c #D5D7D8",
"(  c #D7D8D8",
")  c #D8D9D9",
"_  c #CDD9E0",
"`  c #D0DBE1",
"'  c black",
"]  c black",
"[  c black",
"{  c black",
"}  c black",
"|  c black",
" . c black",
".. c black",
"X. c black",
"o. c black",
"O. c black",
"+. c black",
"@. c black",
"#. c black",
"$. c black",
"%. c black",
"&. c black",
"*. c black",
"=. c black",
"-. c black",
";. c black",
":. c black",
">. c black",
",. c black",
"<. c black",
"1. c black",
"2. c black",
"3. c black",
"4. c black",
"5. c black",
"6. c black",
"7. c black",
"8. c black",
"9. c black",
"0. c black",
"q. c black",
"w. c black",
"e. c black",
"r. c black",
"t. c black",
"y. c black",
"u. c black",
/* pixels */
"o o + + + + + @ @ @ + + o + + + o o O o + X X o o o + o + + @ # ",
"o @ o + o # + @ @ @ @ = % # + o o o o . X X o X   o o o o + O @ ",
"+ o o o o + + @ @ @ 7 l x w & o o . . . X X X X   . o o O O O @ ",
"+ o o o o o o O @ 4 A _ ! G 8 o o . . . X X X X o . . o . o O O ",
"@ + o . o o . o = v _ _ ! Q d # o o . . . X     . o . o . o # @ ",
"e = o o o o o o q L _ _ _ _ N - o o . . X X     . . o O o o o O ",
"Y z < + . . X = x v g k h V b - o o o o X X X X   . o o o o O O ",
"^ ^ n - o .   3 h < % % % 7 s * o o . o . . X X . . . . o o O O ",
"^ ) J , o o o 6 s % @ @ @ 6 d & O o . . . . . . . . . . . o O O ",
"/ ) S 2 o o o 3 b s e 8 9 M k $ o o o . . . . . . . . . o o O o ",
"^ ( B - o o . = x E P H L G 6 O O . . . . . . .   o . . . . o o ",
"^ ^ k $ + o o o 4 C R E Y a # o . o . O . O . . . . . . o o o O ",
"/ W y O O o o o + 5 x b d - O o . O O . o o o . . . . . o o o o ",
"^ U 7 O o o o . + + $ * $ @ O o . . O . . o o o o o O o O o o o ",
"^ D , O o o . . X o o + O O o o . . . O O o o . O o - 2 $ O O O ",
"/ m * o . . o . o o O o o O O O $ - $ O O O O O o o 0 b > O O o ",
"^ l # o . . . . o o O O o O o O 6 v l 6 # @ O @ O o 6 b 1 @ O O ",
"^ a + X       . o . o . o o o @ u T T m 9 > - ; - & 8 C 1 @ O O ",
"T t o X         . o . . . o o * x E Y T G B m b c l b G 6 O O O ",
"T e o           o . O . . . O * l R Y S l y p h b C F G 3 O O . ",
"U 9 o .         . . o O o O o $ r b b w * O O $ = - u B < O O o ",
"H 2 o . .       O # O O O O O O = ; - # O O O O O @ s v * @ O o ",
"B , . . o   o 2 f g 2 # @ O O @ O O O O O O O O O @ p u @ O O O ",
"8 & . .   X > N ^ W v , # O o + O # O O O . . . @ @ * & @ O O O ",
"O o .   o + r Q _ _ Q h = + o # O O o o . o . . O O @ O O @ O O ",
"O o o o o < N I L I _ F 2 o + o O O o . . o o o O X X @ O o O @ ",
"o o o o o 7 b e 5 s V F 4 + o . O . .   . . o o o o @ O O O O O ",
"o @ # o + q t & % % 8 v < o + o O .     . . . o o O o O O O @ @ ",
"o O # O + e x 5 = % < s , @ O o . X     . . . . o o O O O O @ @ ",
"o @ o @ @ r P A x s h d & @ O O .     X . o o o o o o O O O @ @ ",
"o + + O @ e I ! Q Q R t # O O o X X   . o o o o o o O O O @ @ O ",
"+ + o O @ 6 K Q ! _ C < @ o O o X . . . o o o o o o O @ O O @ @ "
};
