/* XPM */
static char *nekokak19[] = {
/* columns rows colors chars-per-pixel */
"32 32 128 2 ",
"   c #091716",
".  c #0B1817",
"X  c #0A1718",
"o  c #0D1A1B",
"O  c #111D1E",
"+  c #0F1D20",
"@  c #121F21",
"#  c #152123",
"$  c #182426",
"%  c #172428",
"&  c #192529",
"*  c #1C2A2D",
"=  c #1D2B31",
"-  c #212F33",
";  c #233135",
":  c #263439",
">  c #29363C",
",  c #2B393D",
"<  c #2F3D43",
"1  c #313F44",
"2  c #344146",
"3  c #364349",
"4  c #3A474D",
"5  c #3B494E",
"6  c #3E4B51",
"7  c #414E53",
"8  c #435157",
"9  c #46545A",
"0  c #49565D",
"q  c #4C5A5F",
"w  c #4D5A61",
"e  c #515E64",
"r  c #556166",
"t  c #556269",
"y  c #5A656A",
"u  c #5D696E",
"i  c #5E6B73",
"p  c #616E74",
"a  c #637077",
"s  c #66737B",
"d  c #69757B",
"f  c #6D787F",
"g  c #6D7980",
"h  c #737E83",
"j  c #748086",
"k  c #758288",
"l  c #79868C",
"z  c #7E898F",
"x  c #7E8B92",
"c  c #818B8F",
"v  c #828E94",
"b  c #879195",
"n  c #859198",
"m  c #8A969D",
"M  c #91999D",
"N  c #8E9AA1",
"B  c #929CA3",
"V  c #9AA2A5",
"C  c #96A2A9",
"Z  c #9BA5AB",
"A  c #9FACB3",
"S  c #A1ACB2",
"D  c #A8AFB2",
"F  c #A4B0B7",
"G  c #AEB4B6",
"H  c #A7B3B9",
"J  c #A9B5BC",
"K  c #AEBABF",
"L  c #B1B7B9",
"P  c #B5BABC",
"I  c #BABDBE",
"U  c #AEBBC3",
"Y  c #B2BDC4",
"T  c #BBBFC1",
"R  c #B6C2C7",
"E  c #B5C1C8",
"W  c #BBC6CC",
"Q  c #BDCAD1",
"!  c #C1C4C4",
"~  c #CACAC7",
"^  c #C5CACC",
"/  c #CBCCCB",
"(  c #D1D1CF",
")  c #C3CDD3",
"_  c #CBCED2",
"`  c #C7D1D5",
"'  c #CDD2D4",
"]  c #C5D1D8",
"[  c #CBD6DC",
"{  c #CDD9DF",
"}  c #D3D3D2",
"|  c #D3D7DA",
" . c #D4D8DD",
".. c #D8D9DB",
"X. c #CEDBE0",
"o. c #DBDEE2",
"O. c #DFE1E5",
"+. c black",
"@. c black",
"#. c black",
"$. c black",
"%. c black",
"&. c black",
"*. c black",
"=. c black",
"-. c black",
";. c black",
":. c black",
">. c black",
",. c black",
"<. c black",
"1. c black",
"2. c black",
"3. c black",
"4. c black",
"5. c black",
"6. c black",
"7. c black",
"8. c black",
"9. c black",
"0. c black",
"q. c black",
"w. c black",
"e. c black",
"r. c black",
"t. c black",
"y. c black",
"u. c black",
/* pixels */
"O.O.O._ N w : = $ $ $ $ O O O O O O $ O @ $ $ - 1 p M T ( ( ( } ",
"O. .Z t < & & @ O O O O O O O . O O O O O O @ @ O $ - 8 f G ( ( ",
"W g > & & @ @ @ O O O O O O O O O O O O O O O O O O @ @ $ 3 l I ",
"w - & $ @ @ @ @ O O O . O O O O O O O . O O O O O @ O @ @ O * 7 ",
"- * @ @ @ O O O O O O O o o o o O O O O O O O O O O O @ @ $ O $ ",
"$ @ @ O O O o o o O . . . o O O O O $ O O O O O O $ O O O O O O ",
"@ @ O O o o o o o . . . . o $ y d h c d q ; O O O O O O O O O @ ",
"@ @ O O o o . o o . . . . o * i p c I b c 9 O O O O O O O O O O ",
"@ @ O O o . o X o o   . . o o O o 5 F 3 $ $ o o o o o O O O O O ",
"@ @ O o . . .       .   . o o o O 9 A , o O o o o o . o . o O O ",
"O O o . X X       . . . . o . O O r N * O o . o o . . . . o . O ",
"O O O o X X       . . . . o o O O t b & O o . o . . o o o o O . ",
"O O o o o X X X o . . . o . o O * x S , O O o . X X . o o o O o ",
". O O O o o X   o . . o o o o # p W Q j $ o o o     X X o o o o ",
"o o O o X o X o . . . o . o . * Z ` ` C * O @ o . X X X X o X X ",
"O o O o o X o o o o o o o o . # r c N a * @ @ o o . . X X X o X ",
"o + O o o o % < 1 , > $ o O . O o # * $ O O O o o o o o o o o o ",
"+ O + + + 6 m U A i v l 1 O O O o o o O O o O o O O O O O o o o ",
"o + + O * N [ X.x = 6 U D 5 O o o o . o O # $ - ; = & O O o o o ",
"o + + o = C { X.l # : S ) p o O . . o o o * i A C d s t ; + + o ",
"+ + o + # w U X.j + < U W e o o o o . o $ f Q { x > p Q C 6 @ o ",
"@ o o @ @ @ 4 v N 9 i J g & o o o . .   - G { W 6 # u ] { Z - @ ",
"= @ @ + + @ o # 6 t i 6 $ X o o o o .   O k [ E 4 = x { { A = O ",
"x 2 @ O + + o o   X o o o . . o . . .     * e B l a H W A e # o ",
"O.m * + + o o X . o o o o o . .         . . . ; 3 4 6 6 , # o o ",
"O.A = + + o X o o $ $ @ O o o .         . . . . + + + O @ o o + ",
"o.N * + o o o + , c V c a 8 , * O o . . . . . o o + + o o o * 9 ",
"..x # o + o + % b } ....' ^ L V c f p y 6 , O o + + o + # 4 x I ",
"{ j + + o o + y / | } ..} } ..} | ( ( ( ^ B * O o + o o 2 D ~ ~ ",
"[ k + o o + 5 K } ( } } } } } } } } } } ( I < O + o + + s ^ / ~ ",
"/ n # o O 2 Z / / ( ( ( } } } } } ( ( } ( ! 6 o o o o - V ~ / / ",
"_ S 2 # 3 V ~ ~ ~ ~ ~ ~ ~ ( ( ( ( } } } ( ^ y @ + o o 6 I ~ ~ } "
};
