/* XPM */
static char *nekokak03[] = {
/* columns rows colors chars-per-pixel */
"32 32 128 2 ",
"   c #071415",
".  c #0A1717",
"X  c #0B1817",
"o  c #0A1718",
"O  c #0D1A1A",
"+  c #111C1D",
"@  c #121E21",
"#  c #152123",
"$  c #182425",
"%  c #1A2628",
"&  c #1E2B2D",
"*  c #202D2F",
"=  c #202D30",
"-  c #253235",
";  c #293639",
":  c #2C393C",
">  c #303D3F",
",  c #303C42",
"<  c #344145",
"1  c #374449",
"2  c #384549",
"3  c #3D494D",
"4  c #444E52",
"5  c #475357",
"6  c #465459",
"7  c #48555A",
"8  c #4D595E",
"9  c #525E62",
"0  c #546064",
"q  c #56636A",
"w  c #5A676D",
"e  c #5D6A6F",
"r  c #5E6B71",
"t  c #616A6D",
"y  c #636E72",
"u  c #647075",
"i  c #6B767B",
"p  c #6F7A7F",
"a  c #737C7F",
"s  c #727D83",
"d  c #798286",
"f  c #778389",
"g  c #7D868A",
"h  c #7C888E",
"j  c #7E8A91",
"k  c #838B8E",
"l  c #838D93",
"z  c #859197",
"x  c #86939A",
"c  c #8D969C",
"v  c #90979B",
"b  c #939B9F",
"n  c #8F9BA2",
"m  c #949EA4",
"M  c #9EA4A6",
"N  c #9AA5AB",
"B  c #9DA9AF",
"V  c #A5ACAF",
"C  c #AAAFB2",
"Z  c #A4B0B7",
"A  c #A8B0B5",
"S  c #A6B3BA",
"D  c #AFB8BF",
"F  c #B1B7BA",
"G  c #AEBAC0",
"H  c #B3BCC3",
"J  c #BBC1C4",
"K  c #B5C1C8",
"L  c #BAC4C9",
"P  c #C2C4C5",
"I  c #CCCDCC",
"U  c #D0D0CE",
"Y  c #C4CBD0",
"T  c #CCD1D5",
"R  c #CBD2D8",
"E  c #D3D4D2",
"W  c #D7D8D7",
"Q  c #D2D7DA",
"!  c #D5D9DC",
"~  c #D4DBE1",
"^  c #D9DDE0",
"/  c #DBE1E6",
"(  c #DFE6ED",
")  c #E0E7EE",
"_  c #E1E8EF",
"`  c black",
"'  c black",
"]  c black",
"[  c black",
"{  c black",
"}  c black",
"|  c black",
" . c black",
".. c black",
"X. c black",
"o. c black",
"O. c black",
"+. c black",
"@. c black",
"#. c black",
"$. c black",
"%. c black",
"&. c black",
"*. c black",
"=. c black",
"-. c black",
";. c black",
":. c black",
">. c black",
",. c black",
"<. c black",
"1. c black",
"2. c black",
"3. c black",
"4. c black",
"5. c black",
"6. c black",
"7. c black",
"8. c black",
"9. c black",
"0. c black",
"q. c black",
"w. c black",
"e. c black",
"r. c black",
"t. c black",
"y. c black",
"u. c black",
/* pixels */
"( ( ( ( ( ( ( ( ( ( ( ( ( ( ( ( ( ( ( ( ( ( ( ( ( ( ( ( ( ( ( ( ",
"( ( ( ( ( ( ( ( ( ( ( ( ( ( ( ( ( ( ( ( ( ( ( ( ( ( ( ( ( ( ( ( ",
"( ( ( ( ( ( ( ( ( ( ( ( ( ( ( ( ( ( ( ( ( ( ( ( ( ( ( ( ( ( ( ( ",
"( ( ( ( ( ( ( ( ( ( ( ( ( ( ( ( ( ( ( ( ( ( ( ( ( ( ( ( ( ( ( ( ",
"( ( ( ( ( ( ( ( ( ( ( ( ( ( ( ( ( ( ( ( ( ( ( ( ( ( ( ( ( ( ( ( ",
"( ( ( ( ( ( ( ( ( ( ( ( _ _ ( ( ( ( ( ( ( ( ( ( ( ( ( ( ( ( ( ( ",
"( ( ( ( ( ( ( ( ( ( ^ Q N r r c ! ! ! / ( ( ( ( ( ( ( ( ( ( ( ( ",
"( ( ( ( ( ( ( ( ( R M a * X X t U E U I ! / ( ( ( ( ( ( ( ( ( ( ",
"( ( ( ( ( ( ( _ ~ 0 # O + + + f W E U U I I ! ( ( ( ( ( ( ( ( ( ",
"( ( ( ( ( ( ( _ c # - 3 = + o > k P E E U I I T ! ( ( ( ( ( ( ( ",
"( ( ( ( ( ( ( R < $ N K u 6 @   O < l I E E L h 6 c ( ( ( ( ( ( ",
"( ( ( ( ( ( ( d o @ f z 2 Z 0   . . # 8 V C 7 #   u ( ( ( ( ( ( ",
"( ( ( ( ( _ L - o O & 6 j G 9 X X X X X & & o O @ c _ ( ( ( ( ( ",
"( ( ( ( ( _ p   O O O @ ; ; @ O X X ; 3 = o O + < Y _ ( ( ( ( ( ",
"( ( ( ( ( _ y . O o o O O O O O O - N u r 1 O O 8 ~ ( ( ( ( ( ( ",
"( ( ( ( ( _ y . O O o O + = 9 - O ; n 1 j B & + & m ( ( ( ( ( ( ",
"( ( ( ( ) _ y X O O X o X 4 L s + + < q S N = + O u _ ( ( ( ( ( ",
"( ( ( ( ) ) u X O O O O X 2 h : X X X $ > = + + o u _ ( ( ( ( ( ",
"( ( ( ( ) ) u + + + O # # y 2 X + X X X o O @ O O f ( ( ( ( ( ( ",
"( ( ( ) ) ) u + + + O : i j * + X X X X o O O O ; K ( ( ( ( ( ( ",
"( ( ( ( ( ) M - + + + # , t 8 @ X X X X X o O @ h ( ( ( ( ( ( ( ",
"( ( ( ( ( ) ! b , + + + X + # + X X X X O O O 2 R _ ( ( ( ( ( ( ",
"( ( ( ( ( ( ) / F 9 % + + + + O + O X + O + $ b ( ( ( ( ( ( ( ( ",
"( ( ( ( ( ) ) ) ) Q c 3 # O + + + + + + # + 9 ~ ( ( ( ( ( ( ( ( ",
"( ( ( ( ( ( ( ( ( ) ( Y z 4 & @ O # @ # # , G _ ( ( ( ( ( ( ( ( ",
"( ( ( ( ( ( ( ( ( ( ( ) ) T A l s i i s j K ( ( ( ( ( ( ( ( ( ( ",
"( ( ( ( ( ( ( ( ( ( ( ( ( ) _ _ ) ) _ _ _ _ ( ( ( ( ( ( ( ( ( ( ",
"( ( ( ( ( ( ( ( ( ( ( ( ( ( ) ( ( ( ( ( ( _ ( ( ( ( ( ( ( ( ( ( ",
"( ( ( ( ( ( ( ( ( ( ( ( ( ( ( ( ( ( ( ( ( ( ( ( ( ( ( ( ( ( ( ( ",
"( ( ( ( ( ( ( ( ( ( ( ( ( ( ( ( ( ( ( ( ( ( ( ( ( ( ( ( ( ( ( ( ",
"( ( ( ( ( ( ( ( ( ( ( ( ( ( ( ( ( ( ( ( ( ( ( ( ( ( ( ( ( ( ( ( ",
"( ( ( ( ( ( ( ( ( ( ) ( ( ( ( ( ( ( ( ( ( ( ( ( ( ( ( ( ( ( ( ( "
};
