/* XPM */
static char *nekokak16[] = {
/* columns rows colors chars-per-pixel */
"32 32 128 2 ",
"   c #0A1716",
".  c #0B1817",
"X  c #0A1718",
"o  c #0D1A1B",
"O  c #111D1E",
"+  c #0F1D20",
"@  c #121E20",
"#  c #142123",
"$  c #182326",
"%  c #172528",
"&  c #19262A",
"*  c #1C292D",
"=  c #1E2C30",
"-  c #212E32",
";  c #243135",
":  c #243339",
">  c #28363A",
",  c #2C393E",
"<  c #2E3B40",
"1  c #303E42",
"2  c #344146",
"3  c #364348",
"4  c #38464B",
"5  c #3D494D",
"6  c #3D4B51",
"7  c #414E53",
"8  c #445156",
"9  c #46535A",
"0  c #4A575C",
"q  c #4E595F",
"w  c #4E5B61",
"e  c #535F65",
"r  c #546166",
"t  c #566369",
"y  c #5A666C",
"u  c #5D696E",
"i  c #5E6B72",
"p  c #626E74",
"a  c #647279",
"s  c #69767C",
"d  c #6C797F",
"f  c #6F7C82",
"g  c #778185",
"h  c #7A8387",
"j  c #7A858A",
"k  c #7C898F",
"l  c #7E8A91",
"z  c #808A8F",
"x  c #818D93",
"c  c #849096",
"v  c #86939A",
"b  c #8A969D",
"n  c #8E9AA1",
"m  c #929DA3",
"M  c #95A0A7",
"N  c #99A1A6",
"B  c #9BA6AC",
"V  c #9CA8AF",
"C  c #9DAAB1",
"Z  c #A1A7AA",
"A  c #A3AAAD",
"S  c #A2ADB3",
"D  c #ACB2B5",
"F  c #A5B2B9",
"G  c #A9B5BC",
"H  c #B3B8BB",
"J  c #AFBBC1",
"K  c #B2BBC1",
"L  c #BBBFC0",
"P  c #B6C1C5",
"I  c #BDC1C3",
"U  c #B5C1C9",
"Y  c #BDC5CA",
"T  c #C8C9C7",
"R  c #C1C6CA",
"E  c #C6C9CA",
"W  c #CCCDCB",
"Q  c #D0D0CF",
"!  c #C4CDD3",
"~  c #C9CFD4",
"^  c #CBD1D5",
"/  c #C5D2D9",
"(  c #CAD4DA",
")  c #CDD9DE",
"_  c #D3D3D2",
"`  c #D5D7DA",
"'  c #D6D9DD",
"]  c #D9D9DB",
"[  c #CFDBE0",
"{  c #D5DCE3",
"}  c #DADEE3",
"|  c #DDE1E6",
" . c #DFE6ED",
".. c #E0E7EE",
"X. c #E1E8EF",
"o. c #E2E9F0",
"O. c black",
"+. c black",
"@. c black",
"#. c black",
"$. c black",
"%. c black",
"&. c black",
"*. c black",
"=. c black",
"-. c black",
";. c black",
":. c black",
">. c black",
",. c black",
"<. c black",
"1. c black",
"2. c black",
"3. c black",
"4. c black",
"5. c black",
"6. c black",
"7. c black",
"8. c black",
"9. c black",
"0. c black",
"q. c black",
"w. c black",
"e. c black",
"r. c black",
"t. c black",
"y. c black",
"u. c black",
/* pixels */
" . . . . . . . . .| ` D h 8 - $ O $ O @ O $ O O @ $ @ 1 ^ o.....",
" . . . . . . .| W N y < $ @ @ O O O @ @ $ O O O O O @ $ Z o.....",
" . . . .| ] E m e ; $ O @ O O O O @ @ @ O O O O O O @ o e  ... .",
" .| ] ] _ A q = @ O O O @ O O O O O O O O O O O O O O X : L ....",
"] ] ] W h < # @ O o O O X X O O O O o o o O o o o o o o + v o...",
"] ] I u = # # O o O o O O O O @ @ O O O o o X o o o o o X 9 { ..",
"} R t * O O O O O O O O O $ 1 p 3 O o o . o . o o o o o X * J o.",
"E p * $ O O o o O O O @ 1 c Z f < O X O . . o O o o o o X o j o.",
"a ; @ @ O O o O . O $ e v b Z > o O . o .   . . o o X X o   5 ( ",
"; @ @ @ O O O . o . $ u 2 ; N y O O . o .     . X X o o o X % B ",
"* @ @ @ O o o . . . O O O O u v % O o o . . . . X o o o o X X r ",
"@ @ @ @ o o . . .       X O ; b t % @ o + o o o o o o o O o o % ",
"$ @ O o X o o . . . . O . O @ f P l < @ @ O o + + o o O O O o o ",
"@ @ O o o X X X . . . . . O $ z ^ ! d # O O o o # 2 w i r , O O ",
"@ @ O X . o   X . . . . . O @ z P B 8 @ O o # 4 f i v / / n * O ",
"@ @ o X . .     . . . O O . . < 8 ; @ O O + 2 G C : 6 U ) G > o ",
"# + o o .     . . . . . . o o o o . o o O @ a ( F : : C Y f # o ",
"+ + o o o X   . . o . . o . o o o o . . . $ x { ! s 9 v a = + + ",
"# + o o o X . . O . o O * * & # O . o o o . 7 m V b y , # + o + ",
"+ + o o o o . . . @ - 9 k B m 0 O O o . .   . O & % # o + + o * ",
"* + o o O o o o O 8 M u 2 l Y V - . o . .       . . o o O O o = ",
"y + o + + o o o 3 G / i + 3 U C - . o .         .     o o + o # ",
"V = + o + o O O i ( ) F < & v g O o . o         O ; * + + o o + ",
") 6 O o o + + o 4 G / / l u s ; . o o . . o O 7 g D g % + + X + ",
"X.l O o o + + o @ 2 0 r w 4 % X o o O @ * 8 z T _ _ W u # O o o ",
"o.J - o o + + o + + O o X   . o O * 8 d Z E _ _ _ _ Q L r # o o ",
"o.{ q O + o + O + # + o o . o ; d S E _ _ _ Q _ _ _ Q Q L d > & ",
" .o.m % @ + O + O + + O . o + l ` ] ] _ _ _ _ Q Q _ ^ Q Q T S N ",
"X...^ p 5 4 6 6 : # + o O . % Z ] ] _ Q Q Q Q Q Q Q _ W W ^ ] ..",
" . .X.} / Y Y ! M : + o O . - D _ Q Q Q Q W W Q W W ^ ' |  . ...",
" . . . . . . .| ' u + o o o > H Q W W W W T E W ` |  . . . . . .",
"X. . . .| } | } | M = + o o 3 L W W T T T ^ '  . . . ... . ... ."
};
