/* XPM */
static char *nekokak01[] = {
/* columns rows colors chars-per-pixel */
"32 32 256 2 ",
"   c #081514",
".  c #081515",
"X  c #091516",
"o  c #081616",
"O  c #091617",
"+  c #0A1717",
"@  c #0C1717",
"#  c #091817",
"$  c #0B1817",
"%  c #081618",
"&  c #0A1718",
"*  c #0B1718",
"=  c #0C1718",
"-  c #0A1818",
";  c #0B1818",
":  c #0B1918",
">  c #0B1819",
",  c #0B1919",
"<  c #0B181A",
"1  c #0A191A",
"2  c #0B191A",
"3  c #0C1818",
"4  c #0C1918",
"5  c #0D1918",
"6  c #0C1919",
"7  c #0D1919",
"8  c #0D1A19",
"9  c #0C191A",
"0  c #0C1A1A",
"q  c #0D1A1A",
"w  c #0C1A1B",
"e  c #0D1B1B",
"r  c #0E1A1A",
"t  c #0F1A1A",
"y  c #0F1B1A",
"u  c #0F1A1B",
"i  c #0E1B1B",
"p  c #0F1B1B",
"a  c #0C1A1C",
"s  c #0D1A1C",
"d  c #0D1B1C",
"f  c #0E1B1C",
"g  c #0F1B1C",
"h  c #0E1C1C",
"j  c #0F1C1C",
"k  c #0E1C1D",
"l  c #0F1C1D",
"z  c #0F1D1D",
"x  c #0E1C1E",
"c  c #0F1C1E",
"v  c #101B1B",
"b  c #101B1C",
"n  c #101B1D",
"m  c #101C1D",
"M  c #101D1D",
"N  c #101C1E",
"B  c #111C1E",
"V  c #101D1E",
"C  c #111D1E",
"Z  c #121D1F",
"A  c #111E1E",
"S  c #111E1F",
"D  c #121E1E",
"F  c #132122",
"G  c #132123",
"H  c #142122",
"J  c #142023",
"K  c #152123",
"L  c #152125",
"P  c #152224",
"I  c #152324",
"U  c #142225",
"Y  c #162224",
"T  c #172424",
"R  c #172425",
"E  c #162426",
"W  c #182425",
"Q  c #182426",
"!  c #182527",
"~  c #192628",
"^  c #1A2628",
"/  c #1A2729",
"(  c #1B2829",
")  c #1C292B",
"_  c #1C292C",
"`  c #202C2F",
"'  c #202D2F",
"]  c #212D2F",
"[  c #212D30",
"{  c #222F32",
"}  c #263236",
"|  c #263336",
" . c #273436",
".. c #273438",
"X. c #293638",
"o. c #2A3639",
"O. c #29353A",
"+. c #2B373A",
"@. c #2C393D",
"#. c #2D3A3E",
"$. c #303D40",
"%. c #313E40",
"&. c #323E41",
"*. c #333E41",
"=. c #354144",
"-. c #3A464A",
";. c #3B484C",
":. c #3D494C",
">. c #3C494E",
",. c #3E4A4E",
"<. c #3E4B4F",
"1. c #424D52",
"2. c #434F53",
"3. c #445155",
"4. c #455257",
"5. c #495457",
"6. c #46545B",
"7. c #4A5559",
"8. c #4A575B",
"9. c #4A575C",
"0. c #4B575C",
"q. c #4A585D",
"w. c #505B61",
"e. c #556267",
"r. c #58656A",
"t. c #59656B",
"y. c #5B686E",
"u. c #5B686F",
"i. c #5D696E",
"p. c #5E6A6F",
"a. c #5E6B6F",
"s. c #5E6B71",
"d. c #616B6E",
"f. c #616C6F",
"g. c #626F75",
"h. c #636F75",
"j. c #667379",
"k. c #677479",
"l. c #6B7478",
"z. c #68747A",
"x. c #6B757B",
"c. c #6A767B",
"v. c #6D777A",
"b. c #6A777D",
"n. c #6C797D",
"m. c #717A7D",
"M. c #707A7F",
"N. c #737C7E",
"B. c #6E7B80",
"V. c #788386",
"C. c #788387",
"Z. c #798387",
"A. c #758389",
"S. c #7A8488",
"D. c #7A8489",
"F. c #7B858A",
"G. c #7C858A",
"H. c #7C868B",
"J. c #7C878B",
"K. c #7C878C",
"L. c #828A8C",
"P. c #808C91",
"I. c #868E91",
"U. c #858F94",
"Y. c #889197",
"T. c #869399",
"R. c #889298",
"E. c #8A9399",
"W. c #949C9F",
"Q. c #939DA3",
"!. c #95A0A6",
"~. c #99A2A7",
"^. c #9DA3A4",
"/. c #A7ACAD",
"(. c #A6AFB4",
"). c #A7B1B7",
"_. c #AFB4BA",
"`. c #A9B5BC",
"'. c #AFB7BD",
"]. c #ACB8BF",
"[. c #B8BBBB",
"{. c #B8BCBD",
"}. c #BDBFBF",
"|. c #BEC0BF",
" X c #B2BAC0",
".X c #BBC1C4",
"XX c #BAC1C5",
"oX c #BAC2C7",
"OX c #BFC4C7",
"+X c #B6C3CA",
"@X c #BBC3C9",
"#X c #BEC7CD",
"$X c #BFC7CE",
"%X c #C0C3C6",
"&X c #C6C9CD",
"*X c #CACBC9",
"=X c #CACBCB",
"-X c #CCCCCA",
";X c #CBCCCC",
":X c #CACCCD",
">X c #CECECC",
",X c #D1D1CF",
"<X c #C7CDD2",
"1X c #C7CED5",
"2X c #CED2D6",
"3X c #CED4DA",
"4X c #D3D3D1",
"5X c #D5D4D2",
"6X c #D6D6D4",
"7X c #D7D7D5",
"8X c #D0D6DD",
"9X c #D4D8DB",
"0X c #D4D9DC",
"qX c #D5D9DC",
"wX c #D5D9DD",
"eX c #D7DADC",
"rX c #D6DADD",
"tX c #D7DADD",
"yX c #D4D9DE",
"uX c #D7DBDE",
"iX c #D8DCDF",
"pX c #D2D9E0",
"aX c #D5DBE1",
"sX c #D7DBE0",
"dX c #D7DCE1",
"fX c #D4DCE2",
"gX c #DADBE0",
"hX c #D9DDE1",
"jX c #D8DDE2",
"kX c #DAE0E6",
"lX c #DBE0E6",
"zX c #DCE0E6",
"xX c #DCE2E8",
"cX c #DCE3E8",
"vX c #DCE2E9",
"bX c #DEE2E8",
"nX c #DEE3E9",
"mX c #DFE3E9",
"MX c #DCE4EB",
"NX c #DEE4EA",
"BX c #DEE4EB",
"VX c #DFE5EC",
"CX c #DFE6ED",
"ZX c #DFE6EE",
"AX c #E0E5EB",
"SX c #E1E7ED",
"DX c #E0E7EE",
"FX c #E0E7EF",
"GX c #E1E8EF",
"HX c #E2E8EF",
"JX c #E2E9F0",
"KX c black",
"LX c black",
"PX c black",
"IX c black",
"UX c black",
/* pixels */
"CXCXCXCXCXCXCXCXCXCXCXCXCXCXCXCXCXCXCXCXCXCXCXCXCXCXCXCXCXCXCXCX",
"CXCXCXCXCXCXCXCXCXCXCXCXCXCXCXCXCXCXCXCXCXCXCXCXCXCXCXCXCXCXCXCX",
"CXCXCXCXCXCXCXCXCXCXCXCXCXCXCXCXCXCXCXCXCXCXCXCXCXCXCXCXCXCXCXCX",
"CXCXCXCXCXCXCXCXCXCXCXCXCXCXCXCXCXCXCXCXCXCXCXCXCXCXCXCXCXCXCXCX",
"CXCXCXCXCXCXCXCXCXCXCXCXCXCXCXCXCXCXCXCXCXCXCXCXCXCXCXCXCXCXCXCX",
"CXCXCXCXCXCXCXCXCXCXCXCXCXCXCXCXCXCXCXCXCXCXCXCXCXCXCXCXCXCXCXCX",
"CXCXCXCXCXCXCXCXCXZXFXJXHXZXZXZXZXZXZXZXCXCXCXCXCXCXCXCXCXCXCXCX",
"CXCXCXCXCXCXCXCXxXqXXXF.~.wXiXtX9X0XjXkXBXDXFXDXCXCXCXCXCXCXCXCX",
"CXCXCXCXCXCXCXZXuX*Xv.% $.}.4X,X>X-X*X;X%XH.Q.yXvXCXCXCXCXCXCXCX",
"CXCXCXCXCXCXCXZXeX|.-.< ) /.7X6X6X5X4X=Xd.a <.&XdXZXCXCXCXCXCXCX",
"CXCXCXCXCXCXCXCX.Xf.G f V 5.N.L.^.{.:XI.I < 2.2XlXCXCXCXCXCXCXCX",
"CXCXCXCXCXCXDXfX8.x ~ _ V   X 9 Y } =.( 2 a w.sXnXCXCXCXCXCXCXCX",
"CXCXCXCXCXCXGX#X' 3.!.u.b.%.. $ = f ] / s x ..E.8XDXCXCXCXCXCXCX",
"CXCXCXCXCXCXJX(.H i.].6.`.B.> 7 l a.g.j.t.P k U R.JXCXCXCXCXCXCX",
"CXCXCXCXCXCXJXU.0 I >.q.h.| 5 5 K T.y.A.+X@.d 1 S.JXCXCXCXCXCXCX",
"CXCXCXCXCXCXJXZ.O 0 q l f M ^ T v X.0.s.e.E k 2 S.JXCXCXCXCXCXCX",
"CXCXCXCXCXCXJXV.o 6 ; - i R K.P.W @ 7 r * 0 z w G.JXCXCXCXCXCXCX",
"CXCXCXCXCXCXJXC.& e 0 + 4 M c.n.S 7 3 ; + 6 h c Y.JXCXCXCXCXCXCX",
"CXCXCXCXCXCXJXZ.- e 0 6 7 = 4.;.3 6 $ # # , i ! ).JXCXCXCXCXCXCX",
"CXCXCXCXCXCXJXD.w l i t f { k.9.Q 3 $ > : 8 h  .$XGXCXCXCXCXCXCX",
"CXCXCXCXCXCXJXJ.d A D M l #.p.r.+.3 3 q q j N ,.pXDXCXCXCXCXCXCX",
"CXCXCXCXCXCXGX'.:.F C S C g u b p y u n N Z L z.MXCXCXCXCXCXCXCX",
"CXCXCXCXCXCXZXrX[.m.&.R m i t p j v b B J O.x.1XDXCXCXCXCXCXCXCX",
"CXCXCXCXCXCXCXcXhXtXOXW.l.7.*.} ` [ o.1.M._.gXAXCXCXCXCXCXCXCXCX",
"CXCXCXCXCXCXCXCXZXZXDXSXNXaX<XoX X X@X3XzXmXbXVXCXCXCXCXCXCXCXCX",
"CXCXCXCXCXCXCXCXCXCXCXCXZXDXFXGXHXHXGXDXZXCXCXCXCXCXCXCXCXCXCXCX",
"CXCXCXCXCXCXCXCXCXCXCXCXCXCXCXCXCXCXCXCXCXCXCXCXCXCXCXCXCXCXCXCX",
"CXCXCXCXCXCXCXCXCXCXCXCXCXCXCXCXCXCXCXCXCXCXCXCXCXCXCXCXCXCXCXCX",
"CXCXCXCXCXCXCXCXCXCXCXCXCXCXCXCXCXCXCXCXCXCXCXCXCXCXCXCXCXCXCXCX",
"CXCXCXCXCXCXCXCXCXCXCXCXCXCXCXCXCXCXCXCXCXCXCXCXCXCXCXCXCXCXCXCX",
"CXCXCXCXCXCXCXCXCXCXCXCXCXCXCXCXCXCXCXCXCXCXCXCXCXCXCXCXCXCXCXCX",
"CXCXCXCXCXCXCXCXCXCXCXCXCXCXCXCXCXCXCXCXCXCXCXCXCXCXCXCXCXCXCXCX"
};
