/* XPM */
static char *nekokak05[] = {
/* columns rows colors chars-per-pixel */
"32 32 128 2 ",
"   c #091616",
".  c #0B1817",
"X  c #0A1718",
"o  c #0D1A1A",
"O  c #111D1D",
"+  c #131F22",
"@  c #142123",
"#  c #182527",
"$  c #1A2729",
"%  c #1C292C",
"&  c #212F31",
"*  c #253235",
"=  c #26343A",
"-  c #293639",
";  c #2C393C",
":  c #303C40",
">  c #364345",
",  c #374549",
"<  c #3B474C",
"1  c #3D494D",
"2  c #404D52",
"3  c #455155",
"4  c #47555C",
"5  c #4A565B",
"6  c #4D595D",
"7  c #515C5F",
"8  c #4D5A60",
"9  c #525E62",
"0  c #566165",
"q  c #57646A",
"w  c #5A656A",
"e  c #5D696E",
"r  c #5E6B71",
"t  c #616C71",
"y  c #657076",
"u  c #67757A",
"i  c #6A757A",
"p  c #717B7F",
"a  c #6E7B80",
"s  c #737D81",
"d  c #768085",
"f  c #7B858B",
"g  c #7C888D",
"h  c #80898F",
"j  c #838E93",
"k  c #89959C",
"l  c #8C999F",
"z  c #939DA2",
"x  c #97A0A6",
"c  c #9DA4A7",
"v  c #A2A9AE",
"b  c #A1AEB4",
"n  c #A4B0B6",
"m  c #AEB2B3",
"M  c #A7B4BA",
"N  c #ABB5BB",
"B  c #B3B7B8",
"V  c #B5BABA",
"C  c #B3BCC2",
"Z  c #B7C3C9",
"A  c #BAC3CA",
"S  c #BEC8CE",
"D  c #C6C7C7",
"F  c #C5C9CC",
"G  c #CBCCCB",
"H  c #D0D0CE",
"J  c #C2CCD3",
"K  c #CCD0D4",
"L  c #CFD6DC",
"P  c #D2D3D2",
"I  c #D8D8D7",
"U  c #D3D7D9",
"Y  c #D4DADF",
"T  c #D8DBDE",
"R  c #D6DEE5",
"E  c #D9DEE3",
"W  c #DBE1E6",
"Q  c #DFE6ED",
"!  c #E0E7EE",
"~  c #E1E8EF",
"^  c #E2E9F0",
"/  c black",
"(  c black",
")  c black",
"_  c black",
"`  c black",
"'  c black",
"]  c black",
"[  c black",
"{  c black",
"}  c black",
"|  c black",
" . c black",
".. c black",
"X. c black",
"o. c black",
"O. c black",
"+. c black",
"@. c black",
"#. c black",
"$. c black",
"%. c black",
"&. c black",
"*. c black",
"=. c black",
"-. c black",
";. c black",
":. c black",
">. c black",
",. c black",
"<. c black",
"1. c black",
"2. c black",
"3. c black",
"4. c black",
"5. c black",
"6. c black",
"7. c black",
"8. c black",
"9. c black",
"0. c black",
"q. c black",
"w. c black",
"e. c black",
"r. c black",
"t. c black",
"y. c black",
"u. c black",
/* pixels */
"Q Q Q Q Q Q Q Q Q Q Q Q Q Q Q Q Q Q Q Q Q Q Q Q Q Q Q Q Q Q Q Q ",
"Q Q ! Q Q Q Q Q Q Q Q Q Q Q Q Q Q Q Q Q Q Q Q Q Q Q Q Q Q Q Q Q ",
"Q Q Q Q Q Q Q Q Q Q Q Q ^ Q Q Q Q Q Q Q Q Q Q Q Q Q Q Q Q Q Q Q ",
"Q Q Q Q Q Q Q ! Q Q Q Q Q Q Q Q ^ Q Q Q Q Q Q Q Q Q Q Q Q Q Q Q ",
"Q Q Q Q Q Q Q Q Q Q Q Q Q Q Q Q Q Q Q Q Q Q Q Q Q Q Q ~ Q Q Q Q ",
"Q ! Q Q Q Q ! Q Q Q Q M q r d q 6 6 9 c L W Q Q Q Q Q Q Q Q Q Q ",
"Q Q Q Q Q Q Q Q Q W z &   X o o . X * m H K W Q Q Q Q Q Q Q Q Q ",
"Q Q Q Q Q Q Q ~ W g $ # 8 1 # O O @ d H H H P Q Q Q Q Q Q Q Q Q ",
"Q Q Q ! Q Q ^ L t o X 1 S Z r $ . $ c P P H G P Q Q Q Q Q Q Q Q ",
"Q Q Q Q Q ^ S 5 X o o ; n r 4 e o . 1 B I P H G Y Q Q Q Q Q Q Q ",
"Q Q Q Q Q N > X X o o @ 6 9 k M &   . 1 V P H G G Y Q Q Q Q Q Q ",
"Q Q Q Q Q 9   o o X o o $ u M l #   . . 6 D I H G G T Q Q Q Q Q ",
"Q ! Q Q Q 9 . o o o . . o @ & $ . . . . O u L I H G F Q Q Q Q Q ",
"Q Q Q Q Q 6 o o o o . . O O o o o o o . . # d c s 6 a Q Q Q Q Q ",
"Q Q Q ! Q 9 o o o . . . O % - O o o $ > ; O O @ o   6 Q Q Q Q Q ",
"Q Q Q Q W 9 o O o o o o o e n 1 O O p B u < o o o . 7 Q Q Q Q Q ",
"Q Q Q Q W 9 o O o o o O + j B 9 . + g t = g & O O # d Q Q Q Q Q ",
"Q Q Q Q Q 9 O + o + : % t t * O . o 1 9 g S 1 @ O 4 L ^ Q Q Q Q ",
"Q Q Q Q ! t + O + + w j y + . O o . O 2 b Z 1 o O 4 L ^ Q ^ Q Q ",
"Q Q Q Q ^ B - O o O % s w + O . . . . O & ; @ O O = M ^ Q Q Q Q ",
"Q Q Q Q Q E j % + o o + 2 % . . . . . o . o O O O $ g ^ Q Q Q Q ",
"Q Q Q Q Q Q R i + + O O O o . . . . . . o o O o o 1 S ^ Q Q Q Q ",
"Q Q Q Q Q Q ^ K 9 + O O o o o o . . . . o O O O 8 S ^ Q Q Q Q Q ",
"Q Q Q Q Q Q Q ^ G 9 + O O o o o o . o o o O @ y L ^ Q Q Q Q Q Q ",
"Q Q Q Q Q Q Q Q Q F w $ O O O O O o o o O % g R ^ ^ Q Q Q Q Q Q ",
"Q Q Q Q ! Q Q Q Q Q K g : @ + O o o O O = x Q ~ Q Q Q Q Q Q Q Q ",
"! Q Q Q Q ! Q Q Q Q Q R C d w 9 q 9 q q C Q ~ Q Q Q Q Q Q Q Q Q ",
"Q Q Q Q Q Q Q Q Q Q Q Q ~ ! Q Q Q Q R Q Q Q Q Q Q Q Q ~ Q Q Q Q ",
"Q Q Q Q Q Q Q Q Q Q Q Q Q Q Q Q Q Q Q Q Q Q Q Q Q Q Q Q Q Q ~ Q ",
"Q Q ^ Q Q Q Q Q Q Q Q Q Q Q Q Q Q Q Q Q Q Q Q Q Q Q Q Q Q Q Q Q ",
"Q Q Q Q Q Q Q Q Q Q Q Q Q Q Q Q Q Q Q Q Q Q Q Q Q Q Q Q Q Q Q Q ",
"Q Q Q Q Q Q Q ! Q Q Q Q Q Q Q Q Q Q Q Q Q Q Q Q Q ~ Q Q Q Q Q Q "
};
