/* XPM */
static char *nekokak22[] = {
/* columns rows colors chars-per-pixel */
"32 32 128 2 ",
"   c #091616",
".  c #0B1817",
"X  c #0B1718",
"o  c #0D1A1A",
"O  c #111D1D",
"+  c #0F1D20",
"@  c #121E20",
"#  c #142224",
"$  c #182527",
"%  c #172428",
"&  c #192629",
"*  c #1C2A2D",
"=  c #1F2D32",
"-  c #212C2F",
";  c #202D32",
":  c #243135",
">  c #26343A",
",  c #29373B",
"<  c #2C393E",
"1  c #2D3B41",
"2  c #313E44",
"3  c #334046",
"4  c #36444A",
"5  c #38454B",
"6  c #3B494E",
"7  c #3E4C52",
"8  c #414F54",
"9  c #445157",
"0  c #465358",
"q  c #49565B",
"w  c #4B585E",
"e  c #4E5C63",
"r  c #556167",
"t  c #546269",
"y  c #59666C",
"u  c #5E6C72",
"i  c #616E75",
"p  c #647077",
"a  c #66737A",
"s  c #69767D",
"d  c #6B787F",
"f  c #6E7B82",
"g  c #737F85",
"h  c #76838A",
"j  c #7A8489",
"k  c #7D898E",
"l  c #7E8B91",
"z  c #828D93",
"x  c #869096",
"c  c #859299",
"v  c #8A969C",
"b  c #8E999F",
"n  c #8E9BA2",
"m  c #919DA3",
"M  c #989FA3",
"N  c #97A3AA",
"B  c #9CA6AC",
"V  c #9DAAB1",
"C  c #A4ABAE",
"Z  c #A2AEB4",
"A  c #A3B0B7",
"S  c #A6B2B9",
"D  c #AAB6BC",
"F  c #AEB9BF",
"G  c #B2B7BA",
"H  c #B5BABC",
"J  c #B2BEC4",
"K  c #BBC1C5",
"L  c #B7C2C9",
"P  c #BBC6CB",
"I  c #BDC9CE",
"U  c #BECAD1",
"Y  c #C6C7C7",
"T  c #C2C6C8",
"R  c #C5C9CB",
"E  c #CBCCCB",
"W  c #D1D1CF",
"Q  c #C2CDD2",
"!  c #CBCED0",
"~  c #C7D0D4",
"^  c #CFD1D1",
"/  c #CAD4DA",
"(  c #CDD9DF",
")  c #D3D3D2",
"_  c #D4D7D9",
"`  c #D6D9DC",
"'  c #D8DADC",
"]  c #CFDBE2",
"[  c #DADEE1",
"{  c #DAE0E6",
"}  c #DEE5EC",
"|  c #E0E7EE",
" . c #E1E8EF",
".. c black",
"X. c black",
"o. c black",
"O. c black",
"+. c black",
"@. c black",
"#. c black",
"$. c black",
"%. c black",
"&. c black",
"*. c black",
"=. c black",
"-. c black",
";. c black",
":. c black",
">. c black",
",. c black",
"<. c black",
"1. c black",
"2. c black",
"3. c black",
"4. c black",
"5. c black",
"6. c black",
"7. c black",
"8. c black",
"9. c black",
"0. c black",
"q. c black",
"w. c black",
"e. c black",
"r. c black",
"t. c black",
"y. c black",
"u. c black",
/* pixels */
"}  ./ 9 @ @ @ O + + + o o + o O O O o O O O O O $ , d Y [ | | | ",
" .{ h # @ O O O o o o o . o o o O O o o O O O O O @ - r G [ | | ",
"{ k & @ O O O o o o o . O o o O O O o O O O O O O O @ - 8 C ' | ",
"n * O @ + o o o . . . o . o . o . . O . . O O . O O O $ @ 2 M W ",
": @ o O o o o o   . . . . o . . . . o o o O O O O O O O @ $ 2 z ",
"@ @ o o + o o o . . . . . . . . . . . o o O O O O . O O O O @ - ",
"@ o o + O + o       . . . . . . . . o - 8 - O O O . O O @ O O # ",
"o + O o O O .     .   . . . . . . . . < v z q - O O O O O O O O ",
"o o + + o o o o o . . . . . . . X o o @ > u S v 2 O @ O O @ @ O ",
"+ o + o o o o o . . . o . . o o o o o o @ 1 V G M 0 @ O O O O @ ",
"O O + + o o o o o o . . . . o o o o o + & g Z 8 i z * @ O O @ @ ",
"+ O O + % 1 > * o o o o . . o o o O @ @ e S y @ $ , @ O o O O O ",
"o o O & a F A l 0 # o o o o o o o O @ , m s $ O O O o o O o O O ",
"O O + 7 L ( ( U n t , o O . o o O > q v N ; O O O o o O O O O O ",
"+ + + 6 P ( ( h , u l = . o . . 1 m P ! k $ O O . . X O O o o O ",
"O # O * m ] A 3 + 7 L u + O . o 0 J ~ Q b & O O . . O . . . o o ",
"@ o @ + e J u @ $ p R N - O o O & i G I d # O o o o . . . o o . ",
"+ + + + @ g i * q J Q B : o O o o $ 8 i < O O o o   . . o o o o ",
"o + X X X : a h Z I G r @ O o o X O @ @ O # # + .     . o o o o ",
"o X + X X X $ 0 u t 5 $ o o o o X X @ o O O + o . .     o o o o ",
"o o   o X X O o o . . o o o o . o O O O O O @ o o o     o o o o ",
"+ o o % $ O o X o o . o o o o o . o O @ O o o o o o       o o o ",
"@ : t m v 8 # o o X o o . o . . o O - 1 5 , @ O + o o .   o o o ",
"i B ! _ ' L y % o o o   . . .   . < x A L S t * @ @ + o o   o o ",
"E ) ) ) ' ' R a & O . . .       o i ( ] ( D l p : @ O o o o . o ",
"E E ) ) ) ) _ R f - O .         . u U U n 4 = u h ; o + + o o o ",
"Y E E W ) ) ) ) ^ k : o .       . : m L 4 # ; l U y @ + o o . o ",
"Y E E E W ) ) ) ) ^ M 6 O .   . . . 7 N 7 > d I ] V : o o o o * ",
"R Y E E W W W ) W ) ) H p * . . . . % 7 s n U ( ( L 6 o o o % v ",
"} ) Y Y E W W W ) W ) ) E c < + . . + + , d D I U l * O o % h { ",
"| } ) E E E W W W ) ) ) ) ^ l & o o + + + $ 2 q q : O O O h {  .",
"| | | _ E E E W W ) ) ) ^ ^ h # o o + + O O + O + o o . 7 ~  . ."
};
