/* XPM */
static char *nekokak18[] = {
/* columns rows colors chars-per-pixel */
"32 32 128 2 ",
"   c #0A1716",
".  c #0B1817",
"X  c #0A1618",
"o  c #0D1A1B",
"O  c #111D1E",
"+  c #0F1D20",
"@  c #121E21",
"#  c #152124",
"$  c #182426",
"%  c #172428",
"&  c #192629",
"*  c #1C292D",
"=  c #1E2C30",
"-  c #212E32",
";  c #233135",
":  c #25333A",
">  c #283438",
",  c #2C393E",
"<  c #2E3C42",
"1  c #303D43",
"2  c #344145",
"3  c #354248",
"4  c #39464B",
"5  c #3B484D",
"6  c #3E4B51",
"7  c #404E53",
"8  c #435156",
"9  c #455359",
"0  c #4A565B",
"q  c #4C595E",
"w  c #4D5B61",
"e  c #515E64",
"r  c #546166",
"t  c #5A666B",
"y  c #5B686E",
"u  c #5D6A71",
"i  c #616E75",
"p  c #647176",
"a  c #687277",
"s  c #65727A",
"d  c #6A767D",
"f  c #6D797E",
"g  c #6D7A80",
"h  c #737D82",
"j  c #758187",
"k  c #7B858A",
"l  c #7B888F",
"z  c #7E8B92",
"x  c #828C92",
"c  c #87939A",
"v  c #8B969C",
"b  c #8C999F",
"n  c #8D99A0",
"m  c #919EA4",
"M  c #96A2A9",
"N  c #9AA5AC",
"B  c #9CA9B0",
"V  c #A3A9AC",
"C  c #A3AFB5",
"Z  c #A8ADB0",
"A  c #ACB2B5",
"S  c #A5B1B8",
"D  c #A9B5BB",
"F  c #ADB9BF",
"G  c #B2B7B9",
"H  c #B6BABC",
"J  c #ADB9C0",
"K  c #B2BDC3",
"L  c #BBC1C4",
"P  c #B7C4CB",
"I  c #BAC5CB",
"U  c #BEC9CF",
"Y  c #C3C6C6",
"T  c #C7C8C7",
"R  c #C8C9C7",
"E  c #C1C5CA",
"W  c #C6CACB",
"Q  c #CBCCCB",
"!  c #D0D0CF",
"~  c #C4CCD2",
"^  c #CACED2",
"/  c #C7D0D3",
"(  c #CDD2D5",
")  c #C7D3D9",
"_  c #CCD6DB",
"`  c #CDD9DE",
"'  c #D3D3D2",
"]  c #D0D4D8",
"[  c #D5D8DC",
"{  c #D9DADE",
"}  c #CFDBE1",
"|  c #D2DDE2",
" . c #DBDCE1",
".. c #DDE1E5",
"X. c #DFE3E8",
"o. c black",
"O. c black",
"+. c black",
"@. c black",
"#. c black",
"$. c black",
"%. c black",
"&. c black",
"*. c black",
"=. c black",
"-. c black",
";. c black",
":. c black",
">. c black",
",. c black",
"<. c black",
"1. c black",
"2. c black",
"3. c black",
"4. c black",
"5. c black",
"6. c black",
"7. c black",
"8. c black",
"9. c black",
"0. c black",
"q. c black",
"w. c black",
"e. c black",
"r. c black",
"t. c black",
"y. c black",
"u. c black",
/* pixels */
" . .{ { { { Y v r 1 * $ $ $ $ O $ O $ O @ @ @ $ & > 0 x H ! Q R ",
" . . . .E x 7 - $ $ $ O O O O O O O O O O O @ @ @ @ $ - 4 f A R ",
" . .] n 7 - @ @ O O O O O . O O O O O O O @ @ O @ @ @ O @ $ 2 x ",
"..L u - & $ @ @ O O . O O O O O . O O O O O O @ O @ O $ O O O $ ",
"V 8 - $ @ @ @ O o o O O o O O O O O O O O O O O O O @ @ O @ O # ",
"< & $ @ @ @ O O O o o o o o o O $ O $ @ O O O O O O @ O O @ o # ",
"@ & @ O O O O O O o o o o & 1 e k k x t @ O O O o O o @ O + o # ",
"& @ O O o o o o . . . o o 0 n x Z V e 8 @ O O X o . o o o o o o ",
"@ @ @ @ o . o o . o . X O & - @ d c # O O o o o . . . o o o o o ",
"@ @ @ o . o . o . . . . . . o O u b & O o . o . . o o o o o o o ",
"@ O o o o . X   . . . . X O O O e c & o o . . . . . o O + o . + ",
"@ O o X . X X   X . . X . . O O 6 m ; O o o . .   . . o o o . . ",
"O O o X X X     . . . . o o O O e L d * O o o .     . . o o . . ",
"O O o o X X     . . . . . o O ; M / I q O O O o       o . . o . ",
"O o o X o . X . . . o . o O . 2 K U U i + # + o o o o o o o o . ",
"O O O O X X O . o . o o . . . & w i e > O O O o o + + + o o o o ",
"+ o O O o . o o . O o o . . . . o o O O o O O o + # # + o o O o ",
"o o O o o . . + & = 1 < $ O O O o o . o @ @ $ 8 s y y i 6 * O O ",
"O o o O + o = y M z p M n 0 @ O O O . O + # r I P w 9 P U b , o ",
"o + + o + % l ) ) u # e U G 2 O . . . . . 4 J ` M = : S ` ) r + ",
"o + O + + - C ` ` g + 3 K I 9 o . O . o . 8 / ` n * 2 P ` P 8 . ",
"o o + + o % j ) | x # < K N ; . . . . .   # f A J u d F M e % o ",
"O + + . o + * r n B u s b 2 o o . O . .     o * 6 e 6 2 = # + o ",
"+ + + O + + + + & < 9 5 = o X X . . . .     .   o o o O o O o + ",
", * # O O @ + O . .   . o . o o o X   . . . . . . o O + + o * e ",
"K c t > O O O O o . . . o o o o o X . . . . o o o o O O + o t I ",
"X...} n = + + o o . O , w r w 0 8 8 6 0 t a f q + o o o o $ v Q ",
"......U 2 + O . o o , A ( ( ( / W Q Q Q ! ! ' Z ; + + + o ; V Q ",
" . . ./ 5 + o + o O f ' { { ' ' ' ' ' ' ! ' ' R 9 o + o . 2 F Q ",
"{ { { ^ 6 + + o O > A ' ' ' ' ' ' ! ' ! ' ' ' ! x # + . . 6 L R ",
"[ [ ` / w + o o O a ! ! ! ! ! ! ! ! ! ' ! ! ! ! H 4 + o . t R R ",
"] ] _ ) j + o o , A Q Q Q Q Q Q ! ! ! ! ! ! ! ! ! x * o @ j R R "
};
