/* XPM */
static char *nekokak12[] = {
/* columns rows colors chars-per-pixel */
"32 32 128 2 ",
"   c #091716",
".  c #0B1817",
"X  c #0A1718",
"o  c #0D1A1B",
"O  c #111D1E",
"+  c #0F1D20",
"@  c #121E20",
"#  c #142124",
"$  c #17262A",
"%  c #1A2629",
"&  c #1C292D",
"*  c #1E2B30",
"=  c #212E31",
"-  c #243235",
";  c #29363A",
":  c #2B393D",
">  c #323E43",
",  c #344145",
"<  c #354248",
"1  c #39464C",
"2  c #3D4A4E",
"3  c #424E53",
"4  c #455257",
"5  c #455359",
"6  c #49555A",
"7  c #4C595E",
"8  c #4E5B60",
"9  c #525E63",
"0  c #556166",
"q  c #556369",
"w  c #5A656A",
"e  c #5C686F",
"r  c #5D6B72",
"t  c #616E73",
"y  c #677175",
"u  c #677379",
"i  c #6A767C",
"p  c #6C787E",
"a  c #737F85",
"s  c #758187",
"d  c #76838A",
"f  c #7C868C",
"g  c #7E8A90",
"h  c #818D94",
"j  c #859096",
"k  c #899195",
"l  c #87939A",
"z  c #8A959B",
"x  c #8D989F",
"c  c #929A9E",
"v  c #949EA3",
"b  c #97A0A5",
"n  c #99A1A6",
"m  c #96A1A8",
"M  c #9BA4AB",
"N  c #9EA9AF",
"B  c #9FACB3",
"V  c #A6ABAD",
"C  c #A8ADAF",
"Z  c #A0ABB2",
"A  c #AAB4BA",
"S  c #AFB8BF",
"D  c #B3B8BB",
"F  c #AFBBC2",
"G  c #B7BEC3",
"H  c #BABFC2",
"J  c #B4C0C6",
"K  c #BBC2C6",
"L  c #BBC4CB",
"P  c #BEC9CE",
"I  c #BDC9D0",
"U  c #C5C7C7",
"Y  c #C8C9C7",
"T  c #C5C9CB",
"R  c #CCCDCC",
"E  c #D1D1CF",
"W  c #C4CDD3",
"Q  c #CED1D3",
"!  c #CCD5DC",
"~  c #D3D3D2",
"^  c #D2D6DA",
"/  c #D6D9DB",
"(  c #D8D8D8",
")  c #CEDAE0",
"_  c #D3DCE2",
"`  c #D9DEE2",
"'  c #DBE1E7",
"]  c #DFE6ED",
"[  c #E0E7EE",
"{  c #E1E8EF",
"}  c #E3EAF1",
"|  c black",
" . c black",
".. c black",
"X. c black",
"o. c black",
"O. c black",
"+. c black",
"@. c black",
"#. c black",
"$. c black",
"%. c black",
"&. c black",
"*. c black",
"=. c black",
"-. c black",
";. c black",
":. c black",
">. c black",
",. c black",
"<. c black",
"1. c black",
"2. c black",
"3. c black",
"4. c black",
"5. c black",
"6. c black",
"7. c black",
"8. c black",
"9. c black",
"0. c black",
"q. c black",
"w. c black",
"e. c black",
"r. c black",
"t. c black",
"y. c black",
"u. c black",
/* pixels */
"] ] ] ] ] ] ] [ [ [ } } } } } } } } } } { ] ] ] ] ] ] ] ] ] ] ] ",
"] ] ] ] ] ] [ ' ` U V v v v v v v n v n L ] ] ] ] ] ] ] ] ] ] ] ",
"] ] ] ] ] ] ] ~ n : # % @ @ O O o o O o ; d ! ] ] ] ] ] ] ] ] ] ",
"] ] ] ] ] [ ` V > O O O O O O O o o o X . o 2 b ' ] ] ] ] ] ] ] ",
"] ] ] ] ] ] H 3 @ @ @ @ O O o o o o o   o o   # 9 A ] ] ] ] ] ] ",
"] ] ] ] [ ^ y # O O O O o o o o o o o o o o o o . = i W ] ] ] ] ",
"] ] [ ] [ n = O O O O O o o X o o o   X o o O & # o . 2 T ] ] ] ",
"] ] ] [ Y 4 O @ O O o o O O o X o     o o # 4 m g - o $ c ^ ' ] ",
"] ] [ ` h O O O O O o O o X o X     . + + 2 J ) W 5 o + d R ` ] ",
"] ] [ H 3 O O O O O 3 ; O X X X   o o o ; r e B P 5 o + 7 H ` ] ",
"] ] ` s @ O O o O ; h - @ O o o + + + + e d # < j ; + o # w W ] ",
"] ' U 2 O O O o @ y V 4 @ o O @ + O + # g I s q 9 # O O o @ N } ",
"] ' k % O O O o % h a v a 6 4 9 : O O O t ! ! x : o o O o o b } ",
"[ _ 9 @ O O O o > a @ = 8 z G W d # O O : l l ; . . o o O o b } ",
"[ P > @ O O . O = > O O + > M L 9 O O . o # o   . o & = # @ m } ",
"} A = O O O o . o X X O o @ 3 t % O . . .       . & z C k s K ] ",
"[ V & O O o o . . . . O o o o o o O . . . .       0 R ~ E E ' ] ",
"} Z % O O o o . . . . . . o . . o o o O o . .   % b ( ~ ~ E ' ] ",
"} M % O O O o . . . . . . . o o = 2 - . . o . o 6 Y E ~ E E ` ] ",
"} M & # O o o o . . . . . o + , v P v - . . o & n ( ~ E E R ` ] ",
"} M & @ @ o o o .     . . o & i i z J 7   o O y E E E E E R ' ] ",
"} Z * # @ o . . o . . . . o 2 e # $ r q . o , H ( ( E R Y ( ] ] ",
"{ A - # @ o o .   . . . . + s F d 2 t > . # l ( ~ ~ E R R ] ] ] ",
"{ W 1 % # @ o o o . . .   + g ) ) F q + . ; J ( ~ E R T / ] ] ] ",
"[ ` a * @ @ @ o o o O o o + 7 A B 8 + o X & x ~ E R Y Q ' ] ] ] ",
"[ { ) x 1 @ + @ O O + o + o # ; = # o o o X , S E Y U ' ] ] ] ] ",
"[ [ [ [ W a = @ o o O O o @ + o o @ + o o o + w U T ~ ] ] ] ] ] ",
"[ [ [ [ [ ] A 0 & o o o o + + o O @ @ @ o o o * c R ' ] ] ] ] ] ",
"[ ] ] ] ] ] [ ` m 3 # o o o o o @ & > $ + o o o r ! { ] ] ] ] ] ",
"] ] ] ] ] ] ] [ } ! g : + @ @ @ ; g J x 6 & # o q ' ] ] ] ] ] ] ",
"] ] ] ] ] ] ] ] ] { ] L m m b M F ' ] ] ! A M b L ] ] ] ] ] ] ] ",
"] ] ] [ ] ] ] ] ] ] ] { } } } } ] ] ] ] { { { { { ] ] ] ] ] ] ] "
};
