/* XPM */
static char *nekokak07[] = {
/* columns rows colors chars-per-pixel */
"32 32 128 2 ",
"   c #091616",
".  c #0B1817",
"X  c #0A1718",
"o  c #0D1A1B",
"O  c #111D1D",
"+  c #0F1D20",
"@  c #121E20",
"#  c #152223",
"$  c #192527",
"%  c #172528",
"&  c #1A2729",
"*  c #1C292C",
"=  c #212D2F",
"-  c #202D30",
";  c #243134",
":  c #263439",
">  c #293639",
",  c #2B383C",
"<  c #2E3C40",
"1  c #323F43",
"2  c #354146",
"3  c #344248",
"4  c #3A464A",
"5  c #3D494C",
"6  c #3D4B50",
"7  c #414D4F",
"8  c #424E51",
"9  c #465256",
"0  c #49555A",
"q  c #4C585E",
"w  c #4E5C61",
"e  c #515D62",
"r  c #526066",
"t  c #566269",
"y  c #59666B",
"u  c #5B686E",
"i  c #5E6B71",
"p  c #626D6F",
"a  c #657176",
"s  c #677379",
"d  c #6C7579",
"f  c #6E797E",
"g  c #6E7C82",
"h  c #737F86",
"j  c #758289",
"k  c #7B858A",
"l  c #7E898D",
"z  c #7E8B91",
"x  c #81898D",
"c  c #818D94",
"v  c #879095",
"b  c #869399",
"n  c #8A959B",
"m  c #8C989E",
"M  c #91989B",
"N  c #8C9AA0",
"B  c #94A0A7",
"V  c #9CA4A9",
"C  c #9BA8AF",
"Z  c #A1A7AB",
"A  c #A4AEB3",
"S  c #A8AFB4",
"D  c #A5B0B6",
"F  c #AAB1B6",
"G  c #ACB5BB",
"H  c #ACB8BF",
"J  c #B1B7BB",
"K  c #B4B9BB",
"L  c #AFBBC1",
"P  c #B4BDC3",
"I  c #BBC1C6",
"U  c #B4C1C8",
"Y  c #BFC5C9",
"T  c #C4C9CC",
"R  c #CCCDCC",
"E  c #CFD0CE",
"W  c #D0D0CF",
"Q  c #C3CDD2",
"!  c #C6D0D4",
"~  c #CFD1D3",
"^  c #CAD5DB",
"/  c #D3D3D2",
"(  c #D8D8D7",
")  c #D3D7DA",
"_  c #D4D9DE",
"`  c #D9D9DC",
"'  c #D6DEE4",
"]  c #DADEE4",
"[  c #DBE0E6",
"{  c #DFE6ED",
"}  c #E0E7ED",
"|  c #E1E8EF",
" . c #E2E9F0",
".. c black",
"X. c black",
"o. c black",
"O. c black",
"+. c black",
"@. c black",
"#. c black",
"$. c black",
"%. c black",
"&. c black",
"*. c black",
"=. c black",
"-. c black",
";. c black",
":. c black",
">. c black",
",. c black",
"<. c black",
"1. c black",
"2. c black",
"3. c black",
"4. c black",
"5. c black",
"6. c black",
"7. c black",
"8. c black",
"9. c black",
"0. c black",
"q. c black",
"w. c black",
"e. c black",
"r. c black",
"t. c black",
"y. c black",
"u. c black",
/* pixels */
"{ { { { } { { { { { { { { { { { { { { { { { { { { { { { { { { { ",
"{ { { { { { { { { { { { { { { { { { { { { { { { { { { { { { { { ",
"{ { { { } { { { { { { { { { { { | { { { { { { { { { { { { { { { ",
"{ { { { { { { { { { { {  .{ [ [ [ [ { { { [ [ [ { { { { { { { { ",
"{ { { { { { { { { { { ^ D p 4 4 4 0 z b a 0 5 i ^  .{ { { { { { ",
"{ { { { { {  . .[ U k 4 # o + & + o + + o     2 Y { { { { { { { ",
"{ { } }  .[ Q b 0 * .   o + u D a % + o + o % k ! [ { { { { { { ",
"{ } } } P u > o . o . o o # N ^ L 6 + o + % d T E _ { { { { { { ",
"{ { } [ y o o o o o o o O # j u 5 u $ . $ x W W W / { { { { { { ",
"{ {  .' 9 o + o o + o . . O 5 y i B ;   = S ( W W E [ { { { { { ",
"{ { { ' 7 o O o o o . . . O = B ^ L =   . d ( W / E / { { { { { ",
"{ { | ' 9 o @ O o o .   . O O > u w o     , K W W E ! { { { { { ",
"{ { { ' 8 o @ O . o . . o @ O O o o . . . O x ( W W T ' { { { { ",
"{ { | ' 9 @ O O o o o . o @ & O o o o . o . q R / W T ~ { { { { ",
"{ { { ' 8 O @ O O o o o O q b , . O O . . . ; K ( W R R { { { { ",
"{ { | ' 9 o O O # , # @ 2 A ! y o O O = # . @ x ( ( E E { { { { ",
"} }  .[ a O O O @ s e g h p d 1 o O p S z , o > f x m J { { { { ",
"{ } }  .V $ O O @ e Z q = o . o . # m b w r # . o o + 0 [ { { { ",
"{ { } } T 2 O O O & f 1   o o o o # a > 3 j * . o o o 4 ' { { { ",
"{ } } } [ d @ O O o , 1 o   . o . o 4 c U H * o o o + 9 [ { { { ",
"{ { { { } S ; O O o o o o   . . . . $ l Q n $ + @ ; p F [ { { { ",
"{ { { { { ` y O O O o o .   .   . . o & 6 : + + & m ` [ { { { { ",
"{ { { { } { Z = O O o o o X X   . X o o o o + + - H [ [ { { { { ",
"{ { } { } } ( d # O O O o o .   . X o o o + + o - S { [ { { { { ",
"{ { { { { } ] Y 9 @ @ O O . X o . o o o o o o + : U } [ } } } } ",
"{ { { { { { [ ` G 5 % @ @ O O o o o + o o + - e B ' } { } } { { ",
"{ { { { } } } ` ` J 0 & @ O O O o + o & 6 z P '  .} } { { { { { ",
"{ { } { { } } { ] ] T f 9 9 7 7 8 8 a S ' | | | } } { { { { { { ",
"{ { { { { } { { { { { { ' ' ' ' ' ' {  .| { { { { { { { { { { { ",
"{ { { { { { { { { { { { { | { { { { { { { { { { { { { { { } { { ",
"{ { } { { { { { | { { { { { { { { { { { { { { { { { { { { { { { ",
"{ { { { { { { { { { { { { { { { { { { { { { { { { } { } { { { { "
};
