/* XPM */
static char *nekokak23[] = {
/* columns rows colors chars-per-pixel */
"32 32 128 2 ",
"   c #091716",
".  c #0B1817",
"X  c #0D1A1A",
"o  c #111D1D",
"O  c #0F1D20",
"+  c #111E21",
"@  c #142123",
"#  c #152329",
"$  c #19262A",
"%  c #1C2A2E",
"&  c #1E2C31",
"*  c #212E32",
"=  c #243135",
"-  c #263338",
";  c #29363A",
":  c #2B393D",
">  c #2E3C41",
",  c #313E43",
"<  c #344147",
"1  c #38464A",
"2  c #3B484E",
"3  c #3E4B52",
"4  c #414E55",
"5  c #445157",
"6  c #455259",
"7  c #49565D",
"8  c #4A585E",
"9  c #4C5A61",
"0  c #536066",
"q  c #56636A",
"w  c #59666C",
"e  c #5A686E",
"r  c #5E6B71",
"t  c #616E75",
"y  c #637077",
"u  c #6B777D",
"i  c #6F7A7F",
"p  c #6C7980",
"a  c #717E84",
"s  c #748087",
"d  c #77848B",
"f  c #7A848A",
"g  c #7F8B92",
"h  c #818E94",
"j  c #889297",
"k  c #859299",
"l  c #89969C",
"z  c #91999D",
"x  c #8D99A0",
"c  c #929EA4",
"v  c #95A0A7",
"b  c #96A3A9",
"n  c #9AA5AC",
"m  c #9CA8AE",
"M  c #9DAAB0",
"N  c #A0A9AE",
"B  c #A1ADB5",
"V  c #A5B1B5",
"C  c #AAB2B7",
"Z  c #A5B2B8",
"A  c #A9B5BB",
"S  c #AEB9BF",
"D  c #B3B9BC",
"F  c #ADBAC0",
"G  c #B2BCC2",
"H  c #B6C1C7",
"J  c #B6C2C8",
"K  c #BAC6CD",
"L  c #BBC8CF",
"P  c #BECAD0",
"I  c #C4C7C8",
"U  c #C4CACC",
"Y  c #CBCCCB",
"T  c #D0D0CF",
"R  c #C2CDD2",
"E  c #C8CCD0",
"W  c #C5D0D6",
"Q  c #CBD1D3",
"!  c #C6D3DA",
"~  c #CAD6DC",
"^  c #CDD9DE",
"/  c #D3D3D2",
"(  c #D1D5D8",
")  c #D6D9DB",
"_  c #D8D9D8",
"`  c #D3DBE1",
"'  c #DBDEE1",
"]  c #DDE1E5",
"[  c #DFE6ED",
"{  c #E0E7EE",
"}  c black",
"|  c black",
" . c black",
".. c black",
"X. c black",
"o. c black",
"O. c black",
"+. c black",
"@. c black",
"#. c black",
"$. c black",
"%. c black",
"&. c black",
"*. c black",
"=. c black",
"-. c black",
";. c black",
":. c black",
">. c black",
",. c black",
"<. c black",
"1. c black",
"2. c black",
"3. c black",
"4. c black",
"5. c black",
"6. c black",
"7. c black",
"8. c black",
"9. c black",
"0. c black",
"q. c black",
"w. c black",
"e. c black",
"r. c black",
"t. c black",
"y. c black",
"u. c black",
/* pixels */
"{ [ b : + + + o X X X X X X X X X X X O o . o o o @ % r Y _ { { ",
"[ m ; X + o o X X X X X X . X X X X o O o o o o o o o * i Y ' { ",
"a ; o O X X X X X X     . X X X X X X X o X X o o o o @ % y Y ' ",
"+ o o X O O X X X X . X . X . X X . . . X X X o o o o o @ % u Y ",
"O O O X X X + o X       . . . . . . . . . X . o o o o o o @ = s ",
"X X X O + o o X .       . . . . . . . X . o X o X X o o o o + = ",
"X X X X o X X . . .       . . . . . . . o o o o X o o o o o + @ ",
"O X O O o X X X . . . . . . X . . . . . o 5 0 $ o o X X X o o + ",
"X O O O O O X X X X X X X . . .     X X O 6 v a ; o o o o o o o ",
"O X X O O * = O O X X   . . . X X X X X X O < c b 1 + o o o o o ",
"O X O @ 8 b M s < O X X . . . X X X X X o o * k Y z : o o o o o ",
"O O O ; B ~ ~ P m 1 O . X . X X X X o o + * f A t h h & o o o o ",
"o O O : F ^ ^ H d p 3 O o . X X X o o o % a Z e @ > u * o o o o ",
"o o O & b ` K q # 3 c : . o X . X + * : p m 6 + o @ @ @ o o o o ",
"o o o O y L t $ O 3 H e o X . . % r x B G 9 + o X o X X X X X o ",
"O X X X , v < X > g P g @ o X X 2 G Q E m - o o X X X X o o o o ",
"X X X   + t y 3 l R U h @ o o X * h U R b = X o . . . o o X X o ",
".   X X   $ t b H H n 1 o o X o X , k A q @ o . . X X X . X X X ",
"O . X X X X + , 5 3 : o o o X X o + - 2 % o o X . . . . . X X X ",
"O # - + X X X . . . . . o . X X . X X o o O O o . . . . X . . X ",
"p c C a * X X X . . . X X . o . o o o o o + o X       X X X . o ",
"( _ _ E a $ + X X X X X o . . X . o o o o o o X       . X X X . ",
"/ / _ _ Y r + o . X . . X . X . X o @ o o o X . X     X X X o X ",
"T / _ / _ G 4 + X . . . .     . ; 6 8 4 * X o o . X X . X X X X ",
"E T / / / _ N : X . .         $ g K P L l - O O X X X X . X X X ",
"Y T / / / / / j * X X         , K ^ ^ P Z s ; O O o X . . . X X ",
"Y Y T / T / / T f & X .       - Z ^ B q < 7 y & o X X X X . . X ",
"I Y Y T / / / / Y f % .       . t J 3 # # 3 Z 0 O o X X X . X X ",
"I Y Y Y T / / T / Y f % X     . < x 3 & 8 M ~ g $ X X X . X . X ",
"_ Y Y Y T / / / / / Y a $ X   X @ 2 d l H ~ ^ Z : O X X . X & s ",
"{ ) Y Y T T / / / / / G < X X X X O 2 b P ^ ~ A < X O X   * b [ ",
"{ { / Y T T T / / T T x & X X X O O O < g F F e # X X X ; c [ [ "
};
