/* XPM */
static char *nekokak35[] = {
/* columns rows colors chars-per-pixel */
"32 32 128 2 ",
"   c #0A1616",
".  c #0C1817",
"X  c #0A1718",
"o  c #0D1A1A",
"O  c #111C1D",
"+  c #111E21",
"@  c #142225",
"#  c #182527",
"$  c #16242A",
"%  c #19262A",
"&  c #1D2B2E",
"*  c #1E2C32",
"=  c #212E32",
"-  c #233136",
";  c #253339",
":  c #29373B",
">  c #2B393E",
",  c #2D3C42",
"<  c #303E44",
"1  c #324046",
"2  c #36444A",
"3  c #39474D",
"4  c #3B484E",
"5  c #3D4B51",
"6  c #414E55",
"7  c #445157",
"8  c #455259",
"9  c #48565D",
"0  c #4B585F",
"q  c #4D5B62",
"w  c #515E65",
"e  c #536167",
"r  c #556269",
"t  c #5B686F",
"y  c #5D6B72",
"u  c #616F76",
"i  c #637077",
"p  c #65737A",
"a  c #6B777D",
"s  c #6A787F",
"d  c #6E7B82",
"f  c #758289",
"g  c #79868D",
"h  c #7B888F",
"j  c #7D8A91",
"k  c #838F95",
"l  c #849097",
"z  c #859299",
"x  c #89969D",
"c  c #8C989E",
"v  c #8D9AA1",
"b  c #909DA4",
"n  c #94A0A7",
"m  c #97A3AA",
"M  c #9AA6AC",
"N  c #9BA8AE",
"B  c #A2AEB5",
"V  c #A4B0B7",
"C  c #ACB2B6",
"Z  c #A6B2B9",
"A  c #AAB6BC",
"S  c #B1B8BB",
"D  c #AEBAC1",
"F  c #B2BDC3",
"G  c #B4C0C5",
"H  c #B7C3C9",
"J  c #BAC6CC",
"K  c #BCC8CE",
"L  c #BFCAD0",
"P  c #C6CBCC",
"I  c #C3CED2",
"U  c #C6D1D5",
"Y  c #C7D3D9",
"T  c #C9D5DB",
"R  c #CDD9DE",
"E  c #D2D3D2",
"W  c #D0D9DF",
"Q  c #CEDAE1",
"!  c #D2DBE1",
"~  c black",
"^  c black",
"/  c black",
"(  c black",
")  c black",
"_  c black",
"`  c black",
"'  c black",
"]  c black",
"[  c black",
"{  c black",
"}  c black",
"|  c black",
" . c black",
".. c black",
"X. c black",
"o. c black",
"O. c black",
"+. c black",
"@. c black",
"#. c black",
"$. c black",
"%. c black",
"&. c black",
"*. c black",
"=. c black",
"-. c black",
";. c black",
":. c black",
">. c black",
",. c black",
"<. c black",
"1. c black",
"2. c black",
"3. c black",
"4. c black",
"5. c black",
"6. c black",
"7. c black",
"8. c black",
"9. c black",
"0. c black",
"q. c black",
"w. c black",
"e. c black",
"r. c black",
"t. c black",
"y. c black",
"u. c black",
/* pixels */
"4 C E E E E P C k u 9 < ; & # + + + O O X X X X X + o + + O O O ",
"# a F S M k e < - + + + + + O O + O O O X X X X X o + + + + + + ",
"o ; 8 1 * # O o o o . o o o o O O X o O     X + + + + + + + O o ",
"o o o o . . . .     o . X X o o X X X O , < e w < < , + + + + o ",
". . . . . .           . o . o o O X + q z j d D F D m d < $ + o ",
".     . . .           . o o o . X + 8 D d , $ 0 F Q Q Y D 5 + + ",
"o .   .               o . o O . o , v I d $ + , m Q Q Y Y d @ + ",
"+ O                 o o o . . . + d F Y b , + $ d Y Q Y Y h $ o ",
"< 6 = = % o X X   X X o . O . . $ j L I A < + + 5 F Q Y K t @ + ",
"b D M N x 6 + X   X o . . O O O + t J I F w & + 3 D Y D d $ + o ",
"w b T Q Q V 3 o o o o o O . O O o < M K Y F d 0 d D v w $ + X X ",
"$ 7 F R T Y p + o o o o . . O O + + < y z b M f w < * @ + o X X ",
"+ 3 A Q T D 0 + o O o . . O O . O O + + % = > & + O O O X X X X ",
"$ 3 A Q T j - + O o o . . o O . o O O O o O O o o o o o + X o o ",
"% w J Q V 3 $ + O O o . o o o O O o o O o o O o o o o o o X X X ",
"t v V v 9 $ + + O O O O O o O O O . . . o o . . o . X o X X X X ",
"s q , - @ O O O O + + + + * = , # O . . o o . o o . . o o     X ",
"% @ @ o O O O O O + + , u l c m e O O . O o o X . . . o       X ",
"O O O O O O O + + O , d F I I E h # o o o o o . . . . . X     X ",
"O O O o . O O O + + = z I I I P d % O o o . o o . o . .     X X ",
"O o O o o o O + + O + w F U U F 8 @ O o o O o o . X X X       X ",
"o o o o o o O O O O O - i M U b : + + o o o . . X X X X     X X ",
"    . . . . O O O O O + & 6 V c : O O O o o o . X X X X X X X X ",
"          . . o . O O O + + p D 4 + O O o o o o X X o o X o o X ",
"    X         X X o O + + O 6 D i # + o o o o o X X . . . o o o ",
"o o o X   X X o o X o o O O , B z = O o o o o o . . . . . . o o ",
"o o o o X X X o o X X o O O - M C , + O + + O o . . . . . o o o ",
"o o o o o X o o o X o O O O $ h F q % ; t i & O . o o . o o o O ",
"o o o o X X X o o X O O O + + r H c d M C d = O . O O . o O O O ",
"o o . . X o o o o O O O - q r l P I D h 7 = + O . . . O O O O O ",
"o o o o o o O O o o O + 5 M V M l d 5 % O O O O O . O . . O o O ",
"o o o o o o o O O O O O * 8 5 < * $ + O O O O O . O O . O . O O "
};
