/* XPM */
static char *nekokak20[] = {
/* columns rows colors chars-per-pixel */
"32 32 128 2 ",
"   c #0A1716",
".  c #0B1817",
"X  c #0D1A1B",
"o  c #111D1E",
"O  c #0F1D20",
"+  c #121E21",
"@  c #142124",
"#  c #182427",
"$  c #17252A",
"%  c #19262A",
"&  c #1C2A2E",
"*  c #1E2C31",
"=  c #212E34",
"-  c #253236",
";  c #27353B",
":  c #2B373B",
">  c #2B393D",
",  c #2E3B41",
"<  c #323F44",
"1  c #334146",
"2  c #36444A",
"3  c #38454B",
"4  c #3D4A4E",
"5  c #3F4C51",
"6  c #414D53",
"7  c #435055",
"8  c #465359",
"9  c #49565C",
"0  c #4E5B61",
"q  c #505D63",
"w  c #536167",
"e  c #57646C",
"r  c #58656B",
"t  c #5E6B71",
"y  c #616D74",
"u  c #657379",
"i  c #69767D",
"p  c #6C797F",
"a  c #727E84",
"s  c #768187",
"d  c #768389",
"f  c #79868D",
"g  c #7B888F",
"h  c #7F8D94",
"j  c #828D92",
"k  c #879195",
"l  c #899094",
"z  c #86949B",
"x  c #8A969C",
"c  c #8D999E",
"v  c #909A9E",
"b  c #8D99A0",
"n  c #919EA4",
"m  c #97A1A7",
"M  c #9AA3A6",
"N  c #97A3AA",
"B  c #99A6AC",
"V  c #9EABB2",
"C  c #A5AEB3",
"Z  c #A8AFB4",
"A  c #ABB1B4",
"S  c #A6B2B9",
"D  c #ACB6BD",
"F  c #ACB8BF",
"G  c #B6BABD",
"H  c #B8BCBD",
"J  c #ADBAC1",
"K  c #B2BDC3",
"L  c #B5C1C7",
"P  c #BCC1C2",
"I  c #B5C1C8",
"U  c #B9C5CB",
"Y  c #BCC8CD",
"T  c #BFCBD1",
"R  c #C5C7C7",
"E  c #C6C8C9",
"W  c #CBCCCB",
"Q  c #D0CFCD",
"!  c #D0D1CF",
"~  c #C3CED3",
"^  c #C6D1D6",
"/  c #CDD0D3",
"(  c #C7D3DA",
")  c #CAD5DB",
"_  c #CDD9DF",
"`  c #D3D4D2",
"'  c #D4D7DA",
"]  c #D5D9DB",
"[  c #D8DADB",
"{  c #D2DCE2",
"}  c #DADEE2",
"|  c #DEE5EC",
" . c #E0E7EE",
".. c #E1E8EF",
"X. c #E2E9F0",
"o. c black",
"O. c black",
"+. c black",
"@. c black",
"#. c black",
"$. c black",
"%. c black",
"&. c black",
"*. c black",
"=. c black",
"-. c black",
";. c black",
":. c black",
">. c black",
",. c black",
"<. c black",
"1. c black",
"2. c black",
"3. c black",
"4. c black",
"5. c black",
"6. c black",
"7. c black",
"8. c black",
"9. c black",
"0. c black",
"q. c black",
"w. c black",
"e. c black",
"r. c black",
"t. c black",
"y. c black",
"u. c black",
/* pixels */
"..K 9 = & & # + @ o @ o o o o o o o o o + # # & 9 l H ! } | |  .",
"| a = % + + + + o o o o o o . o o o o o o o o + # & 6 s A ` [ } ",
") 6 # + + o + o o o o o o o . o o o o o o o o o o o o # < s H Q ",
"n = # + + o o o X X o o o . o . . o o o X X X o o o + + o # 6 l ",
"7 @ o o o o X X X X . X X X . X o o o . o . o o o o @ o o + # = ",
"% o o o o o . . X X X . . . . X o o o o o o o o o o o o o o @ o ",
"@ o o o X X . X . . X . . . . X 6 s p t 7 - + o o o o o o @ o @ ",
"@ o o X X . . . . . . . . . . X : r p A H b i & o o o o o o + o ",
"o o o X X     X     X   . . . X X X % x j 7 u - o o o o o o o o ",
"o o X X X .         .   . . X X X o , C w o @ o X o o o . o o o ",
"X o X o . .   .     . X . X X X X + 9 B : o o X X o o . . o o o ",
"o X o o X     . X . X   . X X X X + u f @ o X . . X . . . . o o ",
"O X X X X X X X X . . . . X X X + , n i o o X . X . . . . X X X ",
"O o O X X . . X . X X . X X X o < b ~ c = o o . . . . X o X X X ",
"X X O O X X O O X X X X X . . o a / ~ K 6 o o . .   . . X o X X ",
"X O O O # 9 u s w 1 = X X X . o q B K D 1 o o o .     . . X o X ",
"o O X X 0 I _ T h y z 7 o o X o + - 9 6 % o @ o X .       . X X ",
"O o X $ f _ _ J 1 % j F 9 o o X o o o o o o o o X X X .   X X   ",
"O O X @ w T { N & @ a ^ n & X X o . . o o o X X X X X X X X . X ",
"X O O O $ i T h $ = B / x % o X . . . o o + + O o o o o X X X X ",
"+ O O + O $ w z 9 e L V 9 X X X . X X o + < t i 5 > @ O X X X X ",
"$ O O O O X X 1 w p t ; X X X o . o X + q V ) T g u u > O O O . ",
"= O O O X       X O X X . X . . . .   * B _ ) f - 2 F B 2 O O X ",
"$ O O X X X X . . X X X X . . . .     + x { K 3 @ 9 Y _ B - O X ",
"@ o O X   X X @ o o X X X X . .     . . 1 z K 5 ; z ) _ L 1 O X ",
"+ O X X X X 3 h j w - @ X X . .     . . . & u p g I ^ T f % O X ",
"O X X O O 4 S [ [ ` A p 3 % X .     . . . X @ * 1 9 e 5 & O X @ ",
"O X X O 4 Z ' ' ` [ ` ` P v r < % X . . . . X X O O O O X X X 4 ",
"X X + 9 Z Q ! ! ` ` ` ` ` ` Q H M a 5 - X X X O o o X O O X & M ",
"& , p G W W Q ! ! ! ` ` ` ` ` ` ` ` Y d @ X O o o o X o & 9 c { ",
"F G E E E R W W W Q ! ` ` ` ` ! ` ` ` v $ O X O o X & i M P ] | ",
"X.| | ] W R R R W W Q ! ! ! ! ` ! ! ` l @ O O X X O t R W W }  ."
};
