/* XPM */
static char *nekokak33[] = {
/* columns rows colors chars-per-pixel */
"32 32 128 2 ",
"   c #091616",
".  c #0B1817",
"X  c #0B1718",
"o  c #0D1A1A",
"O  c #101C1D",
"+  c #0F1D20",
"@  c #111E21",
"#  c #132124",
"$  c #162429",
"%  c #19262A",
"&  c #1B292E",
"*  c #1E2B31",
"=  c #212E33",
"-  c #243237",
";  c #253339",
":  c #29363B",
">  c #2B383E",
",  c #2E3B42",
"<  c #303E43",
"1  c #344147",
"2  c #36444A",
"3  c #39464C",
"4  c #3B484E",
"5  c #3D4B52",
"6  c #414F55",
"7  c #435057",
"8  c #465359",
"9  c #48565D",
"0  c #4B585F",
"q  c #4E5B62",
"w  c #515F66",
"e  c #536167",
"r  c #56636A",
"t  c #58656C",
"y  c #5D6A71",
"u  c #606E75",
"i  c #637077",
"p  c #65737A",
"a  c #6A767D",
"s  c #6A787F",
"d  c #6E7B82",
"f  c #717E86",
"g  c #738087",
"h  c #76838A",
"j  c #78858C",
"k  c #7C888F",
"l  c #7E8B92",
"z  c #818E95",
"x  c #859197",
"c  c #859298",
"v  c #8A969D",
"b  c #8C989F",
"n  c #8D9AA1",
"m  c #919CA3",
"M  c #94A1A8",
"N  c #98A5AC",
"B  c #9FA8AD",
"V  c #9EABB2",
"C  c #A2ABAF",
"Z  c #A1ADB4",
"A  c #A4B0B7",
"S  c #A4B1B8",
"D  c #ACB8BF",
"F  c #AEBAC1",
"G  c #B2BDC3",
"H  c #B4C0C7",
"J  c #BBC1C4",
"K  c #B7C3C9",
"L  c #B9C4CB",
"P  c #BEC9CE",
"I  c #BECAD1",
"U  c #C0C6C9",
"Y  c #C5CBCD",
"T  c #C4CED2",
"R  c #C4D0D5",
"E  c #CED1D1",
"W  c #C6D3D9",
"Q  c #CAD6DD",
"!  c #CCD8DE",
"~  c #D3D3D2",
"^  c #D3D7D9",
"/  c #D1D9DF",
"(  c #D0DBE2",
")  c black",
"_  c black",
"`  c black",
"'  c black",
"]  c black",
"[  c black",
"{  c black",
"}  c black",
"|  c black",
" . c black",
".. c black",
"X. c black",
"o. c black",
"O. c black",
"+. c black",
"@. c black",
"#. c black",
"$. c black",
"%. c black",
"&. c black",
"*. c black",
"=. c black",
"-. c black",
";. c black",
":. c black",
">. c black",
",. c black",
"<. c black",
"1. c black",
"2. c black",
"3. c black",
"4. c black",
"5. c black",
"6. c black",
"7. c black",
"8. c black",
"9. c black",
"0. c black",
"q. c black",
"w. c black",
"e. c black",
"r. c black",
"t. c black",
"y. c black",
"u. c black",
/* pixels */
"~ ~ ~ ~ ~ ~ ~ ~ ~ ^ G f < @ O X X X X O + + + @ @ + X + + + X X ",
"~ ~ ~ ~ ~ ~ ~ ~ U v q = @ @ O X X X @ @ , 6 < 5 - @ + + + + + + ",
"E E ~ ~ ~ ~ Y m q = + + X O X X @ 3 d n V G I G l , + + o + o o ",
"~ ~ ~ ~ E C t - @ + O O + X O % t x f C W ( ( Q I t + + + + o + ",
"~ ~ ~ G s > @ O O X O O o o O y n 4 * < V Q Q Q W j $ + o + + o ",
"~ ~ Z q % O O . X O X X X o : N n - @ $ q G Q Q I y # o o o o + ",
"J z 1 @ . X   . X X X X X X 6 G G w $ @ $ t I Q m ; + o o o o # ",
"0 & o . X     . X O X O X X w U R Z < @ $ < F V 8 # o X X o o o ",
"O O X               X X . O w J T P l 9 5 p h 3 # + o X . . X o ",
". . .               o o . O - x P R W H Z i = O O o o o . X   X ",
". . X .     X X o o o o O O O > g c l u 8 = O O o . o . o       ",
". . . .       X o o o o O O O O $ % % O O o o o . o o     .   . ",
"X X X X X X X X o o . O o O O O O O o o O o o o     o       X X ",
"% % 3 w 2 # X X o o . O o . O . o O o O o o . . o o o o     X X ",
"z n F T F y & o o O . . O . O O O o . o o o   o   .     X     X ",
"Z T Q ! ! A 1 + o o . . o o O O o . . o o o o   o . o o X     X ",
"1 u K ! ! V , # O O O o o o O = - O . . O . . o . o . . .     . ",
"# ; m ! ! b - # O O O O O = 6 k m 6 O O o . o o . . . . . . . . ",
"# % p I ! g % O O O O O - d F T Y a % o . . o o . . . . .   o o ",
"$ $ y P V 3 # O O O O $ w D T E E z = O O O o o . . . . o o   o ",
"5 2 l j 3 # + O O O O % q D E Y T l % @ O O o o O o . . . o   . ",
"A j y = + O O O O O # O & u S G T b - O O O o o X . . .   . . o ",
"r 1 $ + O O o O O # O O O & < 8 x D u % O O O O O X . . . . o o ",
"+ + + + O O . O O O O O O O @ @ - z S 9 # O O o O @ o . o o . o ",
"+ + O O O o o o o o O o o O O O @ < S m , @ O = y < O o o o o o ",
"+ + O O o o o   X X o o o o O O @ @ p G f = = f Z 6 O O . o o O ",
". + o .             X o . o o O @ @ , v G d x C r % O O O . o O ",
"+ . .               X X o . . O @ @ @ 6 F Y D r $ O O O O O O O ",
"+ . o .     .   X X X o o X X O @ @ , u D C t % O O O O O O O O ",
"o . . o . o o o . X X X o X X O O 2 m S z 1 # O O O . O O O O O ",
". o o + o o + o o . X o O o o O @ , p 8 & O O O O O O O O O O O ",
". o o o o o o o o . X o O O o O O @ @ @ O O O O O . O O . O O O "
};
