/* XPM */
static char *nekokak15[] = {
/* columns rows colors chars-per-pixel */
"32 32 128 2 ",
"   c #091716",
".  c #0B1817",
"X  c #0B1718",
"o  c #0D1A1B",
"O  c #111D1E",
"+  c #0F1D20",
"@  c #121E21",
"#  c #142123",
"$  c #182426",
"%  c #172428",
"&  c #19262A",
"*  c #1C292D",
"=  c #1E2B30",
"-  c #212E31",
";  c #253236",
":  c #293437",
">  c #263339",
",  c #29363A",
"<  c #2D3A3E",
"1  c #2D3B41",
"2  c #313E43",
"3  c #344146",
"4  c #384449",
"5  c #3C494E",
"6  c #414E53",
"7  c #445055",
"8  c #465459",
"9  c #48565C",
"0  c #4B585D",
"q  c #4F5C62",
"w  c #525E63",
"e  c #546166",
"r  c #56646B",
"t  c #58656A",
"y  c #5C696E",
"u  c #5E6B70",
"i  c #626E73",
"p  c #647177",
"a  c #697376",
"s  c #657279",
"d  c #6A767B",
"f  c #6F787C",
"g  c #707A7F",
"h  c #717D83",
"j  c #738087",
"k  c #7C868B",
"l  c #7D898F",
"z  c #7E8B92",
"x  c #818B8F",
"c  c #838E94",
"v  c #879096",
"b  c #86939A",
"n  c #8C9599",
"m  c #8E989D",
"M  c #929A9D",
"N  c #8E9BA3",
"B  c #919EA4",
"V  c #98A2A7",
"C  c #96A2A9",
"Z  c #9AA5AB",
"A  c #9CA8AF",
"S  c #9EAAB1",
"D  c #A0A7AD",
"F  c #A0A8AC",
"G  c #A3ADB3",
"H  c #A9AEB1",
"J  c #A6B0B7",
"K  c #AAB0B3",
"L  c #A7B3BA",
"P  c #ABB7BD",
"I  c #ADB9BE",
"U  c #B2BABD",
"Y  c #AEBAC1",
"T  c #B3BCC2",
"R  c #BCC2C5",
"E  c #BEC3C8",
"W  c #BDC9D0",
"Q  c #C6C7C7",
"!  c #C7C8C7",
"~  c #C8C8C7",
"^  c #C6C7C8",
"/  c #C4C9CC",
"(  c #CCCCCB",
")  c #D1D0CF",
"_  c #C3CDD3",
"`  c #CCCFD1",
"'  c #C6D0D5",
"]  c #CDD1D3",
"[  c #CBD6DC",
"{  c #CCD9DF",
"}  c #D3D3D2",
"|  c #D5D7DB",
" . c #D5D9DC",
".. c #D9DADB",
"X. c #CFDBE1",
"o. c #D3DCE2",
"O. c #DADEE3",
"+. c #DCE0E5",
"@. c #DFE6ED",
"#. c #E0E7EE",
"$. c #E1E8EF",
"%. c #E2E9F0",
"&. c black",
"*. c black",
"=. c black",
"-. c black",
";. c black",
":. c black",
">. c black",
",. c black",
"<. c black",
"1. c black",
"2. c black",
"3. c black",
"4. c black",
"5. c black",
"6. c black",
"7. c black",
"8. c black",
"9. c black",
"0. c black",
"q. c black",
"w. c black",
"e. c black",
"r. c black",
"t. c black",
"y. c black",
"u. c black",
/* pixels */
"@.@.@.@.@.@.@.%.#.#.O.E k 2 $ # # # @ @ @ O @ @ O p @.@.@.@.@.@.",
"@.@.#.@.@.@.@.@.+.) M 7 & @ O @ O @ @ O O O O @ O - R %.@.@.@.@.",
"@.@.@.@.@.@.@. .D q * O @ O @ @ O @ O O O O O o O X w O.@.@.@.@.",
"@.#.@.@.@.+.Q h : @ @ O O O O O O O O O O o o o o X $ H %.@.@.@.",
"@.#.#.+.| H 0 % @ O O O o O + + O O . O . . o o o o X 6 X.@.@.@.",
"@.+.O.} n < # O O O O X O O o + O O O . . O o o o o X o c @.@.@.",
"O...} c : @ O O o O O @ O & 1 + O O . . . O o O X X X X , _ %.@.",
"| | v ; # O O O O O O @ 2 k h & . . O . . o . . X o o X X s @.@.",
"..D < @ O O O O O O O w Y v = @ O . . .         o o o o   * Y $.",
"E 8 $ @ O O O . . O w n h D 2 + o . . .       . o o + o o o w +.",
"d - @ @ O . O o . # y < @ h x @ O O . O o o o O + o o o o o # n ",
"> $ @ O O O . . . O O O O > n y = # + O + o o + # : 7 e 5 # o - ",
"& @ @ O O o . . . . . O O O 6 U Z u $ O O O o * q l W [ I 3 . o ",
"& @ O O o o X X . . . O . O 1 U [ P 3 O o + , b s 3 C { W 7 . o ",
"@ @ O o o o o X . . . . . O - H U a & O + # s { p + r W B - + + ",
"$ @ O o o X X X . . . O O X O 4 3 # o o + % b X.A 3 w b 1 + + # ",
"# O + o . . .   . . . . o o X o O o . o o # c [ ' C r - + @ o : ",
"# + o o . . .   . . . . o o X o O . o . . . ; e 0 < % o @ + o * ",
"# O + . . o     . o . o o o # # O O o . .         . . o + + o + ",
"# O + o o o   . . o . O , p z z 2 o o o         . . . X o + o + ",
", O O + o o o . . o @ 5 s s S ' n # o . . .       o ; # + O o o ",
"m * O O o @ o o X o 8 Y r + 5 Y V $ . . . .     * p K f * O o o ",
"+.e + o @ o o o o * Z X.S 1 # j j O . o . . o 3 M ) } ) k : + o ",
"@.R - o o o + + o ; J X.X.N q d < . O . + - p U } ) ) ) ) Z w > ",
"@.@.d @ O O o o + # t A S z r ; . o o * e F } } } } } ) ) ) Q K ",
"@.@._ 1 o O o + + o # * * # X X . # 8 Z ` ..} ) } } ) ) ) ) ` } ",
"@.@.@.b # o o + # o o @ O o o X o y ! ..} } ) ) ) ) ) ) ` ] +.@.",
"@.@.@.X.5 + o o o + + O + o o o # M ....} ) ) ) ) ( ( ) +.@.@.@.",
"@.@.@.%.L = O O O @ o + + + o o @ x ..) ) ) ( ( ! `  .@.@.@.@.@.",
"@.@.@.$.@.i = = 1 9 e 1 # + o o + j ) ) ( ( ~ ( ] +.@.@.@.@.@.@.",
"@.@.@.@.@.{ J G T ] o.C > + o + o d ) ( Q Q ] +.@.@.@.@.@.@.@.@.",
"%.@.@.@.@.@.@.@.#.#.O. .s # o o o a ( Q ^ [ @.$.@.@.@.@.@.@.@.@."
};
