/* XPM */
static char *nekokak04[] = {
/* columns rows colors chars-per-pixel */
"32 32 128 2 ",
"   c #071313",
".  c #0A1717",
"X  c #0B1817",
"o  c #091718",
"O  c #0D1A1A",
"+  c #111C1D",
"@  c #121F21",
"#  c #142123",
"$  c #182526",
"%  c #1A2628",
"&  c #1C2A2C",
"*  c #202C2F",
"=  c #222F32",
"-  c #253135",
";  c #273538",
":  c #29363A",
">  c #2E3B3E",
",  c #313D41",
"<  c #354246",
"1  c #394547",
"2  c #38454A",
"3  c #3C494D",
"4  c #3D4B51",
"5  c #434F52",
"6  c #455156",
"7  c #465359",
"8  c #4B575A",
"9  c #4E5A5F",
"0  c #4F5C61",
"q  c #535E63",
"w  c #546063",
"e  c #5A666C",
"r  c #5C696E",
"t  c #5D6B71",
"y  c #626D71",
"u  c #657075",
"i  c #687276",
"p  c #6B767C",
"a  c #6F797C",
"s  c #6E7B80",
"d  c #737E84",
"f  c #768187",
"g  c #7B868B",
"h  c #7D888E",
"j  c #838B8F",
"k  c #808C92",
"l  c #87949B",
"z  c #8C9498",
"x  c #939A9D",
"c  c #949DA2",
"v  c #9AA2A5",
"b  c #96A3A9",
"n  c #98A5AA",
"m  c #9FA9AF",
"M  c #9DA9B0",
"N  c #A3A8AA",
"B  c #A8AEB1",
"V  c #AAB2B7",
"C  c #AAB6BC",
"Z  c #B2B9BD",
"A  c #B9BBBB",
"S  c #AFBBC2",
"D  c #B3BCC2",
"F  c #BCC5CC",
"G  c #BEC9CE",
"H  c #C5C7C8",
"J  c #C6CBCF",
"K  c #CBCCCB",
"L  c #CFD0CE",
"P  c #D1D1CF",
"I  c #C3CBD2",
"U  c #C8CFD6",
"Y  c #CED0D2",
"T  c #CCD4DA",
"R  c #D3D4D3",
"E  c #D7D8D7",
"W  c #D5D9DC",
"Q  c #D7DCE0",
"!  c #D8DEE4",
"~  c #DBE1E7",
"^  c #DFE6ED",
"/  c #E0E7EE",
"(  c #E1E8EF",
")  c #E2E9F0",
"_  c black",
"`  c black",
"'  c black",
"]  c black",
"[  c black",
"{  c black",
"}  c black",
"|  c black",
" . c black",
".. c black",
"X. c black",
"o. c black",
"O. c black",
"+. c black",
"@. c black",
"#. c black",
"$. c black",
"%. c black",
"&. c black",
"*. c black",
"=. c black",
"-. c black",
";. c black",
":. c black",
">. c black",
",. c black",
"<. c black",
"1. c black",
"2. c black",
"3. c black",
"4. c black",
"5. c black",
"6. c black",
"7. c black",
"8. c black",
"9. c black",
"0. c black",
"q. c black",
"w. c black",
"e. c black",
"r. c black",
"t. c black",
"y. c black",
"u. c black",
/* pixels */
"^ ^ ^ ^ ^ ^ ^ ^ ^ ^ ^ ^ ^ ^ ^ ^ ^ ^ ^ ^ ^ ^ ^ ^ ^ ^ ^ ^ ^ ^ ^ ^ ",
"^ ^ ^ ^ ^ ^ ^ ^ ^ ^ ^ ^ ^ ^ ^ ^ ^ ^ ^ ^ ^ ^ ^ ^ ^ ^ ^ ^ ^ ^ ^ ^ ",
"^ ^ ^ ^ ^ ^ ^ ^ ^ ^ ^ ^ ^ ^ ^ ^ ^ ^ ^ ^ ^ ^ ^ ^ ^ ^ ^ ^ ^ ^ ^ ^ ",
"^ ^ ^ ^ ^ ^ ^ ^ ^ ^ ^ ^ ^ ^ ^ ^ ^ ^ ^ ^ ^ ^ ^ ^ ^ ^ ^ ^ ^ ^ ^ ^ ",
"^ ^ ^ ^ ^ ^ ^ ^ ^ ^ ^ ^ ^ ^ ^ ^ ^ ^ ^ ^ ^ ^ ^ ^ ^ ^ ^ ^ ^ ^ ^ ^ ",
"^ ^ ^ ^ ^ ^ ^ ^ ^ ^ ^ ^ ~ U F S F T ~ ~ ^ ^ ^ ^ ^ ^ ^ ^ ^ ^ ^ ^ ",
"^ ^ ^ / ^ ^ ^ ^ ^ ^ V p i 3 % $ & x R L W ^ ^ ^ ^ ^ ^ ^ ^ ^ ^ ^ ",
"^ ^ ^ ^ ^ ^ ^ ^ ^ Z ; o O O + O > A R L L R ^ ^ ^ ^ ^ ^ ^ ^ ^ ^ ",
"^ ^ ^ ^ ^ ^ ^ ( G 1 # 6 4 & O o 6 H R P L K Y ~ ^ ^ ^ ^ ^ ^ ^ ^ ",
"^ ^ ^ ^ ^ ^ ( T 9 O < F F r : o + w A R P L K K ~ ^ ^ ^ ^ ^ ^ ^ ",
"^ ^ ^ ^ ^ ( ~ u O O & b r 7 l & . . > v R R L K K Q ^ ^ ^ ^ ^ ^ ",
"^ ^ ^ ^ ^ ~ g O o O O < e m G 1   . o - z E E K m j U ^ ^ ^ ^ ^ ",
"^ ^ ^ ^ ) F & O O O O O > t 9 $ X X X X * f c w & $ Z ( ^ ^ ^ ^ ",
"^ ^ ^ ^ ) Z $ O O O o O O O O O O X O # O O @ o O # F ( ^ ^ ^ ^ ",
"^ ^ ^ ^ ) D $ O O O o O @ @ @ O O + w k 0 & o O O : G ^ ^ ^ ^ ^ ",
"^ ^ ^ ^ ) D % O O o X O O 3 h , O & n a 4 p # @ # f ^ ^ ^ ^ ^ ^ ",
"^ ^ ^ ^ ) D @ + O O O O O e H y O + y 7 f F < O @ h ( ( ^ ^ ^ ^ ",
"^ ^ ^ ^ ) D * + @ O O O @ p 0 * O X $ 7 m C < O O < G ^ ^ ^ ^ ^ ",
"^ ^ ^ ^ ) D * O @ O * 4 y q + X O O X + = ; @ O O & F ^ ^ ^ ^ ^ ",
"^ ^ ^ ^ / J , @ @ + % y c , + + X X X X O o @ @ O ; F ^ ^ ^ ^ ^ ",
"^ ^ ^ ^ ( ~ x = + + O @ 5 0 @ X X X . X O O @ O # h ^ ^ ^ ^ ^ ^ ",
"^ / ^ ^ ( ~ ! z = + + + O + + X X X X X O O O O u ! ^ ^ ( ^ ^ ^ ",
"^ ^ ^ ^ / / / ~ v , + + + + O O X O X X O @ O 0 T ) ^ ^ ^ ^ ^ ^ ",
"^ ^ ^ ^ ( ( ~ ( ~ V 6 @ + + O + + O O + O O 3 I ) ^ ^ ^ ^ ^ ^ ^ ",
"^ ^ ^ ^ ^ ^ / ^ ( ^ I a = @ @ @ + + @ @ @ , S ) ^ ^ ^ ^ ^ ^ ^ ^ ",
"^ ^ ^ ^ ^ ^ ^ ^ ^ ^ ^ Q B y , = * * * = , M ( ^ ^ ^ ^ ^ ^ ^ ^ ^ ",
"^ ^ ^ ^ ^ ^ ^ ^ ^ ^ ^ ^ / ! I D D D S S F ~ ( ^ ^ ^ ^ ^ ^ ^ ^ ^ ",
"^ ^ ^ ^ ^ ^ ^ ^ ^ ^ ^ ^ ^ / ( ( ) ) ( ( ( ^ ^ ^ ^ ^ ^ ^ ^ ^ ^ ^ ",
"^ ^ ^ ^ ^ ^ ^ ^ ^ ^ ^ ^ ^ ^ ^ ^ ( ^ ^ ^ ^ ^ ^ ^ ^ ^ ^ ^ ^ ^ ^ ^ ",
"^ ^ / ^ ^ ^ ^ ^ ^ ^ ^ ^ ^ ^ ^ ^ ( ^ ^ ^ ^ ^ ^ ^ ^ ^ ^ ^ ^ ^ ^ ^ ",
"^ ^ ^ ^ ^ ^ ^ ^ ^ ^ ^ ^ ^ ^ ^ ^ ^ ^ ( ^ ^ ^ ^ ^ ^ ^ ^ ^ ^ ^ ^ ^ ",
"^ ^ ^ ^ ^ ^ ^ ^ ^ ^ ^ ^ ^ ^ ^ ^ ^ ^ ^ ^ ^ ^ ^ ^ ^ ^ ^ ^ ^ ^ ^ ^ "
};
