/* XPM */
static char *nekokak24[] = {
/* columns rows colors chars-per-pixel */
"32 32 128 2 ",
"   c #091616",
".  c #0B1817",
"X  c #0B1718",
"o  c #0D1A1A",
"O  c #101C1D",
"+  c #0F1D20",
"@  c #121F21",
"#  c #142124",
"$  c #162428",
"%  c #19262A",
"&  c #1C292D",
"*  c #1E2C30",
"=  c #212E31",
"-  c #233135",
";  c #263339",
":  c #29363B",
">  c #2C393D",
",  c #2E3C43",
"<  c #313E44",
"1  c #334146",
"2  c #354349",
"3  c #38464D",
"4  c #3A484E",
"5  c #3D4B51",
"6  c #414E54",
"7  c #445157",
"8  c #45535A",
"9  c #49555B",
"0  c #4D595F",
"q  c #4D5B60",
"w  c #515E63",
"e  c #536067",
"r  c #546268",
"t  c #59676E",
"y  c #5B6970",
"u  c #616D74",
"i  c #647177",
"p  c #667379",
"a  c #68757C",
"s  c #6D787E",
"d  c #6E7A81",
"f  c #717D83",
"g  c #738087",
"h  c #748188",
"j  c #79868C",
"k  c #7B888F",
"l  c #7E8B92",
"z  c #818E95",
"x  c #87939A",
"c  c #8A969C",
"v  c #8C98A0",
"b  c #929EA5",
"n  c #95A1A7",
"m  c #95A1A9",
"M  c #9BA6AC",
"N  c #9DA9AF",
"B  c #9EAAB1",
"V  c #A7B3BA",
"C  c #ACB5BA",
"Z  c #B2B9BD",
"A  c #B8BDBE",
"S  c #AEBAC0",
"D  c #B2BEC3",
"F  c #BCC1C4",
"G  c #B7C3C8",
"H  c #BEC9CE",
"J  c #BECBD2",
"K  c #C3C9CB",
"L  c #CDCECC",
"P  c #D1D0CE",
"I  c #C3CDD3",
"U  c #CCCFD1",
"Y  c #C7D0D3",
"T  c #CDD1D4",
"R  c #C6D2D8",
"E  c #CAD5DC",
"W  c #CDD9DF",
"Q  c #D3D3D2",
"!  c #D7D8D7",
"~  c #D7D8D9",
"^  c #D9DADB",
"/  c #D9DEE3",
"(  c #DDE2E7",
")  c black",
"_  c black",
"`  c black",
"'  c black",
"]  c black",
"[  c black",
"{  c black",
"}  c black",
"|  c black",
" . c black",
".. c black",
"X. c black",
"o. c black",
"O. c black",
"+. c black",
"@. c black",
"#. c black",
"$. c black",
"%. c black",
"&. c black",
"*. c black",
"=. c black",
"-. c black",
";. c black",
":. c black",
">. c black",
",. c black",
"<. c black",
"1. c black",
"2. c black",
"3. c black",
"4. c black",
"5. c black",
"6. c black",
"7. c black",
"8. c black",
"9. c black",
"0. c black",
"q. c black",
"w. c black",
"e. c black",
"r. c black",
"t. c black",
"y. c black",
"u. c black",
/* pixels */
"C e $ # + + o o + o o o . . . o . o o o O O O O O O # % 7 Z Q ( ",
"> @ + + o o o + . + . o . . . o o o o o o O O o O O O # % w F ^ ",
"O o o o O O + + + + o . . . o o . o o o o O o . O O O O O = s P ",
"O o o + o + o + + o     . . . . . o o . o o o + O O O O O O > c ",
"+ o o o O + + o + .     .   . . . . . . . . + . O O O O O O % < ",
"+ o + # + O + o . . . . .   . . . . . . . . . . . O O O O O O % ",
"+ + + + + o + o . . . . . . . . . . . . . o o + O O O O O O O # ",
"+ o o + o # & # + o o o . . . . . . . . . o + + O . O O O O O O ",
"+ + + + * u b k 2 # + o . . . . X X X X X X - u > O O O O X O O ",
"+ + + + r J E E V 8 + o O . . . X o o X o O = z z > O O O X O O ",
"o # + # d E E E J b > o . . . . o o O X o O + ; c x : O O X O O ",
"+ + + + a W W V e r a - O O . o o o X o O O @ & s L s % O O O O ",
"o + o + q J b 4 # * v r o o o o o X o O @ @ , f C M B 6 O O O O ",
"o o o o 2 m 3 + + 1 V k # o o . o O @ @ @ 5 b V i ; j z & O O O ",
"o o . . & h 5 & q b J l # o o . @ < w w p N z < @ @ < w % O O O ",
"o o . . . 4 l l G J J k # + O o < N I U K f % O O @ O O O O O O ",
"o o o X X @ 7 x V Z x 1 O O O O ; b U U V 1 O O o o o o o O O O ",
"q w ; O O o o % : 1 = O O O . o O t G I c = O O o . . o O O O o ",
"U T v = o o X X . . . O O . o o o = p l 1 O O O o o o O . O o O ",
"! ! T p @ o O X . . . O O . . . o @ % * @ O o . . o o . . O o o ",
"Q ! ! C < O X X . o o o . o . o O o O O O O O o . . . . . . o O ",
"Q ! ! Q f $ O X o . o . . + o o O O O O @ O + .   . . . O . o o ",
"P ! Q ! Z 2 O . . . . o . . . + O @ O O O O . . .   . o o o . o ",
"Q Q Q Q Q j $ o           . + - - % # O O O + .     . o o o o o ",
"L Q Q Q ! F 6 O . .       . 5 M m l w & o o + .     . o + o o o ",
"L P Q P P Q b - .         # v W W W J y # + + o     . . o o + o ",
"L P Q Q P ! L s # . . . . % M W R D B c 4 + + o . . . + o o o o ",
"L L P Q P P Q F 9 o . . . o d J j 5 > 8 p * + + + . . . o o o o ",
"L P P Q P P ! Q n - o . o o r B , + $ 4 m 5 + + o o o . . o o o ",
"L P P P ! P Q P Y u O . . + : a 7 1 t N J p # + o o o . . . o o ",
"L L P Q P P P Q D 9 o o o o + 3 l V J E W j # + + o o o o + o - ",
"/ L P P Q P P L p # + + o o + $ u J R E W l # + o o . . o + q V "
};
