/* XPM */
static char *nekokak21[] = {
/* columns rows colors chars-per-pixel */
"32 32 128 2 ",
"   c #091716",
".  c #0C1817",
"X  c #0D1A1A",
"o  c #111D1D",
"O  c #0F1E20",
"+  c #121E20",
"@  c #142124",
"#  c #182526",
"$  c #172428",
"%  c #19272A",
"&  c #1C2A2D",
"*  c #1E2B30",
"=  c #212E32",
"-  c #243236",
";  c #26343A",
":  c #29363A",
">  c #2C3A3F",
",  c #2E3C41",
"<  c #303E42",
"1  c #334146",
"2  c #35434A",
"3  c #39454A",
"4  c #3C494E",
"5  c #3E4B51",
"6  c #414D53",
"7  c #435055",
"8  c #455258",
"9  c #49565B",
"0  c #4E595C",
"q  c #4E5B61",
"w  c #525F65",
"e  c #546065",
"r  c #556269",
"t  c #59666D",
"y  c #5C686E",
"u  c #5E6B71",
"i  c #616E74",
"p  c #647076",
"a  c #66737A",
"s  c #69757B",
"d  c #6C787E",
"f  c #6E7B82",
"g  c #727E85",
"h  c #728086",
"j  c #788287",
"k  c #758288",
"l  c #79848A",
"z  c #7B888E",
"x  c #7F8C92",
"c  c #808D94",
"v  c #829097",
"b  c #889195",
"n  c #87959C",
"m  c #8A959B",
"M  c #8C989F",
"N  c #8D99A0",
"B  c #94A1A7",
"V  c #9BA2A7",
"C  c #96A3A9",
"Z  c #9AA5AC",
"A  c #9CA8AF",
"S  c #9EABB1",
"D  c #A3A9AB",
"F  c #A3AEB4",
"G  c #A8AFB2",
"H  c #A4B1B7",
"J  c #ACB3B7",
"K  c #AAB5BC",
"L  c #ACB8BF",
"P  c #B1B7BA",
"I  c #B8BCBF",
"U  c #AEBBC2",
"Y  c #B1BDC4",
"T  c #B6C1C7",
"R  c #BCC1C4",
"E  c #B7C3C9",
"W  c #B9C5CB",
"Q  c #BDC8CE",
"!  c #C5C6C6",
"~  c #C7C8C7",
"^  c #C2C6C8",
"/  c #C6C8C9",
"(  c #CCCCCB",
")  c #D1D1CF",
"_  c #C3CDD2",
"`  c #CBCDD0",
"'  c #C6D1D5",
"]  c #CED0D3",
"[  c #C6D1D8",
"{  c #CAD6DC",
"}  c #CDD8DE",
"|  c #D3D4D2",
" . c #D3D7DC",
".. c #D4D9DC",
"X. c #D9DADA",
"o. c #D2DBE0",
"O. c #DADFE3",
"+. c #DCE0E4",
"@. c #DFE6EC",
"#. c #E0E7EE",
"$. c #E2E9F0",
"%. c black",
"&. c black",
"*. c black",
"=. c black",
"-. c black",
";. c black",
":. c black",
">. c black",
",. c black",
"<. c black",
"1. c black",
"2. c black",
"3. c black",
"4. c black",
"5. c black",
"6. c black",
"7. c black",
"8. c black",
"9. c black",
"0. c black",
"q. c black",
"w. c black",
"e. c black",
"r. c black",
"t. c black",
"y. c black",
"u. c black",
/* pixels */
"@.$.G = @ + + + O o O @ o o o o X o o o o o o # : i P X.+.@.@.@.",
"#.o.w @ + o + + X O X X o o o X X X o o o . o @ + % 6 b ( O.@.#.",
"$.M # @ o o o o X X X X X o o X . o o o o o o o + o # = w D | O.",
"E 3 o + o o o o . X X X X X . X . o . o o o o o o o o o + , j R ",
"p @ O X o X X . X . X X . . . X o . o o o o o . o o @ o + + * q ",
"& O O O X . . . . .   X . . . . . o o o . o o o . o o o + o + + ",
"X O O X X X . . .   . . X . . . o # w y 3 = + o o o o o @ + + + ",
"o X O X X X . .     . . . . . . . o 0 c V V y - o o o o o + + o ",
"X X O X O X           X . . . X X X + & t Y F b 6 o o X o o + o ",
"O o o O X           . . X . . . X X O + g B , i e o o . o o o + ",
"o X X X X X X   . X X   . . . X X O + < H i + + # o o o o o o + ",
"X O X O X   X X X . . . . . X X X o + a N * o o o o o o o o o o ",
"O o O X O .   X X X X X . X X X o + < Z w X X X . . X o . o o o ",
"o O O O & 4 4 1 % X X X . X X X + w Z Y 6 + + X . X X . . . X . ",
"O O o # d T Q T k 5 * X X . . X q Y ] _ y + o X X X . . . . . X ",
"X X X 1 U } } H q a x ; X X X X q U _ _ p + X X .   . . . o . o ",
"+ X O ; H o.{ f + < K c # o o o + 6 c N 3 o o o X .     X X X O ",
"X O O O t [ Y < + < K Q 8 o . o X o % = # + @ X . .     . X O X ",
"+ + O O & g C ; $ g ` Y 7 o o X o X X o X o + X X .       X X X ",
"+ + O O O & f a t U Y c & o X . . . X o o o + X X X . .     X X ",
"+ O O X X   + 6 a f 7 & X o X X . . X + + o O X o o X X X . X   ",
"X X X   X . X X O O     X X X X . o o + = 6 5 * O O O X X X X X ",
"O X   O X X X X X X O   . . . X . . + t C W W v 0 & O X X X X X ",
"O X O   + , - + X X O   . X .       , Y o.{ S t t h > O O X X   ",
"  O + - g Y J s - O o X . .         ; U } K 5 @ 2 T N - O O X X ",
"  + 6 V ) X.X.| Z 9 # X X .         O t E n & & k Q [ f @ X X X ",
"< f Y | | X.X.| X.^ j < o . .       X O u N 7 i W } } Z * X X # ",
"K / ( ( ) | | | | | | J i : O .         & 2 i A Q [ Q p @ O X y ",
"/ ! ! ( ( ( ) | | | | X.) J d > X . . . X O # , w u 9 & O X < T ",
"O.` ! ! ( ( ) ) ) ) | ) ) | | P s - . . X X @ X O O O X X O M @.",
"@.O. .( ! ( ( ( ) ) | | ) | | | ^ 9 X X X @ O O O O X X . 0 } $.",
"@.#.#.O.) ! ( ( ) ) ) ) | ) ) | R 5 X O O X X O X X O @ - G $.@."
};
