/* XPM */
static char *nekokak06[] = {
/* columns rows colors chars-per-pixel */
"32 32 128 2 ",
"   c #0A1716",
".  c #0B1817",
"X  c #0A1718",
"o  c #0D1A1B",
"O  c #101D1D",
"+  c #121F21",
"@  c #152224",
"#  c #182426",
"$  c #17252A",
"%  c #1B272A",
"&  c #1E2A2D",
"*  c #202D2F",
"=  c #212E31",
"-  c #253235",
";  c #2A3739",
":  c #2E3A3E",
">  c #2F3D41",
",  c #313E42",
"<  c #344144",
"1  c #334148",
"2  c #394549",
"3  c #3C494D",
"4  c #435054",
"5  c #49565B",
"6  c #4D595E",
"7  c #515C5F",
"8  c #4E5B60",
"9  c #525E63",
"0  c #546065",
"q  c #576469",
"w  c #5B656A",
"e  c #5E696D",
"r  c #5E6C72",
"t  c #616E73",
"y  c #657176",
"u  c #66737A",
"i  c #6D767A",
"p  c #6E7B81",
"a  c #727E84",
"s  c #738086",
"d  c #79858A",
"f  c #7E898E",
"g  c #7F8C92",
"h  c #848E93",
"j  c #879093",
"k  c #8B969C",
"l  c #8C989E",
"z  c #909799",
"x  c #909A9E",
"c  c #8D99A0",
"v  c #919CA3",
"b  c #96A3AB",
"n  c #9FA8AE",
"m  c #A0A7AB",
"M  c #A0AAAF",
"N  c #A3ACB2",
"B  c #ABB1B5",
"V  c #A7B2B9",
"C  c #AAB5BB",
"Z  c #AEB9BF",
"A  c #B1B7B9",
"S  c #B3B8BA",
"D  c #B2BCC3",
"F  c #BFC2C4",
"G  c #BCC4CB",
"H  c #BEC9CF",
"J  c #C1C5C6",
"K  c #C1C6C8",
"L  c #CCCCCB",
"P  c #CFD0CE",
"I  c #D1D1CF",
"U  c #C6CED5",
"Y  c #CACCD0",
"T  c #CED0D2",
"R  c #CED5DA",
"E  c #D3D3D2",
"W  c #D0D5D8",
"Q  c #D4D9DE",
"!  c #D9DADC",
"~  c #D5DDE4",
"^  c #D8DDE2",
"/  c #DBE1E6",
"(  c #DFE6ED",
")  c #E0E7EE",
"_  c #E1E8EF",
"`  c #E2E9F0",
"'  c black",
"]  c black",
"[  c black",
"{  c black",
"}  c black",
"|  c black",
" . c black",
".. c black",
"X. c black",
"o. c black",
"O. c black",
"+. c black",
"@. c black",
"#. c black",
"$. c black",
"%. c black",
"&. c black",
"*. c black",
"=. c black",
"-. c black",
";. c black",
":. c black",
">. c black",
",. c black",
"<. c black",
"1. c black",
"2. c black",
"3. c black",
"4. c black",
"5. c black",
"6. c black",
"7. c black",
"8. c black",
"9. c black",
"0. c black",
"q. c black",
"w. c black",
"e. c black",
"r. c black",
"t. c black",
"y. c black",
"u. c black",
/* pixels */
"( ( ( ( ( ( ( ( ) ( ( ( ( ( ( ( ( ( ( ( ( ( ( ( ( ( ( ( ( ( ( ( ",
"( ( ( ( ( ( ( ( ( ( ( ( ( ( ( ( ( ( ) ( ( ( ( ( ( ( ( ) ( ( ( ( ",
"( ( ( ( ( ( ) ( ( ( ( ( ( ) ( ) ( ( ( ( ( ( ( ( ( ( ( ( ( ( ( ( ",
"( ( ( ( ( ( ( ( ( ( ( ) ) ` ` ` ` ` ` ` ` ` ) ( ( ( ( ( ( ( ( ) ",
"( ( ( ( ( ( ( ( ( ( ( ) H M M N D N M M M F / ) ( ( ( ( ( ( ( ( ",
"( ( ( ( ( ( ( ( ( ) ~ x 2 o O @ & @ + O O u T / ( ) ( ( ( ( ( ( ",
"( ( ( ( ( ( ( ` ( V 5 @ + 1 3 # o O O O : V P Q ) ( ( ( ( ( ( ) ",
"( ( ( ( ( ) ) H r $   o - V H u @ o o = k T P I / ( ( ( ( ( ( ( ",
") ( ( ( ( R f ; X X o . - C v u 3 o . w I E I I R ( ( ( ( ) ( ( ",
"( ( ( ` G 3 o . o o o o # t 1 5 g @ . ; S E I I L ~ ) ( ( ( ( ( ",
"( ( ( ` n @ o o o o . o O > c H Z *     0 L E I L P / ) ( ( ( ( ",
"( ( ( ` N @ O o o o   X o O 4 d r O   . + j E I P L Q ) ( ( ( ( ",
"( ( ( ` N @ O o . o     o O o @ o . . . . 2 F E P L L / ) ( ( ( ",
"( ( ( ` M @ O O o o o . O O o o . o o o o O d ! E P L ^ ) ( ( ( ",
"( ( ( ` M @ O O o o o . o < 9 # . . o . . o ; N F S V W ) ( ( ( ",
"( ( ( ` N @ O O o o o o @ g H 5 O O < a q & o - > - - V ` ( ( ( ",
"( ( ) _ N + + O O = * % 9 x z 4 o O h B r 8 + X X o + M ` ( ( ( ",
"( ( ) _ S * O O o 2 a a u = @ O o O p 5 - g ; o + o + N ` ( ( ( ",
"( ( ( ( ~ 6 + O o # d a + O O . . o < r v H 3 o + $ q H _ ( ( ( ",
"( ( ( ( ( m = o o o = t : X . . . . o 7 G C 1 O o 9 R ( ( ( ( ( ",
"( ( ( ( ) Q w + O o o * % . . . . o o O > > + O o r ~ ( ( ( ( ( ",
") ( ( ( ( ) S > O O O o . . . . . . . . o o O O O 3 U _ ( ( ( ( ",
"( ( ( ( ( ) / j * O O o o . o . . . . o o O o O o 1 H ` ( ( ( ( ",
") ( ( ( ( ( ) E w + O O O o o o . . . o o O o o 1 k ( ( ( ( ( ( ",
"( ( ) ( ( ( ( ( J 7 # O O O o o o o o o o . * t G ( ( ( ( ( ( ( ",
"( ( ( ( ( ( ( ( / F w % @ + O O o O + o $ 8 V ( ( ( ( ( ( ( ( ( ",
"( ( ( ( ( ( ( ( ( ^ U f < % # @ # @ # 2 v / _ ( ( ( ( ( ( ( ( ( ",
"( ( ( ( ( ( ( ( ( / / ( G N N N N N N U ( ( ( _ ( ( ( ( ( ( ( ( ",
") ( ( ( ( ( ( ( ( ( ( ` ` ` ` ` ( ` ` ( ( ( ( ( ( ( ( ( ( ( ( ( ",
"( ( ( ( ( ( ( ( ( ( ( ( ( ( ( ( ( ( ( ( ( ( ( ( ( ( ( ( ( ( ( ( ",
"( ( ( ( ( ( ( ( ( ( ( ( ( ( ( ( ( ( ( ( ( ( ( ( ( ( ( ( ( ( ( ( ",
"( ( ( ( ( ) ( ( ( ( ( ( ( ( ( ( ( ( ( ( ( ( ( ( ( ( _ ( ( ( ( ( "
};
