/* XPM */
static char *nekokak11[] = {
/* columns rows colors chars-per-pixel */
"32 32 128 2 ",
"   c #071516",
".  c #091616",
"X  c #0B1817",
"o  c #0D1A1B",
"O  c #111D1E",
"+  c #0E1C20",
"@  c #121F20",
"#  c #152224",
"$  c #192627",
"%  c #17252A",
"&  c #19272A",
"*  c #1D2A2D",
"=  c #1F2D31",
"-  c #212E31",
";  c #253235",
":  c #283537",
">  c #263439",
",  c #293639",
"<  c #2C393D",
"1  c #2E3B40",
"2  c #313E43",
"3  c #354246",
"4  c #344248",
"5  c #39474C",
"6  c #3C494E",
"7  c #3E4B51",
"8  c #424F53",
"9  c #465255",
"0  c #495457",
"q  c #4A565B",
"w  c #4E595E",
"e  c #4E5B61",
"r  c #515E64",
"t  c #556166",
"y  c #57656C",
"u  c #586468",
"i  c #5C686E",
"p  c #5F6C73",
"a  c #626E74",
"s  c #647177",
"d  c #667278",
"f  c #69767D",
"g  c #6C787E",
"h  c #6E7B82",
"j  c #727E83",
"k  c #758186",
"l  c #748289",
"z  c #7A858C",
"x  c #7C888E",
"c  c #7F8A90",
"v  c #818A8E",
"b  c #838E94",
"n  c #839096",
"m  c #869299",
"M  c #8B959B",
"N  c #8E989E",
"B  c #90979A",
"V  c #939A9D",
"C  c #8D9AA1",
"Z  c #929CA3",
"A  c #9BA6AB",
"S  c #9CA9AF",
"D  c #9FA9B0",
"F  c #A0A6A8",
"G  c #A5ACAF",
"H  c #A4AEB4",
"J  c #A5B0B5",
"K  c #ABB1B3",
"L  c #A6B2B8",
"P  c #AFB5B9",
"I  c #AFB8BF",
"U  c #B4B9BC",
"Y  c #AFBBC2",
"T  c #B3BDC2",
"R  c #BBC0C4",
"E  c #BCC4CA",
"W  c #BCC8CF",
"Q  c #BFCCD3",
"!  c #C8C8C7",
"~  c #C4CACC",
"^  c #CBCCCB",
"/  c #D1D1CF",
"(  c #C2CCD2",
")  c #CCCFD1",
"_  c #CDD1D4",
"`  c #C9D4DA",
"'  c #CFD9DF",
"]  c #D3D3D2",
"[  c #D8D8D7",
"{  c #D4D7D8",
"}  c #D5D9DB",
"|  c #D8DBDD",
" . c #D4DBE0",
".. c #D9DFE5",
"X. c #DCE1E6",
"o. c #DFE6ED",
"O. c #E0E7ED",
"+. c #E1E8EF",
"@. c #E2E9F0",
"#. c black",
"$. c black",
"%. c black",
"&. c black",
"*. c black",
"=. c black",
"-. c black",
";. c black",
":. c black",
">. c black",
",. c black",
"<. c black",
"1. c black",
"2. c black",
"3. c black",
"4. c black",
"5. c black",
"6. c black",
"7. c black",
"8. c black",
"9. c black",
"0. c black",
"q. c black",
"w. c black",
"e. c black",
"r. c black",
"t. c black",
"y. c black",
"u. c black",
/* pixels */
"o.o.O.o.o.o.o.o.o.o.O.o.+.o.o.o.o.o.o.o.o.o.o.o.o.O.o.O.o.o.O.o.",
"O.o.o.o.o.@.o.o.o.X.X.X.X.X.X.X.o.X.o.o.+.o.o.o.O.o.O.o.o.O.o.o.",
"o.O.o.o.o.o.} _ v 0 9 9 9 9 9 9 0 7 7 l I X.+.+.O.o.o.o.o.o.o.o.",
"o.o.o.O.o.X./ v = O O O +     X X     o * 0 N Q o.O.o.o.o.o.o.o.",
"o.o.o.O.o.| A , @ @ O O O o o o o X o X o X + : u L X.O.o.o.o.o.",
"o.O.o.o.o.! w # @ @ @ O o o o o o o o o + @ # o   < P [ o.o.o.o.",
"O.o.O.o.X.B * O O @ O o o X o o X X + + & f c 4 o @ k ^ ^ { o.o.",
"o.o.o.o._ q O O O O O o X o o .   o + @ f ` ' x @ o 7 U ^ _ o.o.",
"O.O.o.o.F - O O O O O O O X . . X o o 1 l C W M $ o @ 7 C ~ O.O.",
"o.o.O. .a O O O O O o o X O . X X o @ y q % u s @ @ o o $ g o.O.",
"O.O.O.R 2 O O O O - , O X X o O @ o @ c J r p 7 o @ o o o 7 X.o.",
"O.O.O.M $ O O X @ i e o o O o o @ O + s ` ` N = o o o @ X 7 X.o.",
"o.O.| i + O X O & N f 4 & @ , 2 $ O O : C S 3 X X O $ $ % r X.O.",
"o.O.~ 5 O o O O , C z b x v H L 5 o o o $ $ X X X 7 C B C U o.O.",
"o.O.K ; O O O o 4 h % - 2 h ( T 2 X o o X .     O c [ ] ] { o.o.",
"o.O.M $ O O o O , 8 O o @ & a d $ o X o X X . X = K ] ] / { o.o.",
"O.O.z $ O o o o O O X X o o O O o X O X o X X X 6 ! ] ] / ] o.o.",
"O.O.g # O o o o X X X X o o o o O O O O o o X O g ] ] / / ] o.o.",
"O.X.g $ O O o X X X X X X o o o $ a k 2 X X X = G ] ] / ^ _ o.o.",
"O.O.g $ O O O O X X X X X X o @ s T Q C $ X O q ^ ] ] / ^ } o.o.",
"o.O.b & @ @ O X o X X X X X o < f 5 r c 5 o $ m [ ] / ^ ^ ..o.o.",
"o.O.A - @ @ O X X X X X X o X 7 g : * y <   < R [ ] ^ ^ ) o.o.o.",
"O.O.T 2 # @ o o X o X   X X o i Q Y S d #   : Y [ ] ^ ! | o.o.o.",
"O.O.} r # @ O o o X o X X X X q Q ' S ; X o o 7 U / ^ ~ X.o.o.o.",
"o.O.O.b & $ @ O X X o X o o o * p h < o o o o o 0 U ! _ X.+.o.o.",
"o.o.O.E 6 @ @ @ O O o O O O o + @ @ @ # + + o + O u R X.o.o.o.o.",
"O.o.O.o.Z 8 * @ + @ o O O o O @ o + @ o + + o o o % N X.o.+.+.o.",
"o.o.o.O.O._ G i < # o O o O o o + + + % 4 1 % + o X x @.o.o.o.o.",
"o.O.o.O.O.O.@...Q C w = + + o + o o # s ~ T V d e e E +.o.o.o.o.",
"O.o.O.O.o.o.o.@.@.@.X.Y l r 7 7 9 0 d ( o.X.X.| ` ` o.o.o.+.+.o.",
"o.O.O.o.O.o.o.O.+.o.o.o.o.o.X.X.X.X.o.o.O.o.o.o.o.o.o.+.o.o.o.o.",
"o.O.o.O.o.O.o.o.o.o.o.o.o.o.o.+.o.o.o.o.o.o.O.o.o.o.o.o.o.+.o.o."
};
