/* XPM */
static char *nekokak25[] = {
/* columns rows colors chars-per-pixel */
"32 32 128 2 ",
"   c #0A1716",
".  c #0B1817",
"X  c #0A1718",
"o  c #0D1A1A",
"O  c #101C1D",
"+  c #13201F",
"@  c #0F1E20",
"#  c #111E20",
"$  c #142124",
"%  c #192427",
"&  c #162428",
"*  c #182629",
"=  c #1C292D",
"-  c #1D2C31",
";  c #202F34",
":  c #243236",
">  c #263439",
",  c #28363B",
"<  c #2B393E",
"1  c #2C3940",
"2  c #313E43",
"3  c #334145",
"4  c #374449",
"5  c #39464C",
"6  c #3B484F",
"7  c #404D52",
"8  c #435157",
"9  c #455359",
"0  c #49565D",
"q  c #4B595F",
"w  c #4E5C62",
"e  c #515E65",
"r  c #576267",
"t  c #56636A",
"y  c #59666D",
"u  c #5C686F",
"i  c #5F6C73",
"p  c #616E74",
"a  c #647076",
"s  c #657279",
"d  c #6A777D",
"f  c #6C787F",
"g  c #6E7B81",
"h  c #717E85",
"j  c #738087",
"k  c #758289",
"l  c #7B888F",
"z  c #7F8B92",
"x  c #818D94",
"c  c #839096",
"v  c #859298",
"b  c #8B979E",
"n  c #8E999E",
"m  c #8F9CA2",
"M  c #929EA4",
"N  c #94A1A7",
"B  c #96A3AA",
"V  c #98A4AB",
"C  c #9EABB2",
"Z  c #A3AEB3",
"A  c #A5B1B7",
"S  c #ACB2B5",
"D  c #A5B2B8",
"F  c #ABB7BD",
"G  c #B1B6B9",
"H  c #B0B8BD",
"J  c #AFBBC2",
"K  c #B1BDC4",
"L  c #B8BFC2",
"P  c #B5C1C8",
"I  c #BBC5CC",
"U  c #BECACF",
"Y  c #BFCBD2",
"T  c #C1C5C7",
"R  c #C3C7C8",
"E  c #C1CBCF",
"W  c #CFCFCE",
"Q  c #D1D1CF",
"!  c #C3CED3",
"~  c #C7D0D3",
"^  c #CCD2D4",
"/  c #C9D5DB",
"(  c #CDD9DE",
")  c #D3D3D2",
"_  c #D0DADF",
"`  c #D8D9D9",
"'  c #CDDAE0",
"]  c #D1DDE3",
"[  c black",
"{  c black",
"}  c black",
"|  c black",
" . c black",
".. c black",
"X. c black",
"o. c black",
"O. c black",
"+. c black",
"@. c black",
"#. c black",
"$. c black",
"%. c black",
"&. c black",
"*. c black",
"=. c black",
"-. c black",
";. c black",
":. c black",
">. c black",
",. c black",
"<. c black",
"1. c black",
"2. c black",
"3. c black",
"4. c black",
"5. c black",
"6. c black",
"7. c black",
"8. c black",
"9. c black",
"0. c black",
"q. c black",
"w. c black",
"e. c black",
"r. c black",
"t. c black",
"y. c black",
"u. c black",
/* pixels */
"* $ @ o o @ o @ @ @ o o o o X X . . . o o o o O O @ O % % : c ) ",
"& @ # o o o o @ o # + @ o o o X . o . o o o o + + o O O + % 6 S ",
"$ # o o @ o @ o o o o o . .     . o X o o o o o O O O O O % = e ",
"& o # @ @ @ @ @ o o o   .       . . X X o o o @ O o . O O O % = ",
"+ @ @ o o @ @ @ o o o o . . . . . . . X X . . o O o o o O O O % ",
"$ @ @ @ @ @ @ + # o o o . . . . . X . . . . . . O o O o O O O + ",
"+ @ @ @ @ = q k y = o O O . . . . X . . X X . . . O o O O O O O ",
"@ @ @ + + t I / ! k : O . . . . . . . . . . . o . . O O O O O O ",
"@ @ @ + & z ' ( ( Y p $ . . . . . . . . X X X O O O O O O O O O ",
"@ @ O + = B ] ' I C b > O . . O . . . . X X X # 7 < O O O O O O ",
"o o o o & m Y B e > e t + + o . X X . O O O o # j x = O O O O O ",
"o o o o & v j : $ @ 9 m : o o o O O O X O X O O < N u O O O . . ",
". o . . $ j q $ & > z A , o o . . O X O # # O # # g S 4 O O . . ",
"o o . . . 8 k 6 g C U A : o o . . X O O # # # 1 p Z W f % O O O ",
", * o o . * j F Y Y Y b = O o . O % > ; # 2 s V J x x N > O O O ",
"F z - O o o = t m A v 5 + O O o > l Z n x M V g 7 = < V 9 O O O ",
"` ) y # X X X O = < = O + . o + < S Q ^ R l < $ O O * t 2 # o # ",
"` ] M ; O O o . . . . O o + o o = v ~ ~ Z < O O O O O O # O O o ",
") ` T 2 O O o o o o o o . o o o # w S J a % O O o o O O o @ o # ",
") ` Q p # o . o . o o o o . . o # = w 8 % O O O o     O o O o O ",
") ) ` n - O . o . . O . o . . . o # # # O O o . . o . O O O O o ",
") ) ) L 2 o . . . . . o o o O O O o O # % O O . o o . O o O O O ",
") ) ) Q p O .             @ o + # O O O O O o .     . . o . o O ",
") Q ) ` M ; .             = ; * # O O O O O . .   o o . . o . O ",
"Q ) ) ) R w O .         > z m d 6 $ @ o o . .       o o o X o o ",
"Q ) Q ) ) m % . . .   @ j ( ( / J e + @ o o .     X o o o o o o ",
"Q ) Q Q ) T 9 o .     $ b ( ( / / B ; + @ o . .   o o O o o o + ",
"Q ) ) ) ) ) x # . . . @ j Y m d p z q + @ @ o .   . o o o @ o o ",
"Q ) ) ) Q ) S ,     o $ k m , & & 5 d - @ @ o . . o @ o @ o o o ",
"Q Q Q Q Q T g % o   o @ 6 s : ; , a B , o @ o o   o   o o o o o ",
"Q Q Q W G y # # @   @ @ : j z z C U P 4 o @ o o o   @ o o o o @ ",
"W Q Q G 0 # # # X @ @ @ @ q P Y ( ( P 3 @ @ o o o o     o o o o "
};
