/* XPM */
static char *nekokak17[] = {
/* columns rows colors chars-per-pixel */
"32 32 128 2 ",
"   c #0A1716",
".  c #0B1817",
"X  c #0B1718",
"o  c #0D1A1B",
"O  c #111D1E",
"+  c #0F1D21",
"@  c #111E21",
"#  c #142123",
"$  c #182527",
"%  c #172428",
"&  c #19262A",
"*  c #1C2A2D",
"=  c #1E2C32",
"-  c #212E33",
";  c #243135",
":  c #263439",
">  c #29363B",
",  c #2C3A3E",
"<  c #2E3C41",
"1  c #313F44",
"2  c #334146",
"3  c #374449",
"4  c #3A474C",
"5  c #3C494E",
"6  c #3E4B51",
"7  c #404D52",
"8  c #435057",
"9  c #46545A",
"0  c #48555A",
"q  c #4B585D",
"w  c #4E5B61",
"e  c #505E64",
"r  c #536065",
"t  c #566369",
"y  c #59666C",
"u  c #5C686E",
"i  c #5E6A71",
"p  c #606B6F",
"a  c #626D72",
"s  c #647076",
"d  c #657279",
"f  c #6B767C",
"g  c #6E797F",
"h  c #6C7980",
"j  c #727E84",
"k  c #748187",
"l  c #77848A",
"z  c #79858B",
"x  c #7D898F",
"c  c #7F8B92",
"v  c #828F96",
"b  c #879197",
"n  c #889297",
"m  c #87949B",
"M  c #8B969C",
"N  c #8E999F",
"B  c #919A9F",
"V  c #8E9BA2",
"C  c #939DA3",
"Z  c #93A0A7",
"A  c #9BA3A7",
"S  c #97A3AA",
"D  c #9BA4A9",
"F  c #9DA8AF",
"G  c #9EAAB2",
"H  c #A3AAAD",
"J  c #A2ADB3",
"K  c #A4B0B6",
"L  c #ACB2B5",
"P  c #A6B3BA",
"I  c #ADB6BC",
"U  c #ADB9BF",
"Y  c #B0B5B7",
"T  c #B4B9BD",
"R  c #AFBCC2",
"E  c #B1BCC3",
"W  c #B5C1C7",
"Q  c #BDC1C3",
"!  c #B6C2C9",
"~  c #BBC6CA",
"^  c #C3C7C7",
"/  c #C4C9CE",
"(  c #CCCDCC",
")  c #D0CFCE",
"_  c #D0D0CF",
"`  c #C3CED5",
"'  c #CBCED2",
"]  c #CBD1D4",
"[  c #C6D1D8",
"{  c #CAD4DA",
"}  c #CCD8DE",
"|  c #D3D3D2",
" . c #D4D6D9",
".. c #D8D7DA",
"X. c #D6D8DC",
"o. c #D8D9DC",
"O. c #CEDBE0",
"+. c #D1DCE3",
"@. c #DADDE2",
"#. c #DDE0E6",
"$. c #DEE5EB",
"%. c #E0E5EC",
"&. c black",
"*. c black",
"=. c black",
"-. c black",
";. c black",
":. c black",
">. c black",
",. c black",
"<. c black",
"1. c black",
"2. c black",
"3. c black",
"4. c black",
"5. c black",
"6. c black",
"7. c black",
"8. c black",
"9. c black",
"0. c black",
"q. c black",
"w. c black",
"e. c black",
"r. c black",
"t. c black",
"y. c black",
"u. c black",
/* pixels */
"$.$.$.#.@.@.o...| Q B s 5 ; & & # # # O # # # # # $ - 7 g L | %.",
"@.@.o...o...( D p 3 ; & # # O O O O O # O O O # # O # # & 7 B #.",
"..o.o...] C w ; # O O O O O O O O O O O # O # O O O O O O @ 1 ' ",
"o.o.o.E a ; # # O O O o O O O . O O O O O O O O O O O O @ @ ; T ",
"o...A 7 & @ @ O O O O O O O o + O O O O O O O O O @ O @ O @ @ V ",
"..M 1 & @ @ O O o O O o o o + @ O $ O O O o o O o o o o o o O a ",
"x < & # O O O O o o O O o @ 1 p z j ; o O O . . o o o o o o X q ",
": & # O O O O O o o X @ 6 j H Q g 7 & O X O . . . o o o o o o - ",
"& @ @ @ O O o O X . . @ p y 7 C y o O o . o . . o o o o o o o & ",
"@ @ @ @ o o X X X X . O O O @ z l O O . . . . . . o o o o o o o ",
"@ @ O O o o O X . . . o . O O e m $ O o o . .   . . . . o X X o ",
"@ O O X o X X X . . . . . O O , Z 6 O O o O . . .   . . o o X o ",
"@ O O . . .     . . . . O o O ; K J q # O O o o . o o o o o o o ",
"O O o . X o X   . . . o o . O q ~ [ H : @ @ o o o o + + o o o o ",
"@ O O X X .     . . . o o o O t ~ W m > O O + o + O + + o o o o ",
"O O o o X X   X o . . . . o . ; 0 5 ; # O o O $ > 8 t d w 2 + + ",
"+ O o o o   . . . . o o o o o o O o . o O O * k P s t ! [ P 4 + ",
"+ + o o o . o . o o o o . o o o o o . o O # t ` W < = S O.[ t + ",
"O o O O o . . o O $ > r r 4 & + O o . . . * Z X.R 2 = Z } K 2 o ",
"O O O + o o o # 9 n g u F W l # o o . O . # x _ ~ z w V v 5 # o ",
"+ + o o + O + r W ` r + q ~ U 2 . o o . . . $ w u g 0 , % O @ o ",
"+ + o + O O # m } } l @ 2 U J : . o o .         o + + o o + o & ",
"# o o O O o + f ` +.P 2 2 S y o . . o .         . . o + + + + w ",
"* o o + + o + = w c V z d w $ o o o . .         . . o + o o + g ",
"< # o o o + + + + @ $ * $ o o o o o . . . o # : 3 & o O o + # g ",
"t # # + # o + O + + o . . o o o O $ * > 5 a B Y Q u @ o O o # g ",
"S 6 ; * $ @ + O + o o o o * 6 p k n H Y ^ _ ..| | L > O o o + f ",
"$.[ J m z r * O + o . o # x /  .| ..| ..| _ _ | | ) j $ + o + f ",
"$.$.$.#.+.[ t O O o o o 1 Q ..| | .._ | _ | _ | _ ) Q r @ o + k ",
"%.#.#.#.$.#.m $ O o + o e _ | _ _ | | _ _ ) | _ | ) ) T y * 2 A ",
"%.#.@.@.@.@.P ; O o O O z ) ( ) ( ( ) ) ( ) ) ) ) ) ) ( Q H L ] ",
"%.#.@.@.o.@.~ 5 o O . - H ) ( ( ( ( ( ( ( ( ( ( ) ] { X.#.$.$.$."
};
