/* XPM */
static char *nekokak00[] = {
/* columns rows colors chars-per-pixel */
"32 32 256 2 ",
"   c #061313",
".  c #071413",
"X  c #091616",
"o  c #091717",
"O  c #0A1616",
"+  c #0B1716",
"@  c #0A1717",
"#  c #0B1717",
"$  c #091817",
"%  c #0A1817",
"&  c #0B1817",
"*  c #0C1917",
"=  c #0A1718",
"-  c #0C1718",
";  c #0A1818",
":  c #0B1818",
">  c #0A1918",
",  c #0B1918",
"<  c #0A1819",
"1  c #0B1919",
"2  c #0B191A",
"3  c #0C1818",
"4  c #0C1918",
"5  c #0C1819",
"6  c #0D1819",
"7  c #0C1919",
"8  c #0E1919",
"9  c #0C1A19",
"0  c #0D1A19",
"q  c #0E191A",
"w  c #0C1A1A",
"e  c #0D1A1A",
"r  c #0C1A1B",
"t  c #0D1A1B",
"y  c #0D1B1B",
"u  c #0E1A1A",
"i  c #0E1B1B",
"p  c #0F1C1B",
"a  c #0D1B1C",
"s  c #0E1B1C",
"d  c #0F1B1C",
"f  c #0D1B1E",
"g  c #0F1C1C",
"h  c #0F1C1D",
"j  c #0E1C1E",
"k  c #0E1D1E",
"l  c #101B1B",
"z  c #101B1C",
"x  c #101C1C",
"c  c #101C1D",
"v  c #101D1D",
"b  c #101C1E",
"n  c #111C1E",
"m  c #101D1E",
"M  c #111D1E",
"N  c #121D1F",
"B  c #111E1F",
"V  c #121E1E",
"C  c #121E1F",
"Z  c #131F1F",
"A  c #101E20",
"S  c #121E20",
"D  c #131F20",
"F  c #121F21",
"G  c #122021",
"H  c #132022",
"J  c #132123",
"K  c #142021",
"L  c #142224",
"P  c #142225",
"I  c #162224",
"U  c #172426",
"Y  c #182325",
"T  c #182426",
"R  c #192529",
"E  c #192628",
"W  c #1B282A",
"Q  c #1C292B",
"!  c #1F2C2E",
"~  c #1F2C2F",
"^  c #202C2E",
"/  c #202D2E",
"(  c #233033",
")  c #263233",
"_  c #263236",
"`  c #273437",
"'  c #293438",
"]  c #293639",
"[  c #2B383A",
"{  c #2D393B",
"}  c #2D3A3B",
"|  c #2E3A3B",
" . c #2D3A3C",
".. c #2E3B3C",
"X. c #2E3B3D",
"o. c #2E3B3E",
"O. c #2F3C3F",
"+. c #303C3F",
"@. c #313D40",
"#. c #313D41",
"$. c #323E40",
"%. c #333E41",
"&. c #333F41",
"*. c #313E42",
"=. c #333F42",
"-. c #344043",
";. c #354143",
":. c #344144",
">. c #364145",
",. c #344246",
"<. c #384447",
"1. c #3A4647",
"2. c #374348",
"3. c #39464A",
"4. c #3D494C",
"5. c #3D494E",
"6. c #3D4A4E",
"7. c #3D4A4F",
"8. c #404D51",
"9. c #414E52",
"0. c #424F54",
"q. c #475559",
"w. c #495558",
"e. c #49575E",
"r. c #4C585C",
"t. c #4C595D",
"y. c #4E5C64",
"u. c #515D62",
"i. c #505E65",
"p. c #525E64",
"a. c #546064",
"s. c #586365",
"d. c #5B666A",
"f. c #5C666A",
"g. c #59676E",
"h. c #5D686A",
"j. c #606B70",
"k. c #646D72",
"l. c #677074",
"z. c #667176",
"x. c #6A7478",
"c. c #707A7D",
"v. c #717C82",
"b. c #727F85",
"n. c #788085",
"m. c #7A8389",
"M. c #7F8689",
"N. c #7F888C",
"B. c #7C888E",
"V. c #838A8B",
"C. c #828A90",
"Z. c #818D93",
"A. c #828D92",
"S. c #858D90",
"D. c #859197",
"F. c #8A9191",
"G. c #869399",
"H. c #8D959A",
"J. c #979D9E",
"K. c #959CA0",
"L. c #9BA1A4",
"P. c #9BA3A8",
"I. c #9BA8AF",
"U. c #A1A7A9",
"Y. c #A8ACAD",
"T. c #AAAFB3",
"R. c #A7B4BB",
"E. c #A8B4BB",
"W. c #B0B6BA",
"Q. c #BDBFBF",
"!. c #ACB9C0",
"~. c #B8BDC0",
"^. c #BABEC0",
"/. c #C0C4C6",
"(. c #C3C6C7",
"). c #C6C9C9",
"_. c #C7C9C9",
"`. c #C9CCCC",
"'. c #C8CCCD",
"]. c #CACDCD",
"[. c #CACCCE",
"{. c #CCCDCC",
"}. c #CCCDCE",
"|. c #CCCECE",
" X c #CECFCF",
".X c #CDD0D1",
"XX c #CED0D0",
"oX c #CED1D2",
"OX c #CFD3D7",
"+X c #CBD1D8",
"@X c #CED5DC",
"#X c #CED6DC",
"$X c #CED6DD",
"%X c #CFD7DE",
"&X c #D0D1D0",
"*X c #D0D1D1",
"=X c #D2D2D0",
"-X c #D1D2D2",
";X c #D1D2D3",
":X c #D3D3D2",
">X c #D4D3D2",
",X c #D0D5D9",
"<X c #D4D6DA",
"1X c #D3D7DD",
"2X c #D6DADF",
"3X c #D8DADE",
"4X c #D8DBDF",
"5X c #D1D9E0",
"6X c #D4DCE3",
"7X c #D7DEE4",
"8X c #DADBE0",
"9X c #DBDCE0",
"0X c #DBDEE3",
"qX c #DEDFE4",
"wX c #DAE1E7",
"eX c #DDE1E6",
"rX c #DBE2E9",
"tX c #DCE2E9",
"yX c #DDE3EA",
"uX c #DDE4EA",
"iX c #DDE4EB",
"pX c #DEE4EA",
"aX c #DEE4EB",
"sX c #DEE5EB",
"dX c #DEE5EC",
"fX c #DFE5EC",
"gX c #DFE6EC",
"hX c #DFE6ED",
"jX c #E1E3E8",
"kX c #E0E6ED",
"lX c #E0E7ED",
"zX c #E1E7ED",
"xX c #E0E7EE",
"cX c #E1E7EE",
"vX c #E1E8EE",
"bX c black",
"nX c black",
"mX c black",
"MX c black",
"NX c black",
"BX c black",
"VX c black",
"CX c black",
"ZX c black",
"AX c black",
"SX c black",
"DX c black",
"FX c black",
"GX c black",
"HX c black",
"JX c black",
"KX c black",
"LX c black",
"PX c black",
"IX c black",
"UX c black",
/* pixels */
"hXhXhXhXhXhXhXhXhXhXhXhXhXhXhXhXhXhXhXhXhXhXhXhXhXhXhXhXhXhXhXhX",
"hXhXhXhXhXhXhXhXhXhXhXhXhXhXhXhXhXhXhXhXhXhXhXhXhXhXhXhXhXhXhXhX",
"hXhXhXhXhXhXhXhXhXhXhXhXhXhXhXhXhXhXhXhXhXhXhXhXhXhXhXhXhXhXhXhX",
"hXhXhXhXhXhXhXhXhXhXhXhXhXhXhXhXhXhXhXhXhXhXhXhXhXhXhXhXhXhXhXhX",
"hXhXhXhXhXhXhXhXhXhXhXhXhXhXhXhXhXhXhXhXhXhXhXhXhXhXhXhXhXhXhXhX",
"hXhXhXhXhXhXhXhXhXhXhXhXhXhXhXhXhXhXhXhXhXhXhXhXhXhXhXhXhXhXhXhX",
"hXhXhXhXhXhXhXhXhXhXhXhXhXhXhXhXhXhXhXhXxXhXhXhXhXhXhXhXhXhXhXhX",
"hXhXhXhXhXhXhXhXyXyXiXaXyXyXyXyXyXyXyXwX5XtXyXuXhXhXhXhXhXhXhXhX",
"hXhXhXhXhXhXhXuX.X^.z.L.;X-X&X X|.}.[.n.5.W.OX,XiXhXhXhXhXhXhXhX",
"hXhXhXhXhXhXhXyX XJ.A ;.Q.>X=X=X=X:XY.! f H.4X2XdXhXhXhXhXhXhXhX",
"hXhXhXhXhXhXhXuX*XV.j G F.{._.).`.'.h.2 f C.jXeXfXhXhXhXhXhXhXhX",
"hXhXhXhXhXhXhXpX].s.r y ) 1.&.=.>.$.D < j 8.P.+XhXhXhXhXhXhXhXhX",
"hXhXhXhXhXhXhXwXc.L H W h   . O = ( ,.] F k P u.6XxXhXhXhXhXhXhX",
"hXhXhXhXhXhXxX#X .:.B.g.Z.o.X - [ Z.e.R.t.a 2 +.$XxXhXhXhXhXhXhX",
"hXhXhXhXhXhXxX@X{ j.!.y.E.9.# 3 X.G.i.I.q.a w @.$XxXhXhXhXhXhXhX",
"hXhXhXhXhXhXxX@X..U 6.7.3.K v Z z / [ ~ t i y @.#XxXhXhXhXhXhXhX",
"hXhXhXhXhXhXxX@X| ; 7 9 9 v a.A.^ + + @ @ e w #.#XxXhXhXhXhXhXhX",
"hXhXhXhXhXhXxX@X} o 4 @ , u w.D.E 7 * % $ , w %.#XxXhXhXhXhXhXhX",
"hXhXhXhXhXhXxX@X .; y 7 : 4 T p.C 5 & : > 0 i -.$XxXhXhXhXhXhXhX",
"hXhXhXhXhXhXxX@XX.1 y 7 e i ` b.0.Y # 4 e s n 2.%XxXhXhXhXhXhXhX",
"hXhXhXhXhXhXxX@XO.a b x g m *.r.<.K 8 l c M R v.rXhXhXhXhXhXhXhX",
"hXhXhXhXhXhXxX7Xd.J h V B m d 6 q p l z N _ m.1XkXhXhXhXhXhXhXhX",
"hXhXhXhXhXhXhXpX/.M.4.Q S b d i d b I ' f.T.3XqXfXhXhXhXhXhXhXhX",
"hXhXhXhXhXhXhXuXoXXX(.U.S.c.l.k.x.N.K.~.<X9X8X0XfXhXhXhXhXhXhXhX",
"hXhXhXhXhXhXhXhXuXuXsXlXzXgXfXfXgXcXvXkXdXsXdXdXhXhXhXhXhXhXhXhX",
"hXhXhXhXhXhXhXhXhXhXhXhXhXhXhXhXhXhXhXhXhXhXhXhXhXhXhXhXhXhXhXhX",
"hXhXhXhXhXhXhXhXhXhXhXhXhXhXhXhXhXhXhXhXhXhXhXhXhXhXhXhXhXhXhXhX",
"hXhXhXhXhXhXhXhXhXhXhXhXhXhXhXhXhXhXhXhXhXhXhXhXhXhXhXhXhXhXhXhX",
"hXhXhXhXhXhXhXhXhXhXhXhXhXhXhXhXhXhXhXhXhXhXhXhXhXhXhXhXhXhXhXhX",
"hXhXhXhXhXhXhXhXhXhXhXhXhXhXhXhXhXhXhXhXhXhXhXhXhXhXhXhXhXhXhXhX",
"hXhXhXhXhXhXhXhXhXhXhXhXhXhXhXhXhXhXhXhXhXhXhXhXhXhXhXhXhXhXhXhX",
"hXhXhXhXhXhXhXhXhXhXhXhXhXhXhXhXhXhXhXhXhXhXhXhXhXhXhXhXhXhXhXhX"
};
