/* XPM */
static char *nekokak27[] = {
/* columns rows colors chars-per-pixel */
"32 32 128 2 ",
"   c #091616",
".  c #0B1817",
"X  c #0C1718",
"o  c #0D1A1A",
"O  c #111D1D",
"+  c #0F1D21",
"@  c #111E21",
"#  c #142124",
"$  c #182426",
"%  c #142329",
"&  c #19262A",
"*  c #1C292D",
"=  c #1D2B32",
"-  c #202E33",
";  c #202F38",
":  c #243136",
">  c #25333A",
",  c #283539",
"<  c #2B393F",
"1  c #2E3C43",
"2  c #303D42",
"3  c #334146",
"4  c #364449",
"5  c #38454B",
"6  c #3B484D",
"7  c #3E4C52",
"8  c #414F55",
"9  c #435056",
"0  c #46545A",
"q  c #49565C",
"w  c #4C595F",
"e  c #4D5B61",
"r  c #505E64",
"t  c #566166",
"y  c #556269",
"u  c #5A676D",
"i  c #5C6971",
"p  c #606D73",
"a  c #647176",
"s  c #647178",
"d  c #69767D",
"f  c #6C7A81",
"g  c #707D85",
"h  c #778287",
"j  c #758289",
"k  c #79868C",
"l  c #7B888F",
"z  c #7F8C93",
"x  c #818D93",
"c  c #849096",
"v  c #85939A",
"b  c #89969D",
"n  c #8B989F",
"m  c #8F9BA0",
"M  c #939EA4",
"N  c #97A5AD",
"B  c #9AA6AC",
"V  c #9CA8AF",
"C  c #9EAAB2",
"Z  c #A1AEB5",
"A  c #A4B0B6",
"S  c #A7B3B9",
"D  c #A9B5BC",
"F  c #B2B9BD",
"G  c #AEBBC2",
"H  c #B1BDC3",
"J  c #B6C1C7",
"K  c #B6C2C9",
"L  c #BBC6CB",
"P  c #BCC8CE",
"I  c #BFCAD0",
"U  c #C9CDCE",
"Y  c #C3CED3",
"T  c #CBD1D4",
"R  c #C7D4DA",
"E  c #CAD6DC",
"W  c #CDD9DE",
"Q  c #D4D4D3",
"!  c #D7D8D7",
"~  c #D3D6D8",
"^  c #D5D9DB",
"/  c #CEDAE1",
"(  c black",
")  c black",
"_  c black",
"`  c black",
"'  c black",
"]  c black",
"[  c black",
"{  c black",
"}  c black",
"|  c black",
" . c black",
".. c black",
"X. c black",
"o. c black",
"O. c black",
"+. c black",
"@. c black",
"#. c black",
"$. c black",
"%. c black",
"&. c black",
"*. c black",
"=. c black",
"-. c black",
";. c black",
":. c black",
">. c black",
",. c black",
"<. c black",
"1. c black",
"2. c black",
"3. c black",
"4. c black",
"5. c black",
"6. c black",
"7. c black",
"8. c black",
"9. c black",
"0. c black",
"q. c black",
"w. c black",
"e. c black",
"r. c black",
"t. c black",
"y. c black",
"u. c black",
/* pixels */
"V M s = + + o + @ @ @ O O O o + O o o . . . . o o o + O O @ # * ",
"; = & @ @ + # o o o + + o o o o       . . . . . . o o + O # # # ",
"@ @ @ @ O @ @ O @ # # @ + o o .     .   o o o o o o o o O # # # ",
"O o + @ O O @ @ > s k e & o   o o         o   o o o o o O O O # ",
"o + o + O O @ & z E R P t o o o o   .   .     o o o . O o O O O ",
"o o o o + O + 0 I / E E N : O o o o .   .     o o o . o O O O O ",
"o   o o . o @ k / / / E P 7 o o o   o . .       . . . o O O o O ",
"o + o o . . : C G N b j C e O o . . o . . .     . . . o o o o o ",
"* + o o X X 7 n 4 = & % t e o o O . . . . . . . . . X X O X O X ",
"M e # o     9 f @ + + # a h # O . X . . . . . . . . X X X O O O ",
"! L 4 o o o 4 v 7 7 0 u F a O O X . . . . . . . . X X X O X X O ",
"! E y o o o & b K K I I J 6 o o X O O . . O O . X X O O O O X O ",
"! ~ a o o o o 1 N I Y Y z % o o X . O . X X O . X O < * O O O O ",
"! ~ i @ o o X + 1 k m j 3 O O . . X . O O O X O O $ m t O X X O ",
"! T y o + o o . o # % # o O O . X . O O O O O O O O h x $ O O O ",
"Q U t o o o X . . o o O o O O O $ 5 4 * O O O O O O t B : O O O ",
"~ U w O o o . . . O . O O o o O 8 S F x 5 , < 9 w y c K 7 O O o ",
"Q U 0 o . . . . . . O O . o o o 9 J T U F C A F J H J L 0 O O o ",
"! U 0 o o .   . O . . . o . o O r L U Y S d q 9 0 7 0 C e + O O ",
"Q U 0 o .       O . o O . . . O 3 Z Y A 9 O O O o o > C w O O O ",
"Q U y o         . . . . o o O O * t y 4 $ O O O @ o : k 2 O O O ",
"Q U d o             . . o o O O O # @ O O O O o O @ @ & # @ O O ",
"Q Q h o .       . . $ $ O # # O O O O O O o . . X o o o @ O O O ",
"Q ! x @ . . . . + w m d > # O O O @ # O o . . o   o o o O o O O ",
"U Q c # . . . . 7 P / I z 3 + o @ + + o O . . o o O O O O O O O ",
"U F p # . . . o j / / E / z % + o o o o     . . X o . O O o O O ",
"t 2 $ o . . . - m I J P R J < o o o o .         X . O O o O O @ ",
"O O O . . o O 4 Z p 3 7 j N < + @ @ .       o . X . X . o O O @ ",
"O + O o O o o 1 j ; + # * d 9 O o o o . . . o o o . . . O O # O ",
"O O O O O O o : z y 3 > 1 j 7 o @ o . . . . o o o . O O O O O O ",
"o O O O O @ @ * b P D Z D D 3 @ o @ . . . . O O o o . O # O # O ",
"o o O O O @ @ # k R E E / V - @ + o o . . o o o o o . O O O O O "
};
