/* XPM */
static char *nekokak26[] = {
/* columns rows colors chars-per-pixel */
"32 32 128 2 ",
"   c #091716",
".  c #0B1817",
"X  c #0A1718",
"o  c #0D1A1A",
"O  c #111D1D",
"+  c #0F1D20",
"@  c #111E21",
"#  c #142124",
"$  c #182326",
"%  c #172529",
"&  c #19262A",
"*  c #1B292D",
"=  c #1D2B31",
"-  c #212E33",
";  c #233136",
":  c #26343A",
">  c #29363B",
",  c #2C393E",
"<  c #2E3B41",
"1  c #323F46",
"2  c #344146",
"3  c #354349",
"4  c #38464B",
"5  c #3C494F",
"6  c #3C4A51",
"7  c #414E54",
"8  c #415057",
"9  c #455359",
"0  c #4A575D",
"q  c #4B595F",
"w  c #4D5B61",
"e  c #515E65",
"r  c #556269",
"t  c #59666D",
"y  c #5B686F",
"u  c #5E6B72",
"i  c #606D74",
"p  c #637077",
"a  c #657279",
"s  c #6A757B",
"d  c #6B787E",
"f  c #6E7B81",
"g  c #707D83",
"h  c #738087",
"j  c #76838A",
"k  c #7A868C",
"l  c #7D8A91",
"z  c #829097",
"x  c #859299",
"c  c #8A979D",
"v  c #8B989F",
"b  c #949C9F",
"n  c #8D9AA1",
"m  c #919DA4",
"M  c #96A2A9",
"N  c #99A5AC",
"B  c #9CA8AE",
"V  c #9EAAB1",
"C  c #A3AAAE",
"Z  c #A1ADB4",
"A  c #A7B1B6",
"S  c #A7B2B8",
"D  c #ABB6BB",
"F  c #ADB8BE",
"G  c #B2BABD",
"H  c #AFBCC2",
"J  c #B2BEC4",
"K  c #B6C1C6",
"L  c #BFC3C5",
"P  c #B6C2C9",
"I  c #B9C4CA",
"U  c #BECBD1",
"Y  c #C2C5C6",
"T  c #C0C6C8",
"R  c #CCCFCF",
"E  c #D1D1CF",
"W  c #C4CED3",
"Q  c #C9CED1",
"!  c #C6D1D5",
"~  c #C8D0D6",
"^  c #CAD6DC",
"/  c #CCD8DE",
"(  c #D3D4D2",
")  c #D2D7DA",
"_  c #D7D9DA",
"`  c #D8D9D8",
"'  c #D1DBE1",
"]  c black",
"[  c black",
"{  c black",
"}  c black",
"|  c black",
" . c black",
".. c black",
"X. c black",
"o. c black",
"O. c black",
"+. c black",
"@. c black",
"#. c black",
"$. c black",
"%. c black",
"&. c black",
"*. c black",
"=. c black",
"-. c black",
";. c black",
":. c black",
">. c black",
",. c black",
"<. c black",
"1. c black",
"2. c black",
"3. c black",
"4. c black",
"5. c black",
"6. c black",
"7. c black",
"8. c black",
"9. c black",
"0. c black",
"q. c black",
"w. c black",
"e. c black",
"r. c black",
"t. c black",
"y. c black",
"u. c black",
/* pixels */
") a % + + + + + O O O O + + + o . . . . . o o o + + # @ # $ * 9 ",
"~ r # # + o + + + O O o O . o . . .   . . o . o . + o + @ # $ - ",
"F 3 + o + o o + + + o o . . .   . . o . o . + . o + o + O O # & ",
"w * + + + O O + + o + o . . . . . . . .   . . + + o o + O O # # ",
"# # O O + + # ; 4 3 & o o . . o . .     . o o   . O O O O O O O ",
"+ + + + + + , v I G p # O . . . .     o o   o . . . . . o o O O ",
"+ + + O @ # y ^ / ^ G q O O o . o . . .   . . . . . O O O O O O ",
"o o O O O & n ' / / / c * o o . . . . .   . . . . O . . O O O O ",
"o o o o o - Z / U N l m , O o . . . . . . . . . . . . O . O O O ",
"o o o o X < Z k 6 < = y q O o o . . . . X X . . . O . O O O O O ",
"o o o     4 l ; + + # a k $ o o . . o o X X O . O $ $ O O O O O ",
"% o o X X : j < = < w H h # o o . O o o o O X O O p u $ O O . O ",
"n w @ o o # f v n S P U i o o . O O . o X O X X O t b ; O O O O ",
"_ S > o o o , c U U U H 4 + o o . . o O O O O O O > N r O O O . ",
"_ Q 0 o o o o - p N l r % + O . o O O $ @ O @ $ - 5 C m - O O . ",
"_ ) a + o o o o + = = + o + O o * t s 0 : > 9 f m A Y G 2 O O . ",
"( ` z @ o O o X . . o O . O O O 2 G Q L C N Z m n s e C w + + + ",
"( ` c @ O . o X O o o O O . o o 2 C Q Q Y g 4 - & @ * n i @ @ O ",
"( ` C - o . . o o o O . . . o o : m W W z * O O @ O @ i 7 @ O O ",
"( ( G , o . . . . . . O . . o o @ e V g 1 O O O o O @ @ @ @ O o ",
"( ( Y 7 o . .   . o . O . o o o @ * , & O O O . . o O o O O o @ ",
"( ( Q e O .     . . . . . O O O O @ O @ O O O . .   o . o + o O ",
"( ( ( k # .         . . . + + + O O O O O O . . O o O O O O O @ ",
"( ( ( C *           O ; 5 : # + O O O @ O O .   . . . O o o O O ",
"E E ( Y 7 o . .     , m P v 9 = + o o o o .     . . . o o o O O ",
"( ( ( E e o . . o + h ^ / ^ P y % o O o o       . . X o o o O O ",
"( E ( E z @ . . o + l ^ ^ U / Z : O O o o       o o o X o O O O ",
"E E E Y s @ . .   % v K h h l B 4 o + o o     . o o o X o O O O ",
"( Y m 0 & O . . o ; l u % % = t y # + O o     o o o o o o o O O ",
"C e - @ O O o o o # u w = = = y a # + O o   . . o + o o o O O O ",
"1 @ O O @ o O o + + 6 M l l v P j % o + o o o o o + o o o O O @ ",
"@ @ @ o @ o @ @ + + < Z / U / / d + O O o o o o o o o o o o O O "
};
