/* XPM */
static char *nekokak30[] = {
/* columns rows colors chars-per-pixel */
"32 32 128 2 ",
"   c #0A1716",
".  c #0B1817",
"X  c #0B1718",
"o  c #0D1A1A",
"O  c #111D1D",
"+  c #111E21",
"@  c #142225",
"#  c #182326",
"$  c #162429",
"%  c #19262A",
"&  c #1C292D",
"*  c #1E2B30",
"=  c #202E33",
"-  c #243135",
";  c #253339",
":  c #29363B",
">  c #2B393D",
",  c #2E3B41",
"<  c #303E45",
"1  c #334147",
"2  c #354349",
"3  c #39464C",
"4  c #3B484E",
"5  c #3D4B51",
"6  c #414E55",
"7  c #45535A",
"8  c #49565D",
"9  c #4A585F",
"0  c #4E5B62",
"q  c #505C62",
"w  c #57646A",
"e  c #58656B",
"r  c #5A686E",
"t  c #5D6B72",
"y  c #616E76",
"u  c #637076",
"i  c #637178",
"p  c #69767D",
"a  c #6B787E",
"s  c #6E7B82",
"d  c #717E85",
"f  c #738087",
"g  c #748188",
"h  c #79858C",
"j  c #7B888F",
"k  c #7E8B92",
"l  c #818D94",
"z  c #869197",
"x  c #859299",
"c  c #8A969E",
"v  c #8C989E",
"b  c #919DA4",
"n  c #94A0A7",
"m  c #96A2A9",
"M  c #9AA6AC",
"N  c #9EABB2",
"B  c #A1ADB3",
"V  c #A4B0B7",
"C  c #A8B1B6",
"Z  c #A5B3BA",
"A  c #AAB5BA",
"S  c #ACB8BE",
"D  c #B2B8BB",
"F  c #AFBBC2",
"G  c #B1BDC3",
"H  c #B9BFC2",
"J  c #B5C1C6",
"K  c #B9C1C6",
"L  c #B6C3CA",
"P  c #BAC6CB",
"I  c #BEC9CE",
"U  c #BECAD1",
"Y  c #C4C9CC",
"T  c #CDCECD",
"R  c #CFD0CF",
"E  c #D0D0CF",
"W  c #C2CED3",
"Q  c #C5D1D5",
"!  c #C8D2D5",
"~  c #C5D2D9",
"^  c #CAD5DB",
"/  c #CDD9DE",
"(  c #D4D4D3",
")  c #D5D7D8",
"_  c #D4D9DB",
"`  c #D8D9D9",
"'  c #CEDAE0",
"]  c #D0DBE1",
"[  c black",
"{  c black",
"}  c black",
"|  c black",
" . c black",
".. c black",
"X. c black",
"o. c black",
"O. c black",
"+. c black",
"@. c black",
"#. c black",
"$. c black",
"%. c black",
"&. c black",
"*. c black",
"=. c black",
"-. c black",
";. c black",
":. c black",
">. c black",
",. c black",
"<. c black",
"1. c black",
"2. c black",
"3. c black",
"4. c black",
"5. c black",
"6. c black",
"7. c black",
"8. c black",
"9. c black",
"0. c black",
"q. c black",
"w. c black",
"e. c black",
"r. c black",
"t. c black",
"y. c black",
"u. c black",
/* pixels */
"T T E ( l & o o o X o + + + $ < 3 * + + O O o + O O o o + + O + ",
"T T ( ( Y w + o o X X o X , y V F k < + O o o o O + + o o o o O ",
"R ( ( ) ) C > o o o o + , c ~ ] ' W d + o o . o X X X o X O o O ",
"E ( ( ) ` K 2 o X X o < c ~ ' ' ' ' c & o X o . X X o o X X O o ",
"E ( ( ` ` b & o o X * k k k F ~ ~ ~ c % o X X X . . . . X X o o ",
"( ( ( ` Y 0 O O o o 0 d * $ < t b W d + O O o X . . o . . . o o ",
"( ( ) ! k & o o o $ j t $ + + $ 5 b 5 + X o o X . . . o . . . o ",
"( ( ) A 1 + o o o % k N e < + + 6 s % O X X o X .   . . o o . o ",
"( ( T r + O O o o + s Y H N t s m q O O o . o o         X X o o ",
"( ( v = O O o o X o 6 F W Y W U g - o O . . . . . . .   X X o o ",
"` D 6 O O X o X X X + d C Y D p = o O . . o . . . . X X o o o o ",
"E g # O X X o X X X + * 6 y 6 # o o o o . . . . . . . . . o o o ",
"D 6 o o . . o o o + o O O + O O O O . . o o . . . . . . . . . o ",
"g # .     . . o X o O o O o O O o . . O o X o o   .   . X . . o ",
"2 O .     . . . o o o o O o O o . . . O o o o X . . . . . . . o ",
"@ o         . . X X o o o o O O O o O . o o o o o o . . . . o o ",
"o .         . . o o o . o o O @ 6 q = O o o o o o o . O . . o o ",
"o . .       . . o o o . . . O > n K f = @ O O o o O o o O o . o ",
". . . o     o . o o o o o O & g I ! G 8 @ O O O o o - 3 # O O . ",
". . o o ; 5 q > O O O O o O > M W W R m 4 & O O O O w n : O O O ",
". . o ; v U U v > O O O O O 2 N W Y K J Z h 8 - + + d z & O O O ",
"o + 3 k ^ / ] P q @ O O O O * 7 f h 8 8 u M G v q 6 B y O O o O ",
"O - k P J ! / ! g % O O O O + + @ % @ O @ > a A G F H 6 O o o O ",
"+ 5 f 5 5 k I _ b = O O O @ O + o O O O O O # 1 s Y b - O O O O ",
"& f r $ $ ; h U j $ O O + O O + o O O O o O O + 0 Z 0 + + o O O ",
"2 V c 1 $ $ 5 n 5 + o o o O + o o . . O o O O ; b l = + o X o o ",
"y U U n 7 ; 0 f & O + . o o o o . . X . o O O < d 6 + + O o o O ",
"j U ' / J M k 4 + + O O o o X X . X o o X o O + + + + + O o O O ",
"s U ' ' ' P r $ O O O o X       . X o o o O . o O O O O O O O O ",
"5 J ' ] Z r % + O O o .       . X X X o o O O O O O O O O O O + ",
"* 0 k k 5 $ + + O O . X     . . . . . o O O O O O O O O O O O + ",
"+ + * * @ o + o o o .   X X o o X O . X . O O O O O O # O O O # "
};
