/* XPM */
static char *nekokak29[] = {
/* columns rows colors chars-per-pixel */
"32 32 128 2 ",
"   c #0A1716",
".  c #0B1817",
"X  c #0C1718",
"o  c #0D1A1A",
"O  c #111D1D",
"+  c #0F1C20",
"@  c #121E21",
"#  c #142124",
"$  c #172529",
"%  c #19262A",
"&  c #1B292C",
"*  c #1E2C31",
"=  c #212E32",
"-  c #233135",
";  c #253339",
":  c #28373E",
">  c #2B393E",
",  c #2E3B41",
"<  c #313E43",
"1  c #344247",
"2  c #36444B",
"3  c #39474D",
"4  c #3B494F",
"5  c #3D4B51",
"6  c #414E54",
"7  c #435157",
"8  c #47545A",
"9  c #49565C",
"0  c #4B585D",
"q  c #4E5B62",
"w  c #525F66",
"e  c #526066",
"r  c #55636A",
"t  c #59666D",
"y  c #5C6A70",
"u  c #626F76",
"i  c #65737A",
"p  c #68757C",
"a  c #6B787F",
"s  c #6E7B82",
"d  c #717E84",
"f  c #768289",
"g  c #79868D",
"h  c #7C888F",
"j  c #7F8C93",
"k  c #828E95",
"l  c #87949B",
"z  c #89969D",
"x  c #8D989F",
"c  c #8D9AA1",
"v  c #939FA5",
"b  c #94A0A7",
"n  c #99A2A7",
"m  c #97A3AA",
"M  c #99A5AC",
"N  c #9BA8AF",
"B  c #9EAAB1",
"V  c #A3AEB4",
"C  c #A5B0B6",
"Z  c #A9B1B5",
"A  c #A5B2B9",
"S  c #AAB6BC",
"D  c #AFBBC1",
"F  c #B3BFC7",
"G  c #B5C1C7",
"H  c #BBC2C6",
"J  c #B5C1C9",
"K  c #B9C5CB",
"L  c #BDC9CF",
"P  c #BFCBD1",
"I  c #C0C5C6",
"U  c #C6CCCF",
"Y  c #C3CED2",
"T  c #C4D0D6",
"R  c #CCD0D3",
"E  c #C7D3DA",
"W  c #CAD5DB",
"Q  c #CCD9DE",
"!  c #D4D5D5",
"~  c #D3D5D8",
"^  c #D8D9D9",
"/  c #CEDAE0",
"(  c #D1DBE1",
")  c black",
"_  c black",
"`  c black",
"'  c black",
"]  c black",
"[  c black",
"{  c black",
"}  c black",
"|  c black",
" . c black",
".. c black",
"X. c black",
"o. c black",
"O. c black",
"+. c black",
"@. c black",
"#. c black",
"$. c black",
"%. c black",
"&. c black",
"*. c black",
"=. c black",
"-. c black",
";. c black",
":. c black",
">. c black",
",. c black",
"<. c black",
"1. c black",
"2. c black",
"3. c black",
"4. c black",
"5. c black",
"6. c black",
"7. c black",
"8. c black",
"9. c black",
"0. c black",
"q. c black",
"w. c black",
"e. c black",
"r. c black",
"t. c black",
"y. c black",
"u. c black",
/* pixels */
"3 @ O o o o o o + + + + # # $ @ @ @ o o o + + o o o o o + o # @ ",
"v 1 @ O o o o + o + + # 2 s s 5 # o + o o o o o o o o o o + O @ ",
"R n < O o o o o + + @ 5 B W E S 5 + o o o       o     o o o O O ",
"! ! n 1 + o o .   + < D ( / W E f + o   o       o     . o o o O ",
"! ! ! n : o o o + ; c P / / / / h $ o o . .     . o . o o . o o ",
"! ! ^ T q o     @ y c y g M A E j $ + o o . o   . . o o o o o o ",
"! ! ^ Y 7 o o o * g 4 # $ * 2 v u @ o o . .     . . . . o o o o ",
"! ! ^ A , o o o < j , # @ # % u 5 + o o o o .   . . . o o o o o ",
"! ! ! f @ o o o , N z y 5 ; w c > o o X . . . . . . . o o o o o ",
"! ^ H 5 @ O o o $ k Y P S V F d & o o X . . . . .   . . . . o + ",
"! ! x * @ o o o + 7 D Y U Y x ; O O o . . . . o . . . . . . o O ",
"! U r @ O X o X   @ y v S k > O o o o o o o o . . . . . . . . O ",
"! Z > O X X X X   + @ = < = O O O X X O o o o . . . . . . . o o ",
"! f # o X o o X o o O o o O O X X X O X o o o . . . . . . . . O ",
"H 8 O o X X o X o o o + O o O O X O X X o o o o . . o o o . o O ",
"V > o .     X o o o o o o O O O O O O O o o O o o o o O O O . . ",
"j &         . . . O . . o o O O 6 d 8 & O O O O O . & 5 & O o O ",
"t o         . . . . . o o o o * k U S 0 % O O O O O 3 M 3 O O O ",
", .             O O o . . o O 5 S Y R Z 9 - & # O O 6 M < o X O ",
"& o         . . . . o O o o O e K Y U U S b h y 3 ; u N - o O O ",
"O . . . . . # * & O O O O O O 0 Z K Z f y s b S D M S v = O O O ",
". . . . . , h N f - O O O O O = 3 0 5 & @ @ - 8 d v U k & O O O ",
". . . . & l Q Q K y & O O O O @ @ O O O @ O O O @ 5 Z w @ O X O ",
"o . o & y P Q Q Q B 1 O O O O @ O O O o O o O O @ u v > O O X X ",
"O o + 3 V B M P Q P r + + + @ @ O o o o o o O O $ s i $ @ @ o o ",
"@ O @ q p > : y A P e @ o + o + O o o . X o o O @ * % @ O o o O ",
"@ O $ a r $ # $ e b 1 O o o o o o . X . o X o o o + @ @ O @ @ O ",
"@ @ * v M q ; $ 2 f * O @ o o o . . X . o o o o o @ o o O O O O ",
"o + 1 A P J j s f t $ O O o .   .   . . X o o O O O O O O O O O ",
"+ o 1 S / / / P N , o # o o .   . . . . X X o o O O O O O @ O @ ",
"+ @ - v Q E / J e # # O O o .   . . . . X X X o O O O # O @ @ O ",
"+ o @ u P E L s & O o o o o . . . o o o o X o O o o O O @ @ O @ "
};
