/* XPM */
static char *nekokak10[] = {
/* columns rows colors chars-per-pixel */
"32 32 128 2 ",
"   c #0A1716",
".  c #0B1817",
"X  c #0A1718",
"o  c #0D1A1B",
"O  c #111D1E",
"+  c #121F21",
"@  c #152224",
"#  c #182427",
"$  c #192629",
"%  c #1C292C",
"&  c #1F2D32",
"*  c #212D31",
"=  c #253236",
"-  c #273538",
";  c #29363B",
":  c #2D3A3E",
">  c #2E3B40",
",  c #323F43",
"<  c #334145",
"1  c #364449",
"2  c #3A464B",
"3  c #3F4D52",
"4  c #414D52",
"5  c #445155",
"6  c #465359",
"7  c #4A565B",
"8  c #4C595E",
"9  c #525E64",
"0  c #546065",
"q  c #596367",
"w  c #556269",
"e  c #5B676C",
"r  c #5D686E",
"t  c #5F6C72",
"y  c #606B6F",
"u  c #626D73",
"i  c #657076",
"p  c #687376",
"a  c #667379",
"s  c #6B767B",
"d  c #6E787D",
"f  c #727B7F",
"g  c #6C7980",
"h  c #737E83",
"j  c #758086",
"k  c #758289",
"l  c #7D868A",
"z  c #7B888F",
"x  c #7D8A91",
"c  c #80898D",
"v  c #858E92",
"b  c #839096",
"n  c #889195",
"m  c #86939A",
"M  c #8A959B",
"N  c #8D989D",
"B  c #939A9C",
"V  c #8D9AA1",
"C  c #929CA2",
"Z  c #97A3A8",
"A  c #9CA5AA",
"S  c #9BA8AE",
"D  c #A2A9AD",
"F  c #A1ABB1",
"G  c #A9B1B6",
"H  c #ABB4BA",
"J  c #B0B5B7",
"K  c #B6BABC",
"L  c #AEBAC1",
"P  c #B3BEC5",
"I  c #B7C0C6",
"U  c #BCC1C4",
"Y  c #B6C2C9",
"T  c #BCC2C8",
"R  c #BDC8CE",
"E  c #C4C6C5",
"W  c #C9CAC7",
"Q  c #C0C8CE",
"!  c #CBCCCB",
"~  c #D1D1CF",
"^  c #C1CCD3",
"/  c #CACED2",
"(  c #C5D0D6",
")  c #CCD2D5",
"_  c #C6D2D8",
"`  c #CCD3D9",
"'  c #D3D3D2",
"]  c #D3D7DA",
"[  c #D6DADE",
"{  c #D5DDE3",
"}  c #DADEE3",
"|  c #DCE1E6",
" . c #DFE6ED",
".. c #E0E1E5",
"X. c #E0E7EE",
"o. c #E1E8EF",
"O. c #E2E9F0",
"+. c black",
"@. c black",
"#. c black",
"$. c black",
"%. c black",
"&. c black",
"*. c black",
"=. c black",
"-. c black",
";. c black",
":. c black",
">. c black",
",. c black",
"<. c black",
"1. c black",
"2. c black",
"3. c black",
"4. c black",
"5. c black",
"6. c black",
"7. c black",
"8. c black",
"9. c black",
"0. c black",
"q. c black",
"w. c black",
"e. c black",
"r. c black",
"t. c black",
"y. c black",
"u. c black",
/* pixels */
" . . . . . . . . . . . . . . . . . . . . . . . . . . . . . . . .",
" . . . . .O. . .O.O.O.O.O.O.O.O.O.O.O.O. . . . . . . . . . .O. .",
" . . . . .{ | ` H H H G G G G G G H Y _ | O.O.O.O. . . . . . . .",
" . . .X.[ ! E r % @ @ @ @ + @ O + @ % > 5 s V R |  . . . . . . .",
" . . . .[ ! c % + O O o o o X . . . o . . X X 3 U ' ' ] { |  . .",
" . . . .] J 1 @ + O O o o o o o o O O = 3 & o @ h ! ! W W |  . .",
" . . . .' f # + O O o o o O X X o O % m _ z # o = l J T ! |  . .",
" . . .| E 2 O + O O o o o o . . o O 7 Y _ Y ; O o @ ; 0 m ` O. .",
" . .o.| B % O @ O O . . o .   X o @ e 8 w m > o O o . . % H O. .",
" . . .| p O O O O O . O X X . X o @ k w ; u - . O O O o @ G O. .",
" . . .) 4 O O O O O O . o X o o o @ x R L x # . . . + # < Y O. .",
" . . .U : O O O O % O O o o o O O O 3 I R 6   . & q h N K |  . .",
" . .X.D % O O O $ p * o o O # $ + O + 1 2 o .   7 ! ' ~ ~ |  . .",
" . . .n # O O . ; N 9 2 : 6 V h # O o .         y ' ' ' ' |  . .",
" . . .d @ O O O , S z x z F ) Z % . . o . . . . s ' ~ ' ! |  . .",
" . .| r O O o . ; j $ # $ 2 N p + . o o . . . o x ] ' ~ ~ | O. .",
"X.X.} 9 O O O O % 0 @ o o + $ @ o o o o X o X # S ' ' ~ ! }  . .",
"X.X.} 8 O O . . o O o o o . . X o $ < = o X X ; U ' ~ ~ ! }  . .",
" .X.} 9 O O . O o o . . . o o o o s P S <   o 3 ! ' ' ! W |  . .",
" . ...y + O O o . o . . . . . . < C x N g @ o t ' ' ~ ! !  . . .",
" . . .h # O O O o . . . . . . o 3 5 @ % e @ X t ] ' ~ W /  . . .",
" . ...A & O O O o o . . . X X o 8 V k z t o X = n / ! E )  . . .",
" . .X.E 2 @ O O o o .   . . o o 5 R | Y < X o X $ e K W [  . . .",
" . . .] i # @ O o . . . X     X % b L 9 O o o o o o 5 G |  . . .",
" . .} ..F ; + + O o o X X X o o O $ & @ + + o o o o o r |  . . .",
" . . ...] y $ + + o o o o o O o O O O O + o @ @ O + o 3 [  . . .",
" . . .} ..L , + @ + + o O O O O o + O O o > j j u r i A  . . . .",
" . . .} .. .C 2 & @ O O O o o o o o o O % M | [ [ ` / ]  . . . .",
" . . . . .X. .^ L V d 6 < & $ @ @ @ @ @ 7 ) | | [ ` ( {  . . . .",
" . . .X. . . .X.O.O.O.| _ Y L H H H H H Q  . . . .| |  . . . . .",
" . . . . . . . . . . . . .O.O.O.O.O.o.o. . . . . . . . . . . . .",
" . . .X. .X. . . . . . . . . . . . . . . . . . . . . . . . . . ."
};
