/* XPM */
static char *nekokak31[] = {
/* columns rows colors chars-per-pixel */
"32 32 128 2 ",
"   c #091716",
".  c #0B1817",
"X  c #0B1718",
"o  c #0D1A1A",
"O  c #101C1D",
"+  c #12201F",
"@  c #0F1D20",
"#  c #121F21",
"$  c #142124",
"%  c #162429",
"&  c #19262B",
"*  c #1C2A2E",
"=  c #1F2C31",
"-  c #212F33",
";  c #233136",
":  c #26333A",
">  c #29363B",
",  c #2C3A3E",
"<  c #2D3C42",
"1  c #313E44",
"2  c #334046",
"3  c #36444A",
"4  c #39464D",
"5  c #3A484E",
"6  c #3D4B51",
"7  c #404D53",
"8  c #435156",
"9  c #46535A",
"0  c #49565D",
"q  c #4B595F",
"w  c #4D5B62",
"e  c #515F66",
"r  c #536067",
"t  c #556369",
"y  c #59666D",
"u  c #5B686F",
"i  c #5E6B72",
"p  c #616E75",
"a  c #637077",
"s  c #66737A",
"d  c #69767D",
"f  c #6C797F",
"g  c #6D7A81",
"h  c #717E86",
"j  c #748087",
"k  c #758289",
"l  c #7A868D",
"z  c #7D8A91",
"x  c #828F96",
"c  c #849197",
"v  c #859299",
"b  c #89959C",
"n  c #8C989F",
"m  c #8E9BA2",
"M  c #929DA3",
"N  c #94A1A7",
"B  c #96A2A9",
"V  c #99A6AD",
"C  c #9DA9AF",
"Z  c #9EABB1",
"A  c #A2AEB6",
"S  c #A6B2B9",
"D  c #AAB6BC",
"F  c #ACB8BE",
"G  c #B2B9BE",
"H  c #ADB9C0",
"J  c #B1BDC4",
"K  c #B6C1C7",
"L  c #BAC1C5",
"P  c #B5C2C9",
"I  c #BBC6CB",
"U  c #BDC9CE",
"Y  c #BDCAD1",
"T  c #C4CCCF",
"R  c #CECECC",
"E  c #D1D1CF",
"W  c #C3CDD2",
"Q  c #C6D0D5",
"!  c #CCD0D0",
"~  c #C6D2D9",
"^  c #CAD6DC",
"/  c #CCD8DE",
"(  c #D4D4D3",
")  c #D5D8DB",
"_  c #CEDAE0",
"`  c #D1DBE0",
"'  c black",
"]  c black",
"[  c black",
"{  c black",
"}  c black",
"|  c black",
" . c black",
".. c black",
"X. c black",
"o. c black",
"O. c black",
"+. c black",
"@. c black",
"#. c black",
"$. c black",
"%. c black",
"&. c black",
"*. c black",
"=. c black",
"-. c black",
";. c black",
":. c black",
">. c black",
",. c black",
"<. c black",
"1. c black",
"2. c black",
"3. c black",
"4. c black",
"5. c black",
"6. c black",
"7. c black",
"8. c black",
"9. c black",
"0. c black",
"q. c black",
"w. c black",
"e. c black",
"r. c black",
"t. c black",
"y. c black",
"u. c black",
/* pixels */
"R R E ( ( ( ) ! w o o o X X @ # % 1 0 2 $ @ o @ @ @ o @ o + + o ",
"R E E ( ( ( ) W w o o o X o @ 3 h S U Z 0 % @ o @ o O O O o + @ ",
"E E ( ( ( ( ) M = o X X o = i D _ ` ^ ^ V : @ o o o o O o o o o ",
"E ( ( ( ) ) D 5 # o o X = l V J ^ _ ^ ^ H 1 o o o o o @ o o o + ",
"( E E ( ) G 0 # o o o $ i g 1 6 x Y _ ^ B = o o   o   o o o o o ",
"E ( ( E T w # O @ o o 1 m 4 @ # ; e Z ~ l % o o o o     o o o o ",
"( ( ( T p % O O o o o 0 H s ; # $ % i Z 3 # o o o   o         o ",
"( ( R f % O O O o X o 8 P P c 1 % ; a e $ o o o o       o       ",
"( R l - O o X X o o o 1 S ! T M z M z = + o   o o         o . . ",
"( M : o X X X o X X o * c R W W U c 5 + o o . o o         o o . ",
"G 8 # X X X X X X X o O , h A n t - + o o o . . o .       . o o ",
"i % X X . X X X X O o o O & , * + o o o o . o o   o           o ",
"* o         X X o O o O O O O O + o o o . . .   . o . . o . o o ",
"o X             X X o O O o O O o o . . o o o o . . . .   o o o ",
"o X             O o O X X O O O + . . o o o o o . . . . .     o ",
"X X X           o X X X o O X O . . . + o . o . . . . . o o     ",
"    X X     X . o o o . o o O % 3 , + + o o o o o . X X X . . X ",
"o   o * 2 2 & o o o o o o O + 9 C B 5 + O O o o o o X X X X X . ",
"@ @ < v P H j = O O o o o + 8 C Q Q j * O O o o o . . X X X . O ",
"= i V ~ _ ^ D 3 + + + O O = k Y T ! C , # O O O o O O O O O . . ",
"w V D I / / U w + + + O o > n T T Q T f ; + + O O O 2 ; O O X O ",
"k 9 2 y H / Q i $ + O O + % 5 x C b N D n 9 & + O > B y O O . O ",
"z : $ & i U ! t + o O O + + $ * > * - q V F a ; # p C 7 O O O O ",
"H w & % 2 C B , + O O + + + + O + + + + 2 b I v y A f O O O O O ",
"~ A w & 2 z 6 % o o + @ + + o O O O O O # , g H T S 4 # O O o O ",
"_ ^ H l h i & @ o o o o @ o o o X O o O O # & h T d & O o O O O ",
"Y _ _ P d = @ @ O o o . o . o . X X X O # # 7 M x ; # O O O O O ",
"_ Y V t * @ @ @ O o o   . . . . o X X O o - b M < O O O X X O O ",
"z u > @ @ @ O O . . X       X X o o o o O # 8 1 # O O X X O O O ",
"% + @ + @ @ O . X         X X X o o o o O O # # O O O O O O O O ",
"+ o + o o o o . X . X X X X X X X O O O O O O O O O O O O O O + ",
"o @ + o @ o o o X X X X o X X X X o o O O O O O # O O O + + + $ "
};
