/* XPM */
static char *nekokak32[] = {
/* columns rows colors chars-per-pixel */
"32 32 128 2 ",
"   c #0A1716",
".  c #0B1817",
"X  c #0B1718",
"o  c #0D1A1A",
"O  c #111D1D",
"+  c #111E21",
"@  c #142124",
"#  c #182527",
"$  c #162429",
"%  c #19262A",
"&  c #1C292D",
"*  c #1C2A31",
"=  c #212E34",
"-  c #243135",
";  c #263338",
":  c #28363D",
">  c #2B383E",
",  c #2E3C41",
"<  c #303E43",
"1  c #334146",
"2  c #354349",
"3  c #38454C",
"4  c #3C494F",
"5  c #3D4B52",
"6  c #414F56",
"7  c #46535A",
"8  c #49575D",
"9  c #4B585F",
"0  c #4D5B62",
"q  c #505F66",
"w  c #536067",
"e  c #556269",
"r  c #58656C",
"t  c #5E6C72",
"y  c #616D73",
"u  c #637077",
"i  c #657279",
"p  c #6A767D",
"a  c #6B787F",
"s  c #6E7B82",
"d  c #727F85",
"f  c #738087",
"g  c #748188",
"h  c #79858C",
"j  c #7B888F",
"k  c #7D8A91",
"l  c #818E95",
"z  c #869299",
"x  c #8A969D",
"c  c #8F9BA2",
"v  c #929EA5",
"b  c #93A0A7",
"n  c #96A4AB",
"m  c #9AA6AD",
"M  c #A1ACB2",
"N  c #A5B1B7",
"B  c #A7B3B9",
"V  c #A9B5BC",
"C  c #AFBBC2",
"Z  c #B2BEC4",
"A  c #B5C0C7",
"S  c #BAC1C4",
"D  c #B7C3C9",
"F  c #BAC5CA",
"G  c #BCC8CE",
"H  c #BFCBD1",
"J  c #C1C7C9",
"K  c #CFCFCD",
"L  c #D1D1CF",
"P  c #C3CED2",
"I  c #CACFD1",
"U  c #C5D0D6",
"Y  c #C9D3D6",
"T  c #C5D2D8",
"R  c #C9D6DB",
"E  c #CDD9DE",
"W  c #D3D4D2",
"Q  c #D7D8D9",
"!  c gray85",
"~  c #CDD9E0",
"^  c #D0DBE1",
"/  c black",
"(  c black",
")  c black",
"_  c black",
"`  c black",
"'  c black",
"]  c black",
"[  c black",
"{  c black",
"}  c black",
"|  c black",
" . c black",
".. c black",
"X. c black",
"o. c black",
"O. c black",
"+. c black",
"@. c black",
"#. c black",
"$. c black",
"%. c black",
"&. c black",
"*. c black",
"=. c black",
"-. c black",
";. c black",
":. c black",
">. c black",
",. c black",
"<. c black",
"1. c black",
"2. c black",
"3. c black",
"4. c black",
"5. c black",
"6. c black",
"7. c black",
"8. c black",
"9. c black",
"0. c black",
"q. c black",
"w. c black",
"e. c black",
"r. c black",
"t. c black",
"y. c black",
"u. c black",
/* pixels */
"K L L L W W Q W Q I i + o o X X X + + % ; = + + + + + o + o o o ",
"L W W W W W Q ! I d = + o X X X + < u l m c 0 + + + o + o + o + ",
"W L W W W W Q Z i = O + O X + 6 d C T ^ ~ R N < + o o + + o + o ",
"W L L W W W M 9 + + o X X + 6 z k m T ~ ~ R H r + o o o o + o + ",
"W W W W K x 1 @ + O X X + < z 7 % , k T ~ ~ Z 0 + o o o o + + o ",
"L W W J f ; + O o + X + + s v : + + , d Z T v = o . . o o o + o ",
"W W Z y % O o o o X o o + c G s = + + * b C q + o o o .   o o o ",
"W J t $ O O X X X o X + + c R Z d * $ , k s * + o .   o     o o ",
"V u # O   . . X X X X X # l K I A k f l r & O o o o .           ",
"r # o .     X X o o X O O 9 M J U P N d = o o o o . . .       o ",
"+ . . .     X X o o O o O O 7 l j t 1 # o o o . . o . . . . o o ",
"o . . .   . X o o o o O O O O # # O o o O o o . . o . . . . . o ",
". . .         X X o O X O O O O O O o o o o o o . .     . .     ",
". . o .       X o X o o X O O O o o o o o o . . . o o           ",
". X X o     . o o o X X o O O O O . . . o o . . . . o .   o o o ",
"X o % < > & X X o o X o o o . O O . o o o o o . o . o       o o ",
"> 5 j A A k 1 o . O O . o O O & > & O . o o o o o   . . . . . o ",
"c A T ~ E G e @ O . O X O + = p M p & O o X o o .   . o . o     ",
"f j B R R H t # O O O O O > l Z Y B 3 O O o o X o     X . . . X ",
"* * 0 A E T t # + O O O # y D I I S 0 @ O O O O o o X X . . . o ",
"* $ = k R H w @ O O O O - d J I I P u # O O o X o o o o . . o o ",
"4 $ $ r G b : O O O O O + > d V N D m 6 # O O O O o O o o o . o ",
"k 1 * i l 2 @ O O O O O O O - < 1 e m m 7 # O O O < < O O o o O ",
"H n s f 2 O O O O O O @ O O O O + + 3 m N 8 @ + < m i O O . o o ",
"~ A s : @ + + o X + O + O o O O O + + 5 N B 8 , l v 3 O O o o O ",
"s 5 * + + + o o o X X O O X o O O O + + q B N v V 8 + O O O O O ",
"@ + + + + O o o X X X X X X X o o o O + $ q S J s % O o O O O O ",
"o + o o o o o o X       X X o X X O O + * s S f ; + O o O O O O ",
"+ o o o o o . .         X o o o X O o & h V p - O O O O O O O o ",
"o o o o o .     X X   X X o o o o O O = y w % O O O o O O O o O ",
"o o o o o . .   X o o X X X o o O o o + # + O O O O O o O O O O ",
"o o o o . o o . o o o o X X o o O o O O O O O O O . O O O O O O "
};
