/* XPM */
static char *nekokak34[] = {
/* columns rows colors chars-per-pixel */
"32 32 128 2 ",
"   c #0A1716",
".  c #0B1817",
"X  c #0B1718",
"o  c #0D1A1A",
"O  c #111C1D",
"+  c #121E21",
"@  c #142124",
"#  c #172529",
"$  c #19262B",
"%  c #1C2A2E",
"&  c #1C2B31",
"*  c #212E33",
"=  c #233136",
"-  c #27343A",
";  c #28363B",
":  c #2C3A3F",
">  c #2D3B41",
",  c #303E44",
"<  c #314047",
"1  c #364349",
"2  c #39464C",
"3  c #3B494E",
"4  c #3D4A51",
"5  c #414E54",
"6  c #435057",
"7  c #455259",
"8  c #49575E",
"9  c #4B595F",
"0  c #4D5B62",
"q  c #505E65",
"w  c #536066",
"e  c #556369",
"r  c #5A676E",
"t  c #5B686F",
"y  c #5E6B72",
"u  c #616E75",
"i  c #637077",
"p  c #647279",
"a  c #69767D",
"s  c #6B787F",
"d  c #6E7B82",
"f  c #717E85",
"g  c #748087",
"h  c #748188",
"j  c #7A868D",
"k  c #7A888E",
"l  c #7D8A91",
"z  c #838F95",
"x  c #86939A",
"c  c #89959C",
"v  c #8C989E",
"b  c #8E9BA1",
"n  c #93A0A7",
"m  c #9AA2A7",
"M  c #95A1A8",
"N  c #9AA6AC",
"B  c #9BA8AF",
"V  c #9FABB1",
"C  c #A2AEB4",
"Z  c #A4B0B7",
"A  c #A6B2B9",
"S  c #AAB6BC",
"D  c #ADB8BF",
"F  c #AFBCC3",
"G  c #B2BEC4",
"H  c #B5C0C6",
"J  c #B6C3CA",
"K  c #BAC6CC",
"L  c #BEC9CF",
"P  c #BECBD2",
"I  c #C3C7C9",
"U  c #C3CACD",
"Y  c #C9CDCE",
"T  c #D1D1CF",
"R  c #C3CED3",
"E  c #C7D1D5",
"W  c #C6D2D8",
"Q  c #CAD6DB",
"!  c #CCD8DE",
"~  c #D3D3D2",
"^  c #CFDBE1",
"/  c #D0DAE0",
"(  c black",
")  c black",
"_  c black",
"`  c black",
"'  c black",
"]  c black",
"[  c black",
"{  c black",
"}  c black",
"|  c black",
" . c black",
".. c black",
"X. c black",
"o. c black",
"O. c black",
"+. c black",
"@. c black",
"#. c black",
"$. c black",
"%. c black",
"&. c black",
"*. c black",
"=. c black",
"-. c black",
";. c black",
":. c black",
">. c black",
",. c black",
"<. c black",
"1. c black",
"2. c black",
"3. c black",
"4. c black",
"5. c black",
"6. c black",
"7. c black",
"8. c black",
"9. c black",
"0. c black",
"q. c black",
"w. c black",
"e. c black",
"r. c black",
"t. c black",
"y. c black",
"u. c black",
/* pixels */
"~ ~ T T ~ ~ ~ ~ ~ Y C j 7 - + + + o X X X X + + + + + + o o + + ",
"T ~ ~ ~ ~ ~ Y D z q , * + + + O o o X X X + X + + + + + o + + o ",
"T ~ ~ ~ Y N u , $ + O O O O X o o o o % , 4 4 8 , , & # + + o + ",
"~ ~ I m r ; @ o O o o o O O o X o $ 9 j x F G P G G f , + o + o ",
"C z 0 = O o o X . . o X o o o o $ a n q , u G ^ ^ ^ P d @ + + + ",
", % o X .     X   . X o X . o O 5 F f * + * x ^ ^ Q Q l & o o + ",
"o o . .           . o o X X . @ f E N > + + 8 G Q Q W l # + + o ",
". .             X X o X o X o ; N Y G p # + & f W W B < + + o o ",
". . . .           X o X o o o : V L R c - @ $ g P V 4 @ + X X o ",
". . . .             o o o o O # d L R L b y t l f < @ + X X X X ",
"+ + o + X X     o o X o o O O O : l V D A B a > # + + + X o o o ",
"y q p f 0 & X X o o o o o o O O O % ; 1 < : % O + o X X o o X X ",
"F P W ! K d $ o o o . O . O O o O O O o o O O o O . . o X X X X ",
"0 n Q Q ^ S 1 o o o . o O . o O O O O o o o o o o . o . X X X X ",
"# 0 K Q Q M > + o o o . . . O . O o . o o o o o . . . . X X X   ",
"@ 1 S ^ W d % + + O o . . O O O o . . . . o     o o X X       X ",
"# < V ^ H 4 @ + + O o O + + + = * o o o O . . . . . . . .       ",
"& 0 D H i % + O O O O + * 0 d b g % o o . O O . . . O .         ",
"y l i 4 % O O O O O + - p F U E S 1 O o . . . O . . . . X X   . ",
"q 2 # + O O O O O O + 7 A U R E S 5 @ o . . O . o . . .   X X . ",
"@ + + O O o + + O @ + - c Y Y Y N : @ O o o o .   . . .   X o o ",
"+ + + O o . o + @ O + + 5 b F Y v * O O O o o o . X . . X X o o ",
"O O O o O . O O O O O O + : 7 N V 1 O O O o o o o   . . X . . X ",
"o O O . o . . o o O O O + + + 6 S a % O O O O o . X . . . . . o ",
"o .     .   o   o o o o O O + $ z A 5 + O O o O . . . . . . o o ",
". .             X . . o O O + + 9 G d $ O O % % + O . o o o o O ",
". . . .         X o . . o o O O : C C , + , z s $ o o . . . O O ",
"o . . o o   o   X o o X . O O O + p G f u m V q # O o o o O O . ",
"o o o o o o o   X o o X X O O + + 7 G U G z 1 # O O o . O O O . ",
"+ o + o o o o   X X O o O + + 5 d b G C u = O O O O O O O . . O ",
"o + o o o o o   o O O o X O + d C z q > $ O O O o O O O O o O O ",
"o o o o o . o . X X O O o O + > , * + + O O . O o O O O O O O O "
};
